GTAmerica-Regular.ufo
<glyph name="exclam" format="2">
  <advance width="310"/>
  <unicode hex="0021"/>
  <outline>
    <contour>
      <point x="125" y="182" type="line"/>
      <point x="100" y="725" type="line"/>
      <point x="210" y="725" type="line"/>
      <point x="185" y="182" type="line"/>
    </contour>
    <contour>
      <point x="208" y="106" type="line"/>
      <point x="208" y="0" type="line"/>
      <point x="102" y="0" type="line"/>
      <point x="102" y="106" type="line"/>
    </contour>
  </outline>
</glyph>
<glyph name="quotedbl" format="2">
  <advance width="404"/>
  <unicode hex="0022"/>
  <outline>
    <contour>
      <point x="88" y="447" type="line"/>
      <point x="70" y="710" type="line"/>
      <point x="165" y="710" type="line"/>
      <point x="147" y="447" type="line"/>
    </contour>
    <contour>
      <point x="257" y="447" type="line"/>
      <point x="239" y="710" type="line"/>
      <point x="334" y="710" type="line"/>
      <point x="316" y="447" type="line"/>
    </contour>
  </outline>
</glyph>
<glyph name="numbersign" format="2">
  <advance width="560"/>
  <unicode hex="0023"/>
  <outline>
    <contour>
      <point x="550" y="422" type="line"/>
      <point x="435" y="422" type="line"/>
      <point x="408" y="273" type="line"/>
      <point x="516" y="273" type="line"/>
      <point x="516" y="204" type="line"/>
      <point x="395" y="204" type="line"/>
      <point x="357" y="0" type="line"/>
      <point x="278" y="0" type="line"/>
      <point x="316" y="204" type="line"/>
      <point x="189" y="204" type="line"/>
      <point x="151" y="0" type="line"/>
      <point x="72" y="0" type="line"/>
      <point x="110" y="204" type="line"/>
      <point x="10" y="204" type="line"/>
      <point x="10" y="273" type="line"/>
      <point x="123" y="273" type="line"/>
      <point x="150" y="422" type="line"/>
      <point x="50" y="422" type="line"/>
      <point x="50" y="491" type="line"/>
      <point x="163" y="491" type="line"/>
      <point x="201" y="695" type="line"/>
      <point x="280" y="695" type="line"/>
      <point x="242" y="491" type="line"/>
      <point x="369" y="491" type="line"/>
      <point x="407" y="695" type="line"/>
      <point x="486" y="695" type="line"/>
      <point x="448" y="491" type="line"/>
      <point x="550" y="491" type="line"/>
    </contour>
    <contour>
      <point x="329" y="273" type="line"/>
      <point x="356" y="422" type="line"/>
      <point x="229" y="422" type="line"/>
      <point x="202" y="273" type="line"/>
    </contour>
  </outline>
</glyph>
<glyph name="dollar" format="2">
  <advance width="609"/>
  <unicode hex="0024"/>
  <outline>
    <contour>
      <point x="569" y="183" type="qcurve" smooth="yes"/>
      <point x="569" y="100"/>
      <point x="444" y="-9"/>
      <point x="338" y="-16" type="qcurve"/>
      <point x="338" y="-107" type="line"/>
      <point x="278" y="-107" type="line"/>
      <point x="278" y="-16" type="line"/>
      <point x="179" y="-9"/>
      <point x="49" y="95"/>
      <point x="30" y="189" type="qcurve"/>
      <point x="122" y="207" type="line"/>
      <point x="162" y="78"/>
      <point x="278" y="63" type="qcurve"/>
      <point x="278" y="326" type="line"/>
      <point x="261" y="330" type="line" smooth="yes"/>
      <point x="157" y="352"/>
      <point x="63" y="447"/>
      <point x="63" y="528" type="qcurve" smooth="yes"/>
      <point x="63" y="603"/>
      <point x="181" y="702"/>
      <point x="278" y="709" type="qcurve"/>
      <point x="278" y="800" type="line"/>
      <point x="338" y="800" type="line"/>
      <point x="338" y="709" type="line"/>
      <point x="424" y="701"/>
      <point x="537" y="610"/>
      <point x="554" y="531" type="qcurve"/>
      <point x="463" y="505" type="line"/>
      <point x="435" y="614"/>
      <point x="338" y="631" type="qcurve"/>
      <point x="338" y="403" type="line"/>
      <point x="347" y="401" type="line" smooth="yes"/>
      <point x="463" y="376"/>
      <point x="569" y="276"/>
    </contour>
    <contour>
      <point x="157" y="528" type="qcurve" smooth="yes"/>
      <point x="157" y="485"/>
      <point x="213" y="432"/>
      <point x="278" y="416" type="qcurve"/>
      <point x="278" y="634" type="line"/>
      <point x="222" y="630"/>
      <point x="157" y="576"/>
    </contour>
    <contour>
      <point x="338" y="62" type="line"/>
      <point x="403" y="67"/>
      <point x="475" y="129"/>
      <point x="475" y="183" type="qcurve" smooth="yes"/>
      <point x="475" y="236"/>
      <point x="413" y="294"/>
      <point x="338" y="313" type="qcurve"/>
    </contour>
  </outline>
</glyph>
<glyph name="percent" format="2">
  <advance width="777"/>
  <unicode hex="0025"/>
  <outline>
    <contour>
      <point x="191" y="359" type="qcurve" smooth="yes"/>
      <point x="113" y="359"/>
      <point x="20" y="457"/>
      <point x="20" y="541" type="qcurve" smooth="yes"/>
      <point x="20" y="622"/>
      <point x="113" y="720"/>
      <point x="190" y="720" type="qcurve" smooth="yes"/>
      <point x="265" y="720"/>
      <point x="360" y="620"/>
      <point x="360" y="538" type="qcurve" smooth="yes"/>
      <point x="360" y="457"/>
      <point x="266" y="359"/>
    </contour>
    <contour>
      <point x="127" y="-15" type="line"/>
      <point x="564" y="710" type="line"/>
      <point x="647" y="710" type="line"/>
      <point x="210" y="-15" type="line"/>
    </contour>
    <contour>
      <point x="191" y="423" type="qcurve" smooth="yes"/>
      <point x="234" y="423"/>
      <point x="286" y="485"/>
      <point x="286" y="538" type="qcurve" smooth="yes"/>
      <point x="286" y="592"/>
      <point x="234" y="656"/>
      <point x="190" y="656" type="qcurve" smooth="yes"/>
      <point x="145" y="656"/>
      <point x="92" y="594"/>
      <point x="92" y="541" type="qcurve" smooth="yes"/>
      <point x="92" y="485"/>
      <point x="145" y="423"/>
    </contour>
    <contour>
      <point x="588" y="-16" type="qcurve" smooth="yes"/>
      <point x="510" y="-16"/>
      <point x="417" y="82"/>
      <point x="417" y="166" type="qcurve" smooth="yes"/>
      <point x="417" y="247"/>
      <point x="510" y="345"/>
      <point x="587" y="345" type="qcurve" smooth="yes"/>
      <point x="662" y="345"/>
      <point x="757" y="245"/>
      <point x="757" y="163" type="qcurve" smooth="yes"/>
      <point x="757" y="82"/>
      <point x="663" y="-16"/>
    </contour>
    <contour>
      <point x="588" y="48" type="qcurve" smooth="yes"/>
      <point x="631" y="48"/>
      <point x="683" y="110"/>
      <point x="683" y="163" type="qcurve" smooth="yes"/>
      <point x="683" y="217"/>
      <point x="631" y="281"/>
      <point x="587" y="281" type="qcurve" smooth="yes"/>
      <point x="542" y="281"/>
      <point x="489" y="219"/>
      <point x="489" y="166" type="qcurve" smooth="yes"/>
      <point x="489" y="110"/>
      <point x="542" y="48"/>
    </contour>
  </outline>
</glyph>
<glyph name="ampersand" format="2">
  <advance width="644"/>
  <unicode hex="0026"/>
  <outline>
    <contour>
      <point x="591" y="75" type="qcurve" smooth="yes"/>
      <point x="617" y="75"/>
      <point x="629" y="78" type="qcurve"/>
      <point x="629" y="1" type="line"/>
      <point x="603" y="-3"/>
      <point x="586" y="-3" type="qcurve" smooth="yes"/>
      <point x="507" y="-3"/>
      <point x="451" y="54" type="qcurve"/>
      <point x="369" y="-17"/>
      <point x="155" y="-17"/>
      <point x="25" y="87"/>
      <point x="25" y="174" type="qcurve" smooth="yes"/>
      <point x="25" y="235"/>
      <point x="85" y="324"/>
      <point x="157" y="370" type="qcurve" smooth="yes"/>
      <point x="170" y="378" type="line"/>
      <point x="80" y="487"/>
      <point x="80" y="566" type="qcurve" smooth="yes"/>
      <point x="80" y="643"/>
      <point x="177" y="737"/>
      <point x="337" y="737"/>
      <point x="431" y="650"/>
      <point x="431" y="576" type="qcurve" smooth="yes"/>
      <point x="431" y="527"/>
      <point x="381" y="436"/>
      <point x="338" y="407" type="qcurve" smooth="yes"/>
      <point x="284" y="371" type="line"/>
      <point x="454" y="175" type="line"/>
      <point x="501" y="260"/>
      <point x="507" y="384" type="qcurve"/>
      <point x="584" y="373" type="line"/>
      <point x="580" y="221"/>
      <point x="506" y="116" type="qcurve"/>
      <point x="545" y="75"/>
    </contour>
    <contour>
      <point x="169" y="571" type="qcurve" smooth="yes"/>
      <point x="169" y="507"/>
      <point x="240" y="422" type="qcurve"/>
      <point x="279" y="447" type="line" smooth="yes"/>
      <point x="346" y="488"/>
      <point x="346" y="573" type="qcurve" smooth="yes"/>
      <point x="346" y="618"/>
      <point x="300" y="667"/>
      <point x="257" y="667" type="qcurve" smooth="yes"/>
      <point x="171" y="667"/>
    </contour>
    <contour>
      <point x="115" y="180" type="qcurve" smooth="yes"/>
      <point x="115" y="128"/>
      <point x="203" y="59"/>
      <point x="268" y="59" type="qcurve" smooth="yes"/>
      <point x="345" y="59"/>
      <point x="402" y="110" type="qcurve"/>
      <point x="217" y="325" type="line"/>
      <point x="210" y="320" type="line" smooth="yes"/>
      <point x="153" y="281"/>
      <point x="115" y="225"/>
    </contour>
  </outline>
</glyph>
<glyph name="quotesingle" format="2">
  <advance width="235"/>
  <unicode hex="0027"/>
  <outline>
    <contour>
      <point x="88" y="447" type="line"/>
      <point x="70" y="710" type="line"/>
      <point x="165" y="710" type="line"/>
      <point x="147" y="447" type="line"/>
    </contour>
  </outline>
</glyph>
<glyph name="parenleft" format="2">
  <advance width="306"/>
  <unicode hex="0028"/>
  <outline>
    <contour>
      <point x="234" y="-140" type="line"/>
      <point x="152" y="-42"/>
      <point x="60" y="202"/>
      <point x="60" y="329" type="qcurve" smooth="yes"/>
      <point x="60" y="455"/>
      <point x="154" y="691"/>
      <point x="236" y="782" type="qcurve"/>
      <point x="296" y="746" type="line"/>
      <point x="217" y="643"/>
      <point x="146" y="444"/>
      <point x="146" y="208"/>
      <point x="217" y="3"/>
      <point x="296" y="-102" type="qcurve"/>
    </contour>
  </outline>
</glyph>
<glyph name="parenright" format="2">
  <advance width="306"/>
  <unicode hex="0029"/>
  <outline>
    <contour>
      <point x="72" y="-140" type="qcurve"/>
      <point x="10" y="-102" type="line"/>
      <point x="89" y="3"/>
      <point x="160" y="208"/>
      <point x="160" y="444"/>
      <point x="89" y="643"/>
      <point x="10" y="746" type="qcurve"/>
      <point x="70" y="782" type="line"/>
      <point x="152" y="691"/>
      <point x="246" y="455"/>
      <point x="246" y="329" type="qcurve" smooth="yes"/>
      <point x="246" y="202"/>
      <point x="154" y="-42"/>
    </contour>
  </outline>
</glyph>
<glyph name="asterisk" format="2">
  <advance width="327"/>
  <unicode hex="002A"/>
  <outline>
    <contour>
      <point x="307" y="595" type="line"/>
      <point x="201" y="574" type="line"/>
      <point x="276" y="496" type="line"/>
      <point x="216" y="451" type="line"/>
      <point x="164" y="548" type="line"/>
      <point x="111" y="451" type="line"/>
      <point x="51" y="496" type="line"/>
      <point x="126" y="574" type="line"/>
      <point x="20" y="595" type="line"/>
      <point x="44" y="666" type="line"/>
      <point x="141" y="618" type="line"/>
      <point x="126" y="725" type="line"/>
      <point x="201" y="725" type="line"/>
      <point x="186" y="618" type="line"/>
      <point x="283" y="666" type="line"/>
    </contour>
  </outline>
</glyph>
<glyph name="plus" format="2">
  <advance width="570"/>
  <unicode hex="002B"/>
  <outline>
    <contour>
      <point x="520" y="366" type="line"/>
      <point x="520" y="293" type="line"/>
      <point x="327" y="293" type="line"/>
      <point x="327" y="91" type="line"/>
      <point x="242" y="91" type="line"/>
      <point x="242" y="293" type="line"/>
      <point x="50" y="293" type="line"/>
      <point x="50" y="366" type="line"/>
      <point x="242" y="366" type="line"/>
      <point x="242" y="556" type="line"/>
      <point x="327" y="556" type="line"/>
      <point x="327" y="366" type="line"/>
    </contour>
  </outline>
</glyph>
<glyph name="comma" format="2">
  <advance width="257"/>
  <unicode hex="002C"/>
  <outline>
    <contour>
      <point x="97" y="-140" type="qcurve"/>
      <point x="74" y="-96" type="line"/>
      <point x="110" y="-80"/>
      <point x="134" y="-41"/>
      <point x="134" y="-3" type="qcurve" smooth="yes"/>
      <point x="134" y="0" type="line"/>
      <point x="70" y="0" type="line"/>
      <point x="70" y="118" type="line"/>
      <point x="187" y="118" type="line"/>
      <point x="187" y="7" type="line" smooth="yes"/>
      <point x="187" y="-54"/>
      <point x="148" y="-119"/>
    </contour>
  </outline>
</glyph>
<glyph name="hyphen" format="2">
  <advance width="389"/>
  <unicode hex="002D"/>
  <outline>
    <contour>
      <point x="50" y="318" type="line"/>
      <point x="339" y="318" type="line"/>
      <point x="339" y="238" type="line"/>
      <point x="50" y="238" type="line"/>
    </contour>
  </outline>
</glyph>
<glyph name="period" format="2">
  <advance width="257"/>
  <unicode hex="002E"/>
  <outline>
    <contour>
      <point x="187" y="118" type="line"/>
      <point x="187" y="0" type="line"/>
      <point x="70" y="0" type="line"/>
      <point x="70" y="118" type="line"/>
    </contour>
  </outline>
</glyph>
<glyph name="slash" format="2">
  <advance width="451"/>
  <unicode hex="002F"/>
  <outline>
    <contour>
      <point x="124" y="-117" type="line"/>
      <point x="45" y="-117" type="line"/>
      <point x="327" y="760" type="line"/>
      <point x="406" y="760" type="line"/>
    </contour>
  </outline>
</glyph>
<glyph name="zero" format="2">
  <advance width="636"/>
  <unicode hex="0030"/>
  <outline>
    <contour>
      <point x="188" y="-15"/>
      <point x="50" y="178"/>
      <point x="50" y="347" type="qcurve" smooth="yes"/>
      <point x="50" y="517"/>
      <point x="188" y="710"/>
      <point x="448" y="710"/>
      <point x="586" y="517"/>
      <point x="586" y="347" type="qcurve" smooth="yes"/>
      <point x="586" y="178"/>
      <point x="448" y="-15"/>
    </contour>
    <contour>
      <point x="406" y="60"/>
      <point x="496" y="212"/>
      <point x="496" y="347" type="qcurve" smooth="yes"/>
      <point x="496" y="483"/>
      <point x="406" y="635"/>
      <point x="230" y="635"/>
      <point x="140" y="483"/>
      <point x="140" y="347" type="qcurve" smooth="yes"/>
      <point x="140" y="212"/>
      <point x="230" y="60"/>
    </contour>
  </outline>
</glyph>
<glyph name="one" format="2">
  <advance width="399"/>
  <unicode hex="0031"/>
  <outline>
    <contour>
      <point x="189" y="0" type="line"/>
      <point x="189" y="545" type="line"/>
      <point x="174" y="525"/>
      <point x="107" y="501"/>
      <point x="76" y="501" type="qcurve" smooth="yes"/>
      <point x="40" y="501" type="line"/>
      <point x="40" y="582" type="line"/>
      <point x="62" y="582" type="line" smooth="yes"/>
      <point x="114" y="582"/>
      <point x="191" y="641"/>
      <point x="203" y="695" type="qcurve"/>
      <point x="279" y="695" type="line"/>
      <point x="279" y="0" type="line"/>
    </contour>
  </outline>
</glyph>
<glyph name="two" format="2">
  <advance width="541"/>
  <unicode hex="0032"/>
  <outline>
    <contour>
      <point x="35" y="0" type="line"/>
      <point x="35" y="74" type="line"/>
      <point x="156" y="163"/>
      <point x="271" y="273" type="qcurve" smooth="yes"/>
      <point x="337" y="337"/>
      <point x="389" y="437"/>
      <point x="389" y="499" type="qcurve" smooth="yes"/>
      <point x="389" y="563"/>
      <point x="322" y="632"/>
      <point x="202" y="632"/>
      <point x="132" y="564"/>
      <point x="132" y="507" type="qcurve" smooth="yes"/>
      <point x="132" y="483"/>
      <point x="140" y="443" type="qcurve"/>
      <point x="50" y="452" type="line"/>
      <point x="43" y="480"/>
      <point x="43" y="508" type="qcurve" smooth="yes"/>
      <point x="43" y="601"/>
      <point x="163" y="710"/>
      <point x="267" y="710" type="qcurve" smooth="yes"/>
      <point x="369" y="710"/>
      <point x="483" y="601"/>
      <point x="483" y="500" type="qcurve" smooth="yes"/>
      <point x="483" y="427"/>
      <point x="408" y="293"/>
      <point x="327" y="218" type="qcurve" smooth="yes"/>
      <point x="247" y="144"/>
      <point x="156" y="81" type="qcurve"/>
      <point x="491" y="81" type="line"/>
      <point x="491" y="0" type="line"/>
    </contour>
  </outline>
</glyph>
<glyph name="three" format="2">
  <advance width="567"/>
  <unicode hex="0033"/>
  <outline>
    <contour>
      <point x="172" y="-15"/>
      <point x="38" y="101"/>
      <point x="35" y="198" type="qcurve"/>
      <point x="123" y="209" type="line"/>
      <point x="126" y="139"/>
      <point x="212" y="60"/>
      <point x="284" y="60" type="qcurve" smooth="yes"/>
      <point x="427" y="60"/>
      <point x="427" y="195" type="qcurve" smooth="yes"/>
      <point x="427" y="324"/>
      <point x="271" y="324" type="qcurve" smooth="yes"/>
      <point x="232" y="324" type="line"/>
      <point x="232" y="398" type="line"/>
      <point x="267" y="398" type="line" smooth="yes"/>
      <point x="335" y="398"/>
      <point x="403" y="461"/>
      <point x="403" y="518" type="qcurve" smooth="yes"/>
      <point x="403" y="573"/>
      <point x="335" y="635"/>
      <point x="273" y="635" type="qcurve" smooth="yes"/>
      <point x="205" y="635"/>
      <point x="132" y="553"/>
      <point x="132" y="476" type="qcurve"/>
      <point x="48" y="494" type="line"/>
      <point x="48" y="594"/>
      <point x="171" y="710"/>
      <point x="278" y="710" type="qcurve" smooth="yes"/>
      <point x="380" y="710"/>
      <point x="493" y="613"/>
      <point x="493" y="528" type="qcurve" smooth="yes"/>
      <point x="493" y="468"/>
      <point x="425" y="382"/>
      <point x="367" y="368" type="qcurve"/>
      <point x="517" y="342"/>
      <point x="517" y="197" type="qcurve" smooth="yes"/>
      <point x="517" y="98"/>
      <point x="390" y="-15"/>
    </contour>
  </outline>
</glyph>
<glyph name="four" format="2">
  <advance width="585"/>
  <unicode hex="0034"/>
  <outline>
    <contour>
      <point x="550" y="176" type="line"/>
      <point x="436" y="176" type="line"/>
      <point x="436" y="0" type="line"/>
      <point x="351" y="0" type="line"/>
      <point x="351" y="176" type="line"/>
      <point x="25" y="176" type="line"/>
      <point x="25" y="237" type="line"/>
      <point x="336" y="695" type="line"/>
      <point x="436" y="695" type="line"/>
      <point x="436" y="246" type="line"/>
      <point x="550" y="246" type="line"/>
    </contour>
    <contour>
      <point x="351" y="501" type="line" smooth="yes"/>
      <point x="351" y="571"/>
      <point x="353" y="607" type="qcurve"/>
      <point x="351" y="607" type="line"/>
      <point x="336" y="568"/>
      <point x="301" y="516" type="qcurve" smooth="yes"/>
      <point x="182" y="337" type="line" smooth="yes"/>
      <point x="143" y="278"/>
      <point x="116" y="246" type="qcurve"/>
      <point x="351" y="246" type="line"/>
    </contour>
  </outline>
</glyph>
<glyph name="five" format="2">
  <advance width="565"/>
  <unicode hex="0035"/>
  <outline>
    <contour>
      <point x="279" y="-15" type="qcurve" smooth="yes"/>
      <point x="187" y="-15"/>
      <point x="64" y="85"/>
      <point x="50" y="170" type="qcurve"/>
      <point x="143" y="181" type="line"/>
      <point x="154" y="127"/>
      <point x="226" y="62"/>
      <point x="284" y="62" type="qcurve" smooth="yes"/>
      <point x="353" y="62"/>
      <point x="430" y="149"/>
      <point x="430" y="226" type="qcurve" smooth="yes"/>
      <point x="430" y="306"/>
      <point x="356" y="399"/>
      <point x="286" y="399" type="qcurve" smooth="yes"/>
      <point x="177" y="399"/>
      <point x="147" y="283" type="qcurve"/>
      <point x="61" y="292" type="line"/>
      <point x="102" y="695" type="line"/>
      <point x="486" y="695" type="line"/>
      <point x="486" y="617" type="line"/>
      <point x="170" y="617" type="line"/>
      <point x="144" y="381" type="line"/>
      <point x="194" y="474"/>
      <point x="308" y="474" type="qcurve" smooth="yes"/>
      <point x="407" y="474"/>
      <point x="520" y="344"/>
      <point x="520" y="231" type="qcurve" smooth="yes"/>
      <point x="520" y="121"/>
      <point x="389" y="-15"/>
    </contour>
  </outline>
</glyph>
<glyph name="seven" format="2">
  <advance width="490"/>
  <unicode hex="0037"/>
  <outline>
    <contour>
      <point x="130" y="0" type="line"/>
      <point x="130" y="10" type="line" smooth="yes"/>
      <point x="130" y="309"/>
      <point x="373" y="612" type="qcurve"/>
      <point x="25" y="612" type="line"/>
      <point x="25" y="695" type="line"/>
      <point x="475" y="695" type="line"/>
      <point x="475" y="625" type="line"/>
      <point x="354" y="490"/>
      <point x="229" y="175"/>
      <point x="229" y="17" type="qcurve" smooth="yes"/>
      <point x="229" y="0" type="line"/>
    </contour>
  </outline>
</glyph>
<glyph name="eight" format="2">
  <advance width="578"/>
  <unicode hex="0038"/>
  <outline>
    <contour>
      <point x="392" y="373" type="qcurve"/>
      <point x="469" y="345"/>
      <point x="538" y="256"/>
      <point x="538" y="186" type="qcurve" smooth="yes"/>
      <point x="538" y="95"/>
      <point x="404" y="-15"/>
      <point x="292" y="-15" type="qcurve" smooth="yes"/>
      <point x="178" y="-15"/>
      <point x="40" y="92"/>
      <point x="40" y="180" type="qcurve" smooth="yes"/>
      <point x="40" y="322"/>
      <point x="181" y="365" type="qcurve"/>
      <point x="121" y="392"/>
      <point x="66" y="472"/>
      <point x="66" y="531" type="qcurve" smooth="yes"/>
      <point x="66" y="611"/>
      <point x="190" y="710"/>
      <point x="290" y="710" type="qcurve" smooth="yes"/>
      <point x="391" y="710"/>
      <point x="512" y="614"/>
      <point x="512" y="533" type="qcurve" smooth="yes"/>
      <point x="512" y="411"/>
    </contour>
    <contour>
      <point x="287" y="642" type="qcurve" smooth="yes"/>
      <point x="226" y="642"/>
      <point x="156" y="583"/>
      <point x="156" y="531" type="qcurve" smooth="yes"/>
      <point x="156" y="486"/>
      <point x="212" y="429"/>
      <point x="274" y="410" type="qcurve" smooth="yes"/>
      <point x="309" y="399" type="line"/>
      <point x="372" y="423"/>
      <point x="422" y="481"/>
      <point x="422" y="529" type="qcurve" smooth="yes"/>
      <point x="422" y="582"/>
      <point x="351" y="642"/>
    </contour>
    <contour>
      <point x="365" y="57"/>
      <point x="448" y="125"/>
      <point x="448" y="186" type="qcurve" smooth="yes"/>
      <point x="448" y="234"/>
      <point x="390" y="296"/>
      <point x="325" y="317" type="qcurve" smooth="yes"/>
      <point x="259" y="338" type="line"/>
      <point x="190" y="314"/>
      <point x="131" y="246"/>
      <point x="131" y="193" type="qcurve" smooth="yes"/>
      <point x="131" y="132"/>
      <point x="219" y="57"/>
    </contour>
  </outline>
</glyph>
<glyph name="nine" format="2">
  <advance width="571"/>
  <unicode hex="0039"/>
  <outline>
    <contour>
      <point x="272" y="710" type="qcurve" smooth="yes"/>
      <point x="521" y="710"/>
      <point x="521" y="361" type="qcurve" smooth="yes"/>
      <point x="521" y="250"/>
      <point x="473" y="87"/>
      <point x="360" y="-15"/>
      <point x="274" y="-15" type="qcurve" smooth="yes"/>
      <point x="179" y="-15"/>
      <point x="65" y="79"/>
      <point x="48" y="167" type="qcurve"/>
      <point x="138" y="187" type="line"/>
      <point x="161" y="60"/>
      <point x="275" y="60" type="qcurve" smooth="yes"/>
      <point x="428" y="60"/>
      <point x="431" y="348" type="qcurve"/>
      <point x="379" y="259"/>
      <point x="263" y="259" type="qcurve" smooth="yes"/>
      <point x="164" y="259"/>
      <point x="40" y="376"/>
      <point x="40" y="482" type="qcurve" smooth="yes"/>
      <point x="40" y="582"/>
      <point x="168" y="710"/>
    </contour>
    <contour>
      <point x="272" y="334" type="qcurve" smooth="yes"/>
      <point x="328" y="334"/>
      <point x="417" y="409"/>
      <point x="429" y="465" type="qcurve"/>
      <point x="421" y="538"/>
      <point x="347" y="635"/>
      <point x="271" y="635" type="qcurve" smooth="yes"/>
      <point x="207" y="635"/>
      <point x="130" y="551"/>
      <point x="130" y="483" type="qcurve" smooth="yes"/>
      <point x="130" y="414"/>
      <point x="209" y="334"/>
    </contour>
  </outline>
</glyph>
<glyph name="colon" format="2">
  <advance width="257"/>
  <unicode hex="003A"/>
  <outline>
    <contour>
      <point x="187" y="500" type="line"/>
      <point x="187" y="382" type="line"/>
      <point x="70" y="382" type="line"/>
      <point x="70" y="500" type="line"/>
    </contour>
    <contour>
      <point x="187" y="118" type="line"/>
      <point x="187" y="0" type="line"/>
      <point x="70" y="0" type="line"/>
      <point x="70" y="118" type="line"/>
    </contour>
  </outline>
</glyph>
<glyph name="less" format="2">
  <advance width="620"/>
  <unicode hex="003C"/>
  <outline>
    <contour>
      <point x="522" y="85" type="line"/>
      <point x="57" y="290" type="line"/>
      <point x="57" y="362" type="line"/>
      <point x="522" y="567" type="line"/>
      <point x="522" y="488" type="line"/>
      <point x="151" y="327" type="line"/>
      <point x="522" y="166" type="line"/>
    </contour>
  </outline>
</glyph>
<glyph name="equal" format="2">
  <advance width="570"/>
  <unicode hex="003D"/>
  <outline>
    <contour>
      <point x="50" y="384" type="line"/>
      <point x="50" y="464" type="line"/>
      <point x="520" y="464" type="line"/>
      <point x="520" y="384" type="line"/>
    </contour>
    <contour>
      <point x="50" y="194" type="line"/>
      <point x="50" y="274" type="line"/>
      <point x="520" y="274" type="line"/>
      <point x="520" y="194" type="line"/>
    </contour>
  </outline>
</glyph>
<glyph name="greater" format="2">
  <advance width="620"/>
  <unicode hex="003E"/>
  <outline>
    <contour>
      <point x="98" y="85" type="line"/>
      <point x="98" y="166" type="line"/>
      <point x="469" y="327" type="line"/>
      <point x="98" y="488" type="line"/>
      <point x="98" y="567" type="line"/>
      <point x="563" y="362" type="line"/>
      <point x="563" y="290" type="line"/>
    </contour>
  </outline>
</glyph>
<glyph name="question" format="2">
  <advance width="468"/>
  <unicode hex="003F"/>
  <outline>
    <contour>
      <point x="183" y="186" type="line"/>
      <point x="183" y="228" type="line" smooth="yes"/>
      <point x="183" y="250"/>
      <point x="188" y="281"/>
      <point x="215" y="332"/>
      <point x="240" y="356" type="qcurve" smooth="yes"/>
      <point x="289" y="402" type="line" smooth="yes"/>
      <point x="358" y="467"/>
      <point x="358" y="537" type="qcurve" smooth="yes"/>
      <point x="358" y="589"/>
      <point x="292" y="649"/>
      <point x="233" y="649" type="qcurve" smooth="yes"/>
      <point x="173" y="649"/>
      <point x="100" y="578"/>
      <point x="100" y="515" type="qcurve" smooth="yes"/>
      <point x="100" y="490"/>
      <point x="106" y="462" type="qcurve"/>
      <point x="15" y="473" type="line"/>
      <point x="10" y="499"/>
      <point x="10" y="527" type="qcurve" smooth="yes"/>
      <point x="10" y="617"/>
      <point x="128" y="727"/>
      <point x="236" y="727" type="qcurve" smooth="yes"/>
      <point x="339" y="727"/>
      <point x="453" y="628"/>
      <point x="453" y="537" type="qcurve" smooth="yes"/>
      <point x="453" y="450"/>
      <point x="359" y="362" type="qcurve" smooth="yes"/>
      <point x="309" y="315" type="line" smooth="yes"/>
      <point x="286" y="294"/>
      <point x="268" y="250"/>
      <point x="268" y="214" type="qcurve" smooth="yes"/>
      <point x="268" y="186" type="line"/>
    </contour>
    <contour>
      <point x="174" y="0" type="line"/>
      <point x="174" y="106" type="line"/>
      <point x="279" y="106" type="line"/>
      <point x="279" y="0" type="line"/>
    </contour>
  </outline>
</glyph>
<glyph name="at" format="2">
  <advance width="828"/>
  <unicode hex="0040"/>
  <outline>
    <contour>
      <point x="424" y="-102" type="qcurve" smooth="yes"/>
      <point x="252" y="-102"/>
      <point x="45" y="105"/>
      <point x="45" y="276" type="qcurve" smooth="yes"/>
      <point x="45" y="446"/>
      <point x="252" y="660"/>
      <point x="427" y="660" type="qcurve" smooth="yes"/>
      <point x="595" y="660"/>
      <point x="783" y="461"/>
      <point x="783" y="296" type="qcurve" smooth="yes"/>
      <point x="783" y="194"/>
      <point x="700" y="72"/>
      <point x="630" y="72" type="qcurve" smooth="yes"/>
      <point x="547" y="72"/>
      <point x="524" y="149" type="qcurve"/>
      <point x="505" y="111"/>
      <point x="430" y="66"/>
      <point x="385" y="66" type="qcurve" smooth="yes"/>
      <point x="322" y="66"/>
      <point x="241" y="132"/>
      <point x="241" y="184" type="qcurve" smooth="yes"/>
      <point x="241" y="239"/>
      <point x="322" y="301"/>
      <point x="409" y="314" type="qcurve" smooth="yes"/>
      <point x="516" y="329" type="line"/>
      <point x="516" y="336" type="line" smooth="yes"/>
      <point x="516" y="392"/>
      <point x="478" y="436"/>
      <point x="429" y="436" type="qcurve" smooth="yes"/>
      <point x="342" y="436"/>
      <point x="334" y="360" type="qcurve"/>
      <point x="257" y="360" type="line"/>
      <point x="262" y="423"/>
      <point x="356" y="498"/>
      <point x="431" y="498" type="qcurve" smooth="yes"/>
      <point x="514" y="498"/>
      <point x="587" y="418"/>
      <point x="587" y="327" type="qcurve" smooth="yes"/>
      <point x="587" y="215" type="line" smooth="yes"/>
      <point x="587" y="169"/>
      <point x="610" y="129"/>
      <point x="637" y="129" type="qcurve" smooth="yes"/>
      <point x="672" y="129"/>
      <point x="715" y="219"/>
      <point x="715" y="294" type="qcurve" smooth="yes"/>
      <point x="715" y="437"/>
      <point x="570" y="601"/>
      <point x="430" y="601" type="qcurve" smooth="yes"/>
      <point x="281" y="601"/>
      <point x="115" y="423"/>
      <point x="115" y="276" type="qcurve" smooth="yes"/>
      <point x="115" y="134"/>
      <point x="290" y="-41"/>
      <point x="432" y="-41" type="qcurve" smooth="yes"/>
      <point x="531" y="-41"/>
      <point x="618" y="-2" type="qcurve"/>
      <point x="646" y="-55" type="line"/>
      <point x="552" y="-102"/>
    </contour>
    <contour>
      <point x="395" y="127" type="qcurve" smooth="yes"/>
      <point x="449" y="127"/>
      <point x="516" y="197"/>
      <point x="516" y="253" type="qcurve" smooth="yes"/>
      <point x="516" y="275" type="line"/>
      <point x="426" y="262" type="line" smooth="yes"/>
      <point x="369" y="254"/>
      <point x="321" y="219"/>
      <point x="321" y="186" type="qcurve" smooth="yes"/>
      <point x="321" y="160"/>
      <point x="363" y="127"/>
    </contour>
  </outline>
</glyph>
<glyph name="B" format="2">
  <advance width="658"/>
  <unicode hex="0042"/>
  <anchor x="334" y="710" name="Anchor-8"/>
  <anchor x="0" y="0" name="Anchor-7"/>
  <anchor x="334" y="0" name="Anchor-6"/>
  <outline>
    <contour>
      <point x="464" y="367" type="qcurve"/>
      <point x="529" y="356"/>
      <point x="603" y="265"/>
      <point x="603" y="195" type="qcurve" smooth="yes"/>
      <point x="603" y="158"/>
      <point x="579" y="93"/>
      <point x="528" y="35"/>
      <point x="432" y="0"/>
      <point x="368" y="0" type="qcurve" smooth="yes"/>
      <point x="100" y="0" type="line"/>
      <point x="100" y="710" type="line"/>
      <point x="347" y="710" type="line" smooth="yes"/>
      <point x="414" y="710"/>
      <point x="511" y="676"/>
      <point x="561" y="617"/>
      <point x="583" y="555"/>
      <point x="583" y="521" type="qcurve" smooth="yes"/>
      <point x="583" y="468"/>
      <point x="522" y="384"/>
    </contour>
    <contour>
      <point x="347" y="630" type="qcurve" smooth="yes"/>
      <point x="195" y="630" type="line"/>
      <point x="195" y="402" type="line"/>
      <point x="347" y="402" type="line" smooth="yes"/>
      <point x="489" y="402"/>
      <point x="489" y="514" type="qcurve" smooth="yes"/>
      <point x="489" y="630"/>
    </contour>
    <contour>
      <point x="363" y="80" type="line" smooth="yes"/>
      <point x="440" y="80"/>
      <point x="509" y="150"/>
      <point x="509" y="204" type="qcurve" smooth="yes"/>
      <point x="509" y="257"/>
      <point x="442" y="322"/>
      <point x="373" y="322" type="qcurve" smooth="yes"/>
      <point x="195" y="322" type="line"/>
      <point x="195" y="80" type="line"/>
    </contour>
  </outline>
</glyph>
<glyph name="E" format="2">
  <advance width="612"/>
  <unicode hex="0045"/>
  <anchor x="326" y="710" name="Anchor-8"/>
  <anchor x="467" y="0" name="Anchor-7"/>
  <anchor x="306" y="0" name="Anchor-6"/>
  <outline>
    <contour>
      <point x="195" y="80" type="line"/>
      <point x="547" y="80" type="line"/>
      <point x="547" y="0" type="line"/>
      <point x="100" y="0" type="line"/>
      <point x="100" y="710" type="line"/>
      <point x="540" y="710" type="line"/>
      <point x="540" y="630" type="line"/>
      <point x="195" y="630" type="line"/>
      <point x="195" y="404" type="line"/>
      <point x="523" y="404" type="line"/>
      <point x="523" y="324" type="line"/>
      <point x="195" y="324" type="line"/>
    </contour>
  </outline>
</glyph>
<glyph name="F" format="2">
  <advance width="580"/>
  <unicode hex="0046"/>
  <anchor x="303" y="710" name="Anchor-8"/>
  <anchor x="0" y="0" name="Anchor-7"/>
  <anchor x="303" y="0" name="Anchor-6"/>
  <outline>
    <contour>
      <point x="540" y="630" type="line"/>
      <point x="195" y="630" type="line"/>
      <point x="195" y="404" type="line"/>
      <point x="523" y="404" type="line"/>
      <point x="523" y="324" type="line"/>
      <point x="195" y="324" type="line"/>
      <point x="195" y="0" type="line"/>
      <point x="100" y="0" type="line"/>
      <point x="100" y="710" type="line"/>
      <point x="540" y="710" type="line"/>
    </contour>
  </outline>
</glyph>
<glyph name="G" format="2">
  <advance width="721"/>
  <unicode hex="0047"/>
  <anchor x="366" y="710" name="Anchor-8"/>
  <anchor x="0" y="0" name="Anchor-7"/>
  <anchor x="366" y="0" name="Anchor-6"/>
  <outline>
    <contour>
      <point x="356" y="-17" type="qcurve" smooth="yes"/>
      <point x="213" y="-17"/>
      <point x="45" y="191"/>
      <point x="45" y="355" type="qcurve" smooth="yes"/>
      <point x="45" y="522"/>
      <point x="218" y="727"/>
      <point x="372" y="727" type="qcurve" smooth="yes"/>
      <point x="428" y="727"/>
      <point x="520" y="697"/>
      <point x="578" y="652"/>
      <point x="620" y="591"/>
      <point x="639" y="538"/>
      <point x="643" y="512" type="qcurve"/>
      <point x="549" y="499" type="line"/>
      <point x="539" y="557"/>
      <point x="454" y="647"/>
      <point x="369" y="647" type="qcurve" smooth="yes"/>
      <point x="262" y="647"/>
      <point x="142" y="486"/>
      <point x="142" y="354" type="qcurve" smooth="yes"/>
      <point x="142" y="226"/>
      <point x="259" y="64"/>
      <point x="370" y="64" type="qcurve" smooth="yes"/>
      <point x="420" y="64"/>
      <point x="496" y="96"/>
      <point x="537" y="143"/>
      <point x="563" y="206"/>
      <point x="571" y="255"/>
      <point x="571" y="279" type="qcurve" smooth="yes"/>
      <point x="571" y="291" type="line"/>
      <point x="363" y="291" type="line"/>
      <point x="363" y="371" type="line"/>
      <point x="656" y="371" type="line"/>
      <point x="656" y="0" type="line"/>
      <point x="587" y="0" type="line"/>
      <point x="574" y="114" type="line"/>
      <point x="550" y="55"/>
      <point x="434" y="-17"/>
    </contour>
  </outline>
</glyph>
<glyph name="H" format="2">
  <advance width="748"/>
  <unicode hex="0048"/>
  <anchor x="374" y="710" name="Anchor-8"/>
  <anchor x="0" y="0" name="Anchor-7"/>
  <anchor x="374" y="0" name="Anchor-6"/>
  <outline>
    <contour>
      <point x="648" y="710" type="line"/>
      <point x="648" y="0" type="line"/>
      <point x="553" y="0" type="line"/>
      <point x="553" y="323" type="line"/>
      <point x="195" y="323" type="line"/>
      <point x="195" y="0" type="line"/>
      <point x="100" y="0" type="line"/>
      <point x="100" y="710" type="line"/>
      <point x="195" y="710" type="line"/>
      <point x="195" y="403" type="line"/>
      <point x="553" y="403" type="line"/>
      <point x="553" y="710" type="line"/>
    </contour>
  </outline>
</glyph>
<glyph name="I" format="2">
  <advance width="295"/>
  <unicode hex="0049"/>
  <anchor x="148" y="710" name="Anchor-8"/>
  <anchor x="100" y="0" name="Anchor-7"/>
  <anchor x="148" y="0" name="Anchor-6"/>
  <outline>
    <contour>
      <point x="195" y="0" type="line"/>
      <point x="100" y="0" type="line"/>
      <point x="100" y="710" type="line"/>
      <point x="195" y="710" type="line"/>
    </contour>
  </outline>
</glyph>
<glyph name="J" format="2">
  <advance width="394"/>
  <unicode hex="004A"/>
  <anchor x="262" y="710" name="Anchor-8"/>
  <anchor x="0" y="0" name="Anchor-7"/>
  <anchor x="200" y="0" name="Anchor-6"/>
  <outline>
    <contour>
      <point x="309" y="186" type="line" smooth="yes"/>
      <point x="309" y="76"/>
      <point x="194" y="-17"/>
      <point x="103" y="-17" type="qcurve" smooth="yes"/>
      <point x="44" y="-17"/>
      <point x="20" y="-10" type="qcurve"/>
      <point x="20" y="78" type="line"/>
      <point x="48" y="73"/>
      <point x="104" y="73" type="qcurve" smooth="yes"/>
      <point x="154" y="73"/>
      <point x="214" y="125"/>
      <point x="214" y="193" type="qcurve" smooth="yes"/>
      <point x="214" y="710" type="line"/>
      <point x="309" y="710" type="line"/>
    </contour>
  </outline>
</glyph>
<glyph name="K" format="2">
  <advance width="668"/>
  <unicode hex="004B"/>
  <anchor x="344" y="710" name="Anchor-8"/>
  <anchor x="0" y="0" name="Anchor-7"/>
  <anchor x="344" y="0" name="Anchor-6"/>
  <outline>
    <contour>
      <point x="537" y="0" type="line"/>
      <point x="300" y="358" type="line"/>
      <point x="195" y="242" type="line"/>
      <point x="195" y="0" type="line"/>
      <point x="100" y="0" type="line"/>
      <point x="100" y="710" type="line"/>
      <point x="195" y="710" type="line"/>
      <point x="195" y="358" type="line"/>
      <point x="507" y="710" type="line"/>
      <point x="626" y="710" type="line"/>
      <point x="371" y="432" type="line"/>
      <point x="365" y="426" type="line"/>
      <point x="648" y="0" type="line"/>
    </contour>
  </outline>
</glyph>
<glyph name="L" format="2">
  <advance width="543"/>
  <unicode hex="004C"/>
  <anchor x="148" y="710" name="Anchor-8"/>
  <anchor x="0" y="0" name="Anchor-7"/>
  <anchor x="302" y="0" name="Anchor-6"/>
  <outline>
    <contour>
      <point x="100" y="0" type="line"/>
      <point x="100" y="710" type="line"/>
      <point x="195" y="710" type="line"/>
      <point x="195" y="80" type="line"/>
      <point x="523" y="80" type="line"/>
      <point x="523" y="0" type="line"/>
    </contour>
  </outline>
</glyph>
<glyph name="M" format="2">
  <advance width="884"/>
  <unicode hex="004D"/>
  <anchor x="442" y="710" name="Anchor-8"/>
  <anchor x="0" y="0" name="Anchor-7"/>
  <anchor x="442" y="0" name="Anchor-6"/>
  <outline>
    <contour>
      <point x="100" y="0" type="line"/>
      <point x="100" y="710" type="line"/>
      <point x="235" y="710" type="line"/>
      <point x="423" y="164" type="line" smooth="yes"/>
      <point x="437" y="123"/>
      <point x="441" y="97" type="qcurve"/>
      <point x="443" y="97" type="line"/>
      <point x="447" y="123"/>
      <point x="461" y="164" type="qcurve" smooth="yes"/>
      <point x="649" y="710" type="line"/>
      <point x="784" y="710" type="line"/>
      <point x="784" y="0" type="line"/>
      <point x="697" y="0" type="line"/>
      <point x="697" y="548" type="line" smooth="yes"/>
      <point x="697" y="593"/>
      <point x="701" y="624" type="qcurve"/>
      <point x="697" y="624" type="line"/>
      <point x="691" y="584"/>
      <point x="676" y="543" type="qcurve" smooth="yes"/>
      <point x="488" y="0" type="line"/>
      <point x="396" y="0" type="line"/>
      <point x="208" y="543" type="line" smooth="yes"/>
      <point x="193" y="584"/>
      <point x="187" y="624" type="qcurve"/>
      <point x="183" y="624" type="line"/>
      <point x="187" y="593"/>
      <point x="187" y="548" type="qcurve" smooth="yes"/>
      <point x="187" y="0" type="line"/>
    </contour>
  </outline>
</glyph>
<glyph name="P" format="2">
  <advance width="613"/>
  <unicode hex="0050"/>
  <anchor x="309" y="710" name="Anchor-8"/>
  <anchor x="0" y="0" name="Anchor-7"/>
  <anchor x="309" y="0" name="Anchor-6"/>
  <outline>
    <contour>
      <point x="352" y="710" type="line" smooth="yes"/>
      <point x="462" y="710"/>
      <point x="593" y="596"/>
      <point x="593" y="404"/>
      <point x="462" y="290"/>
      <point x="352" y="290" type="qcurve" smooth="yes"/>
      <point x="195" y="290" type="line"/>
      <point x="195" y="0" type="line"/>
      <point x="100" y="0" type="line"/>
      <point x="100" y="710" type="line"/>
    </contour>
    <contour>
      <point x="342" y="370" type="line" smooth="yes"/>
      <point x="411" y="370"/>
      <point x="493" y="441"/>
      <point x="493" y="559"/>
      <point x="411" y="630"/>
      <point x="342" y="630" type="qcurve" smooth="yes"/>
      <point x="195" y="630" type="line"/>
      <point x="195" y="370" type="line"/>
    </contour>
  </outline>
</glyph>
<glyph name="Q" format="2">
  <advance width="739"/>
  <unicode hex="0051"/>
  <anchor x="370" y="710" name="Anchor-8"/>
  <anchor x="665" y="10" name="Anchor-7"/>
  <anchor x="370" y="0" name="Anchor-6"/>
  <outline>
    <contour>
      <point x="492" y="4" type="qcurve"/>
      <point x="538" y="-48"/>
      <point x="614" y="-48" type="qcurve" smooth="yes"/>
      <point x="635" y="-48"/>
      <point x="665" y="-41" type="qcurve"/>
      <point x="665" y="-124" type="line"/>
      <point x="617" y="-130"/>
      <point x="597" y="-130" type="qcurve" smooth="yes"/>
      <point x="530" y="-130"/>
      <point x="433" y="-69"/>
      <point x="408" y="-15" type="qcurve"/>
      <point x="384" y="-17"/>
      <point x="370" y="-17" type="qcurve" smooth="yes"/>
      <point x="222" y="-17"/>
      <point x="45" y="185"/>
      <point x="45" y="355" type="qcurve" smooth="yes"/>
      <point x="45" y="528"/>
      <point x="221" y="727"/>
      <point x="370" y="727" type="qcurve" smooth="yes"/>
      <point x="518" y="727"/>
      <point x="694" y="528"/>
      <point x="694" y="355" type="qcurve" smooth="yes"/>
      <point x="694" y="223"/>
      <point x="587" y="40"/>
    </contour>
    <contour>
      <point x="145" y="355" type="qcurve" smooth="yes"/>
      <point x="145" y="220"/>
      <point x="264" y="63"/>
      <point x="476" y="63"/>
      <point x="594" y="218"/>
      <point x="594" y="492"/>
      <point x="476" y="647"/>
      <point x="264" y="647"/>
      <point x="145" y="492"/>
    </contour>
  </outline>
</glyph>
<glyph name="T" format="2">
  <advance width="561"/>
  <unicode hex="0054"/>
  <anchor x="281" y="710" name="Anchor-8"/>
  <anchor x="0" y="0" name="Anchor-7"/>
  <anchor x="281" y="0" name="Anchor-6"/>
  <outline>
    <contour>
      <point x="551" y="710" type="line"/>
      <point x="551" y="630" type="line"/>
      <point x="328" y="630" type="line"/>
      <point x="328" y="0" type="line"/>
      <point x="233" y="0" type="line"/>
      <point x="233" y="630" type="line"/>
      <point x="10" y="630" type="line"/>
      <point x="10" y="710" type="line"/>
    </contour>
  </outline>
</glyph>
<glyph name="V" format="2">
  <advance width="606"/>
  <unicode hex="0056"/>
  <anchor x="303" y="710" name="Anchor-8"/>
  <anchor x="0" y="0" name="Anchor-7"/>
  <anchor x="303" y="0" name="Anchor-6"/>
  <outline>
    <contour>
      <point x="251" y="0" type="line"/>
      <point x="5" y="710" type="line"/>
      <point x="105" y="710" type="line"/>
      <point x="275" y="188" type="line" smooth="yes"/>
      <point x="293" y="135"/>
      <point x="301" y="92" type="qcurve"/>
      <point x="305" y="92" type="line"/>
      <point x="313" y="135"/>
      <point x="331" y="188" type="qcurve" smooth="yes"/>
      <point x="501" y="710" type="line"/>
      <point x="601" y="710" type="line"/>
      <point x="355" y="0" type="line"/>
    </contour>
  </outline>
</glyph>
<glyph name="W" format="2">
  <advance width="912"/>
  <unicode hex="0057"/>
  <anchor x="456" y="710" name="Anchor-8"/>
  <anchor x="0" y="0" name="Anchor-7"/>
  <anchor x="456" y="0" name="Anchor-6"/>
  <outline>
    <contour>
      <point x="194" y="0" type="line"/>
      <point x="25" y="710" type="line"/>
      <point x="122" y="710" type="line"/>
      <point x="245" y="138" type="line" smooth="yes"/>
      <point x="249" y="117"/>
      <point x="251" y="99" type="qcurve"/>
      <point x="254" y="99" type="line"/>
      <point x="255" y="111"/>
      <point x="262" y="138" type="qcurve" smooth="yes"/>
      <point x="408" y="710" type="line"/>
      <point x="504" y="710" type="line"/>
      <point x="650" y="138" type="line" smooth="yes"/>
      <point x="657" y="111"/>
      <point x="658" y="99" type="qcurve"/>
      <point x="661" y="99" type="line"/>
      <point x="663" y="117"/>
      <point x="667" y="138" type="qcurve" smooth="yes"/>
      <point x="790" y="710" type="line"/>
      <point x="887" y="710" type="line"/>
      <point x="718" y="0" type="line"/>
      <point x="602" y="0" type="line"/>
      <point x="464" y="554" type="line" smooth="yes"/>
      <point x="459" y="574"/>
      <point x="458" y="587" type="qcurve"/>
      <point x="454" y="587" type="line"/>
      <point x="453" y="574"/>
      <point x="448" y="554" type="qcurve" smooth="yes"/>
      <point x="310" y="0" type="line"/>
    </contour>
  </outline>
</glyph>
<glyph name="X" format="2">
  <advance width="640"/>
  <unicode hex="0058"/>
  <anchor x="320" y="710" name="Anchor-8"/>
  <anchor x="0" y="0" name="Anchor-7"/>
  <anchor x="320" y="0" name="Anchor-6"/>
  <outline>
    <contour>
      <point x="15" y="0" type="line"/>
      <point x="263" y="375" type="line"/>
      <point x="38" y="710" type="line"/>
      <point x="149" y="710" type="line"/>
      <point x="298" y="477" type="line" smooth="yes"/>
      <point x="316" y="448"/>
      <point x="321" y="435" type="qcurve"/>
      <point x="323" y="435" type="line"/>
      <point x="328" y="447"/>
      <point x="346" y="476" type="qcurve" smooth="yes"/>
      <point x="494" y="710" type="line"/>
      <point x="599" y="710" type="line"/>
      <point x="376" y="367" type="line"/>
      <point x="625" y="0" type="line"/>
      <point x="513" y="0" type="line"/>
      <point x="351" y="252" type="line" smooth="yes"/>
      <point x="324" y="294"/>
      <point x="318" y="308" type="qcurve"/>
      <point x="316" y="308" type="line"/>
      <point x="308" y="289"/>
      <point x="283" y="252" type="qcurve" smooth="yes"/>
      <point x="122" y="0" type="line"/>
    </contour>
  </outline>
</glyph>
<glyph name="Z" format="2">
  <advance width="569"/>
  <unicode hex="005A"/>
  <anchor x="290" y="710" name="Anchor-8"/>
  <anchor x="0" y="0" name="Anchor-7"/>
  <anchor x="290" y="0" name="Anchor-6"/>
  <outline>
    <contour>
      <point x="35" y="88" type="line"/>
      <point x="434" y="630" type="line"/>
      <point x="48" y="630" type="line"/>
      <point x="48" y="710" type="line"/>
      <point x="535" y="710" type="line"/>
      <point x="535" y="622" type="line"/>
      <point x="135" y="80" type="line"/>
      <point x="549" y="80" type="line"/>
      <point x="549" y="0" type="line"/>
      <point x="35" y="0" type="line"/>
    </contour>
  </outline>
</glyph>
<glyph name="bracketleft" format="2">
  <advance width="333"/>
  <unicode hex="005B"/>
  <outline>
    <contour>
      <point x="100" y="-114" type="line"/>
      <point x="100" y="757" type="line"/>
      <point x="293" y="757" type="line"/>
      <point x="293" y="687" type="line"/>
      <point x="176" y="687" type="line"/>
      <point x="176" y="-44" type="line"/>
      <point x="293" y="-44" type="line"/>
      <point x="293" y="-114" type="line"/>
    </contour>
  </outline>
</glyph>
<glyph name="backslash" format="2">
  <advance width="451"/>
  <unicode hex="005C"/>
  <outline>
    <contour>
      <point x="327" y="-117" type="line"/>
      <point x="45" y="760" type="line"/>
      <point x="124" y="760" type="line"/>
      <point x="406" y="-117" type="line"/>
    </contour>
  </outline>
</glyph>
<glyph name="bracketright" format="2">
  <advance width="333"/>
  <unicode hex="005D"/>
  <outline>
    <contour>
      <point x="233" y="-114" type="line"/>
      <point x="40" y="-114" type="line"/>
      <point x="40" y="-44" type="line"/>
      <point x="157" y="-44" type="line"/>
      <point x="157" y="687" type="line"/>
      <point x="40" y="687" type="line"/>
      <point x="40" y="757" type="line"/>
      <point x="233" y="757" type="line"/>
    </contour>
  </outline>
</glyph>
<glyph name="asciicircum" format="2">
  <advance width="400"/>
  <unicode hex="005E"/>
  <outline>
    <contour>
      <point x="164" y="709" type="line"/>
      <point x="236" y="709" type="line"/>
      <point x="380" y="447" type="line"/>
      <point x="298" y="447" type="line"/>
      <point x="200" y="637" type="line"/>
      <point x="102" y="447" type="line"/>
      <point x="20" y="447" type="line"/>
    </contour>
  </outline>
</glyph>
<glyph name="underscore" format="2">
  <advance width="427"/>
  <unicode hex="005F"/>
  <outline>
    <contour>
      <point x="0" y="-97" type="line"/>
      <point x="427" y="-97" type="line"/>
      <point x="427" y="-157" type="line"/>
      <point x="0" y="-157" type="line"/>
    </contour>
  </outline>
</glyph>
<glyph name="grave" format="2">
  <advance width="600"/>
  <unicode hex="0060"/>
  <anchor x="136" y="723" name="Anchor-12"/>
  <outline>
    <contour>
      <point x="244" y="580" type="line"/>
      <point x="166" y="580" type="line"/>
      <point x="48" y="723" type="line"/>
      <point x="152" y="723" type="line"/>
    </contour>
  </outline>
</glyph>
<glyph name="b" format="2">
  <advance width="585"/>
  <unicode hex="0062"/>
  <anchor x="295" y="500" name="Anchor-8"/>
  <anchor x="0" y="0" name="Anchor-7"/>
  <anchor x="295" y="0" name="Anchor-6"/>
  <outline>
    <contour>
      <point x="334" y="-12" type="qcurve" smooth="yes"/>
      <point x="278" y="-12"/>
      <point x="195" y="41"/>
      <point x="175" y="86" type="qcurve"/>
      <point x="160" y="0" type="line"/>
      <point x="95" y="0" type="line"/>
      <point x="95" y="725" type="line"/>
      <point x="180" y="725" type="line"/>
      <point x="180" y="413" type="line"/>
      <point x="201" y="457"/>
      <point x="283" y="512"/>
      <point x="339" y="512" type="qcurve" smooth="yes"/>
      <point x="430" y="512"/>
      <point x="540" y="366"/>
      <point x="540" y="250" type="qcurve" smooth="yes"/>
      <point x="540" y="132"/>
      <point x="427" y="-12"/>
    </contour>
    <contour>
      <point x="311" y="63" type="qcurve" smooth="yes"/>
      <point x="376" y="63"/>
      <point x="450" y="164"/>
      <point x="450" y="336"/>
      <point x="378" y="437"/>
      <point x="312" y="437" type="qcurve" smooth="yes"/>
      <point x="249" y="437"/>
      <point x="178" y="343"/>
      <point x="178" y="261" type="qcurve" smooth="yes"/>
      <point x="178" y="235" type="line" smooth="yes"/>
      <point x="178" y="156"/>
      <point x="249" y="63"/>
    </contour>
  </outline>
</glyph>
<glyph name="d" format="2">
  <advance width="585"/>
  <unicode hex="0064"/>
  <anchor x="290" y="500" name="Anchor-8"/>
  <anchor x="0" y="0" name="Anchor-7"/>
  <anchor x="290" y="0" name="Anchor-6"/>
  <outline>
    <contour>
      <point x="248" y="-12" type="qcurve" smooth="yes"/>
      <point x="157" y="-12"/>
      <point x="45" y="132"/>
      <point x="45" y="250" type="qcurve" smooth="yes"/>
      <point x="45" y="365"/>
      <point x="164" y="512"/>
      <point x="258" y="512" type="qcurve" smooth="yes"/>
      <point x="358" y="512"/>
      <point x="405" y="426" type="qcurve"/>
      <point x="405" y="725" type="line"/>
      <point x="490" y="725" type="line"/>
      <point x="490" y="0" type="line"/>
      <point x="410" y="0" type="line"/>
      <point x="410" y="93" type="line"/>
      <point x="363" y="-12"/>
    </contour>
    <contour>
      <point x="271" y="63" type="qcurve" smooth="yes"/>
      <point x="333" y="63"/>
      <point x="407" y="158"/>
      <point x="407" y="238" type="qcurve" smooth="yes"/>
      <point x="407" y="261" type="line" smooth="yes"/>
      <point x="407" y="343"/>
      <point x="334" y="437"/>
      <point x="271" y="437" type="qcurve" smooth="yes"/>
      <point x="207" y="437"/>
      <point x="135" y="338"/>
      <point x="135" y="162"/>
      <point x="207" y="63"/>
    </contour>
  </outline>
</glyph>
<glyph name="f" format="2">
  <advance width="347"/>
  <unicode hex="0066"/>
  <anchor x="174" y="500" name="Anchor-8"/>
  <anchor x="0" y="0" name="Anchor-7"/>
  <anchor x="174" y="0" name="Anchor-6"/>
  <outline>
    <contour>
      <point x="322" y="500" type="line"/>
      <point x="322" y="430" type="line"/>
      <point x="197" y="430" type="line"/>
      <point x="197" y="0" type="line"/>
      <point x="112" y="0" type="line"/>
      <point x="112" y="430" type="line"/>
      <point x="20" y="430" type="line"/>
      <point x="20" y="500" type="line"/>
      <point x="112" y="500" type="line"/>
      <point x="112" y="579" type="line" smooth="yes"/>
      <point x="112" y="648"/>
      <point x="192" y="731"/>
      <point x="258" y="731" type="qcurve" smooth="yes"/>
      <point x="295" y="731"/>
      <point x="322" y="724" type="qcurve"/>
      <point x="322" y="651" type="line"/>
      <point x="292" y="656"/>
      <point x="269" y="656" type="qcurve" smooth="yes"/>
      <point x="231" y="656"/>
      <point x="197" y="613"/>
      <point x="197" y="567" type="qcurve" smooth="yes"/>
      <point x="197" y="500" type="line"/>
    </contour>
  </outline>
</glyph>
<glyph name="g" format="2">
  <advance width="530"/>
  <unicode hex="0067"/>
  <anchor x="263" y="500" name="Anchor-8"/>
  <anchor x="0" y="0" name="Anchor-7"/>
  <anchor x="263" y="0" name="Anchor-6"/>
  <outline>
    <contour>
      <point x="474" y="508" type="qcurve" smooth="yes"/>
      <point x="417" y="508"/>
      <point x="399" y="461" type="qcurve"/>
      <point x="445" y="415"/>
      <point x="445" y="343" type="qcurve" smooth="yes"/>
      <point x="445" y="268"/>
      <point x="345" y="172"/>
      <point x="260" y="172" type="qcurve" smooth="yes"/>
      <point x="208" y="172"/>
      <point x="164" y="193" type="qcurve"/>
      <point x="128" y="178"/>
      <point x="128" y="144" type="qcurve" smooth="yes"/>
      <point x="128" y="93"/>
      <point x="211" y="93" type="qcurve" smooth="yes"/>
      <point x="333" y="93" type="line" smooth="yes"/>
      <point x="417" y="93"/>
      <point x="503" y="20"/>
      <point x="503" y="-48" type="qcurve" smooth="yes"/>
      <point x="503" y="-122"/>
      <point x="381" y="-207"/>
      <point x="255" y="-207" type="qcurve" smooth="yes"/>
      <point x="30" y="-207"/>
      <point x="30" y="-70" type="qcurve" smooth="yes"/>
      <point x="30" y="-34"/>
      <point x="72" y="21"/>
      <point x="111" y="34" type="qcurve"/>
      <point x="53" y="60"/>
      <point x="53" y="121" type="qcurve" smooth="yes"/>
      <point x="53" y="194"/>
      <point x="124" y="221" type="qcurve"/>
      <point x="75" y="268"/>
      <point x="75" y="343" type="qcurve" smooth="yes"/>
      <point x="75" y="417"/>
      <point x="175" y="512"/>
      <point x="260" y="512" type="qcurve" smooth="yes"/>
      <point x="313" y="512"/>
      <point x="358" y="491" type="qcurve"/>
      <point x="385" y="582"/>
      <point x="477" y="582" type="qcurve" smooth="yes"/>
      <point x="495" y="582"/>
      <point x="510" y="578" type="qcurve"/>
      <point x="510" y="504" type="line"/>
      <point x="490" y="508"/>
    </contour>
    <contour>
      <point x="307" y="237"/>
      <point x="365" y="296"/>
      <point x="365" y="388"/>
      <point x="307" y="447"/>
      <point x="260" y="447" type="qcurve" smooth="yes"/>
      <point x="212" y="447"/>
      <point x="155" y="389"/>
      <point x="155" y="297"/>
      <point x="213" y="237"/>
    </contour>
    <contour>
      <point x="314" y="18" type="qcurve" smooth="yes"/>
      <point x="208" y="18" type="line" smooth="yes"/>
      <point x="192" y="18"/>
      <point x="166" y="20" type="qcurve"/>
      <point x="113" y="-4"/>
      <point x="113" y="-55" type="qcurve" smooth="yes"/>
      <point x="113" y="-137"/>
      <point x="265" y="-137" type="qcurve" smooth="yes"/>
      <point x="418" y="-137"/>
      <point x="418" y="-54" type="qcurve" smooth="yes"/>
      <point x="418" y="18"/>
    </contour>
  </outline>
</glyph>
<glyph name="h" format="2">
  <advance width="584"/>
  <unicode hex="0068"/>
  <anchor x="138" y="710" name="Anchor-8"/>
  <anchor x="0" y="0" name="Anchor-7"/>
  <anchor x="292" y="0" name="Anchor-6"/>
  <outline>
    <contour>
      <point x="95" y="0" type="line"/>
      <point x="95" y="725" type="line"/>
      <point x="180" y="725" type="line"/>
      <point x="180" y="406" type="line"/>
      <point x="226" y="514"/>
      <point x="344" y="514" type="qcurve" smooth="yes"/>
      <point x="425" y="514"/>
      <point x="509" y="411"/>
      <point x="509" y="311" type="qcurve" smooth="yes"/>
      <point x="509" y="0" type="line"/>
      <point x="424" y="0" type="line"/>
      <point x="424" y="305" type="line" smooth="yes"/>
      <point x="424" y="439"/>
      <point x="315" y="439" type="qcurve" smooth="yes"/>
      <point x="251" y="439"/>
      <point x="180" y="346"/>
      <point x="180" y="261" type="qcurve" smooth="yes"/>
      <point x="180" y="0" type="line"/>
    </contour>
  </outline>
</glyph>
<glyph name="k" format="2">
  <advance width="542"/>
  <unicode hex="006B"/>
  <anchor x="271" y="500" name="Anchor-8"/>
  <anchor x="0" y="0" name="Anchor-7"/>
  <anchor x="271" y="0" name="Anchor-6"/>
  <outline>
    <contour>
      <point x="422" y="0" type="line"/>
      <point x="271" y="245" type="line"/>
      <point x="180" y="153" type="line"/>
      <point x="180" y="0" type="line"/>
      <point x="95" y="0" type="line"/>
      <point x="95" y="725" type="line"/>
      <point x="180" y="725" type="line"/>
      <point x="180" y="254" type="line"/>
      <point x="404" y="500" type="line"/>
      <point x="515" y="500" type="line"/>
      <point x="332" y="307" type="line"/>
      <point x="527" y="0" type="line"/>
    </contour>
  </outline>
</glyph>
<glyph name="m" format="2">
  <advance width="834"/>
  <unicode hex="006D"/>
  <anchor x="417" y="500" name="Anchor-8"/>
  <anchor x="0" y="0" name="Anchor-7"/>
  <anchor x="417" y="0" name="Anchor-6"/>
  <outline>
    <contour>
      <point x="90" y="500" type="line"/>
      <point x="170" y="500" type="line"/>
      <point x="170" y="413" type="line"/>
      <point x="212" y="514"/>
      <point x="313" y="514" type="qcurve" smooth="yes"/>
      <point x="419" y="514"/>
      <point x="455" y="412" type="qcurve"/>
      <point x="504" y="514"/>
      <point x="607" y="514" type="qcurve" smooth="yes"/>
      <point x="679" y="514"/>
      <point x="759" y="416"/>
      <point x="759" y="328" type="qcurve" smooth="yes"/>
      <point x="759" y="0" type="line"/>
      <point x="674" y="0" type="line"/>
      <point x="674" y="321" type="line" smooth="yes"/>
      <point x="674" y="439"/>
      <point x="579" y="439" type="qcurve" smooth="yes"/>
      <point x="526" y="439"/>
      <point x="467" y="364"/>
      <point x="467" y="296" type="qcurve" smooth="yes"/>
      <point x="467" y="0" type="line"/>
      <point x="382" y="0" type="line"/>
      <point x="382" y="325" type="line" smooth="yes"/>
      <point x="382" y="380"/>
      <point x="333" y="439"/>
      <point x="288" y="439" type="qcurve" smooth="yes"/>
      <point x="236" y="439"/>
      <point x="175" y="360"/>
      <point x="175" y="292" type="qcurve" smooth="yes"/>
      <point x="175" y="0" type="line"/>
      <point x="90" y="0" type="line"/>
    </contour>
  </outline>
</glyph>
<glyph name="n" format="2">
  <advance width="579"/>
  <unicode hex="006E"/>
  <anchor x="313" y="500" name="Anchor-8"/>
  <anchor x="0" y="0" name="Anchor-7"/>
  <anchor x="290" y="0" name="Anchor-6"/>
  <outline>
    <contour>
      <point x="90" y="0" type="line"/>
      <point x="90" y="500" type="line"/>
      <point x="170" y="500" type="line"/>
      <point x="170" y="401" type="line"/>
      <point x="219" y="514"/>
      <point x="337" y="514" type="qcurve" smooth="yes"/>
      <point x="504" y="514"/>
      <point x="504" y="311" type="qcurve" smooth="yes"/>
      <point x="504" y="0" type="line"/>
      <point x="419" y="0" type="line"/>
      <point x="419" y="306" type="line" smooth="yes"/>
      <point x="419" y="439"/>
      <point x="309" y="439" type="qcurve" smooth="yes"/>
      <point x="247" y="439"/>
      <point x="175" y="344"/>
      <point x="175" y="261" type="qcurve" smooth="yes"/>
      <point x="175" y="0" type="line"/>
    </contour>
  </outline>
</glyph>
<glyph name="p" format="2">
  <advance width="580"/>
  <unicode hex="0070"/>
  <anchor x="290" y="500" name="Anchor-8"/>
  <anchor x="0" y="0" name="Anchor-7"/>
  <anchor x="290" y="0" name="Anchor-6"/>
  <outline>
    <contour>
      <point x="90" y="-195" type="line"/>
      <point x="90" y="500" type="line"/>
      <point x="170" y="500" type="line"/>
      <point x="170" y="407" type="line"/>
      <point x="219" y="512"/>
      <point x="333" y="512" type="qcurve" smooth="yes"/>
      <point x="424" y="512"/>
      <point x="535" y="368"/>
      <point x="535" y="250" type="qcurve" smooth="yes"/>
      <point x="535" y="131"/>
      <point x="420" y="-12"/>
      <point x="328" y="-12" type="qcurve" smooth="yes"/>
      <point x="273" y="-12"/>
      <point x="193" y="40"/>
      <point x="175" y="79" type="qcurve"/>
      <point x="175" y="-195" type="line"/>
    </contour>
    <contour>
      <point x="308" y="63" type="qcurve" smooth="yes"/>
      <point x="372" y="63"/>
      <point x="445" y="162"/>
      <point x="445" y="338"/>
      <point x="374" y="437"/>
      <point x="248" y="437"/>
      <point x="173" y="344"/>
      <point x="173" y="263" type="qcurve" smooth="yes"/>
      <point x="173" y="239" type="line" smooth="yes"/>
      <point x="173" y="158"/>
      <point x="246" y="63"/>
    </contour>
  </outline>
</glyph>
<glyph name="q" format="2">
  <advance width="580"/>
  <unicode hex="0071"/>
  <anchor x="288" y="500" name="Anchor-8"/>
  <anchor x="0" y="0" name="Anchor-7"/>
  <anchor x="288" y="0" name="Anchor-6"/>
  <outline>
    <contour>
      <point x="405" y="-195" type="line"/>
      <point x="405" y="86" type="line"/>
      <point x="384" y="40"/>
      <point x="304" y="-12"/>
      <point x="250" y="-12" type="qcurve" smooth="yes"/>
      <point x="158" y="-12"/>
      <point x="45" y="131"/>
      <point x="45" y="250" type="qcurve" smooth="yes"/>
      <point x="45" y="368"/>
      <point x="165" y="512"/>
      <point x="258" y="512" type="qcurve" smooth="yes"/>
      <point x="362" y="512"/>
      <point x="409" y="421" type="qcurve"/>
      <point x="428" y="500" type="line"/>
      <point x="490" y="500" type="line"/>
      <point x="490" y="-195" type="line"/>
    </contour>
    <contour>
      <point x="271" y="63" type="qcurve" smooth="yes"/>
      <point x="333" y="63"/>
      <point x="407" y="155"/>
      <point x="407" y="235" type="qcurve" smooth="yes"/>
      <point x="407" y="263" type="line" smooth="yes"/>
      <point x="407" y="342"/>
      <point x="334" y="437"/>
      <point x="208" y="437"/>
      <point x="135" y="339"/>
      <point x="135" y="250" type="qcurve" smooth="yes"/>
      <point x="135" y="163"/>
      <point x="207" y="63"/>
    </contour>
  </outline>
</glyph>
<glyph name="r" format="2">
  <advance width="359"/>
  <unicode hex="0072"/>
  <anchor x="185" y="500" name="Anchor-8"/>
  <anchor x="0" y="0" name="Anchor-7"/>
  <anchor x="133" y="0" name="Anchor-6"/>
  <outline>
    <contour>
      <point x="169" y="386" type="line"/>
      <point x="188" y="442"/>
      <point x="267" y="512"/>
      <point x="321" y="512" type="qcurve" smooth="yes"/>
      <point x="333" y="512"/>
      <point x="339" y="511" type="qcurve"/>
      <point x="339" y="428" type="line"/>
      <point x="335" y="428" type="line" smooth="yes"/>
      <point x="264" y="428"/>
      <point x="225" y="389" type="qcurve" smooth="yes"/>
      <point x="203" y="367"/>
      <point x="179" y="301"/>
      <point x="175" y="253"/>
      <point x="175" y="214" type="qcurve" smooth="yes"/>
      <point x="175" y="0" type="line"/>
      <point x="90" y="0" type="line"/>
      <point x="90" y="500" type="line"/>
      <point x="169" y="500" type="line"/>
    </contour>
  </outline>
</glyph>
<glyph name="t" format="2">
  <advance width="353"/>
  <unicode hex="0074"/>
  <anchor x="175" y="500" name="Anchor-8"/>
  <anchor x="0" y="0" name="Anchor-7"/>
  <anchor x="235" y="0" name="Anchor-6"/>
  <outline>
    <contour>
      <point x="15" y="430" type="line"/>
      <point x="15" y="500" type="line"/>
      <point x="108" y="500" type="line"/>
      <point x="108" y="631" type="line"/>
      <point x="193" y="667" type="line"/>
      <point x="193" y="500" type="line"/>
      <point x="318" y="500" type="line"/>
      <point x="318" y="430" type="line"/>
      <point x="193" y="430" type="line"/>
      <point x="193" y="153" type="line" smooth="yes"/>
      <point x="193" y="110"/>
      <point x="228" y="71"/>
      <point x="266" y="71" type="qcurve" smooth="yes"/>
      <point x="288" y="71"/>
      <point x="318" y="78" type="qcurve"/>
      <point x="318" y="0" type="line"/>
      <point x="285" y="-9"/>
      <point x="244" y="-9" type="qcurve" smooth="yes"/>
      <point x="168" y="-9"/>
      <point x="108" y="73"/>
      <point x="108" y="150" type="qcurve" smooth="yes"/>
      <point x="108" y="430" type="line"/>
    </contour>
  </outline>
</glyph>
<glyph name="u" format="2">
  <advance width="571"/>
  <unicode hex="0075"/>
  <anchor x="278" y="500" name="Anchor-8"/>
  <anchor x="401" y="0" name="Anchor-7"/>
  <anchor x="286" y="0" name="Anchor-6"/>
  <outline>
    <contour>
      <point x="246" y="-12" type="qcurve" smooth="yes"/>
      <point x="75" y="-12"/>
      <point x="75" y="181" type="qcurve" smooth="yes"/>
      <point x="75" y="500" type="line"/>
      <point x="160" y="500" type="line"/>
      <point x="160" y="191" type="line" smooth="yes"/>
      <point x="160" y="128"/>
      <point x="213" y="61"/>
      <point x="262" y="61" type="qcurve" smooth="yes"/>
      <point x="322" y="61"/>
      <point x="396" y="155"/>
      <point x="396" y="231" type="qcurve" smooth="yes"/>
      <point x="396" y="500" type="line"/>
      <point x="481" y="500" type="line"/>
      <point x="481" y="0" type="line"/>
      <point x="401" y="0" type="line"/>
      <point x="401" y="94" type="line"/>
      <point x="384" y="48"/>
      <point x="298" y="-12"/>
    </contour>
  </outline>
</glyph>
<glyph name="v" format="2">
  <advance width="473"/>
  <unicode hex="0076"/>
  <anchor x="237" y="500" name="Anchor-8"/>
  <anchor x="0" y="0" name="Anchor-7"/>
  <anchor x="237" y="0" name="Anchor-6"/>
  <outline>
    <contour>
      <point x="191" y="0" type="line"/>
      <point x="10" y="500" type="line"/>
      <point x="102" y="500" type="line"/>
      <point x="214" y="163" type="line" smooth="yes"/>
      <point x="227" y="124"/>
      <point x="235" y="87" type="qcurve"/>
      <point x="238" y="87" type="line"/>
      <point x="246" y="124"/>
      <point x="259" y="163" type="qcurve" smooth="yes"/>
      <point x="371" y="500" type="line"/>
      <point x="463" y="500" type="line"/>
      <point x="282" y="0" type="line"/>
    </contour>
  </outline>
</glyph>
<glyph name="x" format="2">
  <advance width="495"/>
  <unicode hex="0078"/>
  <anchor x="248" y="500" name="Anchor-8"/>
  <anchor x="0" y="0" name="Anchor-7"/>
  <anchor x="248" y="0" name="Anchor-6"/>
  <outline>
    <contour>
      <point x="15" y="0" type="line"/>
      <point x="196" y="258" type="line"/>
      <point x="28" y="500" type="line"/>
      <point x="128" y="500" type="line"/>
      <point x="219" y="359" type="line" smooth="yes"/>
      <point x="244" y="320"/>
      <point x="248" y="307" type="qcurve"/>
      <point x="249" y="307" type="line"/>
      <point x="255" y="323"/>
      <point x="277" y="359" type="qcurve" smooth="yes"/>
      <point x="363" y="500" type="line"/>
      <point x="467" y="500" type="line"/>
      <point x="302" y="252" type="line"/>
      <point x="480" y="0" type="line"/>
      <point x="379" y="0" type="line"/>
      <point x="276" y="154" type="line" smooth="yes"/>
      <point x="252" y="191"/>
      <point x="248" y="205" type="qcurve"/>
      <point x="247" y="205" type="line"/>
      <point x="243" y="192"/>
      <point x="218" y="154" type="qcurve" smooth="yes"/>
      <point x="116" y="0" type="line"/>
    </contour>
  </outline>
</glyph>
<glyph name="z" format="2">
  <advance width="455"/>
  <unicode hex="007A"/>
  <anchor x="228" y="500" name="Anchor-8"/>
  <anchor x="0" y="0" name="Anchor-7"/>
  <anchor x="228" y="0" name="Anchor-6"/>
  <outline>
    <contour>
      <point x="35" y="65" type="line"/>
      <point x="308" y="428" type="line"/>
      <point x="45" y="428" type="line"/>
      <point x="45" y="500" type="line"/>
      <point x="410" y="500" type="line"/>
      <point x="410" y="437" type="line"/>
      <point x="140" y="73" type="line"/>
      <point x="425" y="73" type="line"/>
      <point x="425" y="0" type="line"/>
      <point x="35" y="0" type="line"/>
    </contour>
  </outline>
</glyph>
<glyph name="braceleft" format="2">
  <advance width="354"/>
  <unicode hex="007B"/>
  <outline>
    <contour>
      <point x="269" y="-116" type="line" smooth="yes"/>
      <point x="205" y="-116"/>
      <point x="130" y="-38"/>
      <point x="130" y="25" type="qcurve" smooth="yes"/>
      <point x="130" y="185" type="line" smooth="yes"/>
      <point x="130" y="213"/>
      <point x="126" y="245"/>
      <point x="113" y="279"/>
      <point x="84" y="294"/>
      <point x="60" y="295" type="qcurve"/>
      <point x="60" y="363" type="line"/>
      <point x="92" y="364"/>
      <point x="123" y="392"/>
      <point x="129" y="430"/>
      <point x="129" y="469" type="qcurve" smooth="yes"/>
      <point x="129" y="629" type="line" smooth="yes"/>
      <point x="129" y="692"/>
      <point x="212" y="771"/>
      <point x="285" y="771" type="qcurve" smooth="yes"/>
      <point x="311" y="771" type="line"/>
      <point x="311" y="710" type="line"/>
      <point x="295" y="710" type="line" smooth="yes"/>
      <point x="253" y="710"/>
      <point x="209" y="659"/>
      <point x="209" y="618" type="qcurve" smooth="yes"/>
      <point x="209" y="479" type="line" smooth="yes"/>
      <point x="209" y="355"/>
      <point x="137" y="330" type="qcurve"/>
      <point x="208" y="300"/>
      <point x="208" y="174" type="qcurve" smooth="yes"/>
      <point x="208" y="36" type="line" smooth="yes"/>
      <point x="208" y="-6"/>
      <point x="251" y="-55"/>
      <point x="289" y="-55" type="qcurve" smooth="yes"/>
      <point x="314" y="-55" type="line"/>
      <point x="314" y="-116" type="line"/>
    </contour>
  </outline>
</glyph>
<glyph name="bar" format="2">
  <advance width="262"/>
  <unicode hex="007C"/>
  <outline>
    <contour>
      <point x="95" y="-117" type="line"/>
      <point x="95" y="760" type="line"/>
      <point x="167" y="760" type="line"/>
      <point x="167" y="-117" type="line"/>
    </contour>
  </outline>
</glyph>
<glyph name="braceright" format="2">
  <advance width="354"/>
  <unicode hex="007D"/>
  <outline>
    <contour>
      <point x="85" y="-116" type="qcurve" smooth="yes"/>
      <point x="40" y="-116" type="line"/>
      <point x="40" y="-55" type="line"/>
      <point x="65" y="-55" type="line" smooth="yes"/>
      <point x="103" y="-55"/>
      <point x="146" y="-6"/>
      <point x="146" y="36" type="qcurve" smooth="yes"/>
      <point x="146" y="174" type="line" smooth="yes"/>
      <point x="146" y="300"/>
      <point x="217" y="330" type="qcurve"/>
      <point x="145" y="355"/>
      <point x="145" y="479" type="qcurve" smooth="yes"/>
      <point x="145" y="618" type="line" smooth="yes"/>
      <point x="145" y="659"/>
      <point x="101" y="710"/>
      <point x="59" y="710" type="qcurve" smooth="yes"/>
      <point x="43" y="710" type="line"/>
      <point x="43" y="771" type="line"/>
      <point x="69" y="771" type="line" smooth="yes"/>
      <point x="142" y="771"/>
      <point x="225" y="692"/>
      <point x="225" y="629" type="qcurve" smooth="yes"/>
      <point x="225" y="469" type="line" smooth="yes"/>
      <point x="225" y="430"/>
      <point x="231" y="392"/>
      <point x="262" y="364"/>
      <point x="294" y="363" type="qcurve"/>
      <point x="294" y="295" type="line"/>
      <point x="249" y="294"/>
      <point x="224" y="241"/>
      <point x="224" y="185" type="qcurve" smooth="yes"/>
      <point x="224" y="25" type="line" smooth="yes"/>
      <point x="224" y="-38"/>
      <point x="149" y="-116"/>
    </contour>
  </outline>
</glyph>
<glyph name="asciitilde" format="2">
  <advance width="620"/>
  <unicode hex="007E"/>
  <outline>
    <contour>
      <point x="407" y="237" type="qcurve" smooth="yes"/>
      <point x="376" y="237"/>
      <point x="317" y="262"/>
      <point x="279" y="291"/>
      <point x="232" y="316"/>
      <point x="212" y="316" type="qcurve" smooth="yes"/>
      <point x="156" y="316"/>
      <point x="136" y="248" type="qcurve"/>
      <point x="66" y="260" type="line"/>
      <point x="80" y="321"/>
      <point x="157" y="389"/>
      <point x="213" y="389" type="qcurve" smooth="yes"/>
      <point x="244" y="389"/>
      <point x="303" y="364"/>
      <point x="341" y="335"/>
      <point x="388" y="310"/>
      <point x="408" y="310" type="qcurve" smooth="yes"/>
      <point x="464" y="310"/>
      <point x="484" y="378" type="qcurve"/>
      <point x="554" y="366" type="line"/>
      <point x="540" y="305"/>
      <point x="463" y="237"/>
    </contour>
  </outline>
</glyph>
<glyph name="exclamdown" format="2">
  <advance width="310"/>
  <unicode hex="00A1"/>
  <outline>
    <contour>
      <point x="208" y="474" type="line"/>
      <point x="102" y="474" type="line"/>
      <point x="102" y="580" type="line"/>
      <point x="208" y="580" type="line"/>
    </contour>
    <contour>
      <point x="125" y="398" type="line"/>
      <point x="185" y="398" type="line"/>
      <point x="210" y="-145" type="line"/>
      <point x="100" y="-145" type="line"/>
    </contour>
  </outline>
</glyph>
<glyph name="cent" format="2">
  <advance width="549"/>
  <unicode hex="00A2"/>
  <outline>
    <contour>
      <point x="312" y="60" type="line"/>
      <point x="359" y="65"/>
      <point x="417" y="121"/>
      <point x="424" y="168" type="qcurve"/>
      <point x="503" y="153" type="line"/>
      <point x="489" y="80"/>
      <point x="390" y="-5"/>
      <point x="312" y="-11" type="qcurve"/>
      <point x="312" y="-89" type="line"/>
      <point x="252" y="-89" type="line"/>
      <point x="252" y="-10" type="line"/>
      <point x="155" y="1"/>
      <point x="45" y="139"/>
      <point x="45" y="251" type="qcurve" smooth="yes"/>
      <point x="45" y="364"/>
      <point x="153" y="499"/>
      <point x="252" y="510" type="qcurve"/>
      <point x="252" y="594" type="line"/>
      <point x="312" y="594" type="line"/>
      <point x="312" y="511" type="line"/>
      <point x="393" y="506"/>
      <point x="495" y="415"/>
      <point x="504" y="341" type="qcurve"/>
      <point x="422" y="330" type="line"/>
      <point x="405" y="427"/>
      <point x="312" y="439" type="qcurve"/>
    </contour>
    <contour>
      <point x="131" y="252" type="qcurve" smooth="yes"/>
      <point x="131" y="171"/>
      <point x="194" y="72"/>
      <point x="252" y="61" type="qcurve"/>
      <point x="252" y="438" type="line"/>
      <point x="194" y="427"/>
      <point x="131" y="331"/>
    </contour>
  </outline>
</glyph>
<glyph name="sterling" format="2">
  <advance width="607"/>
  <unicode hex="00A3"/>
  <outline>
    <contour>
      <point x="517" y="171" type="qcurve"/>
      <point x="597" y="155" type="line"/>
      <point x="586" y="75"/>
      <point x="492" y="-15"/>
      <point x="420" y="-15" type="qcurve" smooth="yes"/>
      <point x="377" y="-15"/>
      <point x="244" y="11"/>
      <point x="192" y="11" type="qcurve" smooth="yes"/>
      <point x="120" y="11"/>
      <point x="39" y="-8" type="qcurve"/>
      <point x="20" y="55" type="line"/>
      <point x="162" y="103"/>
      <point x="162" y="241" type="qcurve" smooth="yes"/>
      <point x="162" y="285"/>
      <point x="155" y="332" type="qcurve"/>
      <point x="45" y="332" type="line"/>
      <point x="45" y="395" type="line"/>
      <point x="142" y="395" type="line"/>
      <point x="129" y="458"/>
      <point x="129" y="501" type="qcurve" smooth="yes"/>
      <point x="129" y="597"/>
      <point x="242" y="710"/>
      <point x="341" y="710" type="qcurve" smooth="yes"/>
      <point x="509" y="710"/>
      <point x="547" y="559" type="qcurve"/>
      <point x="459" y="537" type="line"/>
      <point x="435" y="635"/>
      <point x="340" y="635" type="qcurve" smooth="yes"/>
      <point x="224" y="635"/>
      <point x="224" y="504" type="qcurve" smooth="yes"/>
      <point x="224" y="458"/>
      <point x="237" y="395" type="qcurve"/>
      <point x="428" y="395" type="line"/>
      <point x="428" y="332" type="line"/>
      <point x="248" y="332" type="line"/>
      <point x="254" y="299"/>
      <point x="254" y="259" type="qcurve" smooth="yes"/>
      <point x="254" y="133"/>
      <point x="154" y="79" type="qcurve"/>
      <point x="182" y="86"/>
      <point x="228" y="86" type="qcurve" smooth="yes"/>
      <point x="264" y="86"/>
      <point x="382" y="69"/>
      <point x="419" y="69" type="qcurve" smooth="yes"/>
      <point x="460" y="69"/>
      <point x="511" y="122"/>
    </contour>
  </outline>
</glyph>
<glyph name="currency" format="2">
  <advance width="548"/>
  <unicode hex="00A4"/>
  <outline>
    <contour>
      <point x="499" y="215"/>
      <point x="450" y="155" type="qcurve"/>
      <point x="503" y="96" type="line"/>
      <point x="463" y="60" type="line"/>
      <point x="410" y="117" type="line"/>
      <point x="352" y="77"/>
      <point x="278" y="77" type="qcurve" smooth="yes"/>
      <point x="200" y="77"/>
      <point x="141" y="120" type="qcurve"/>
      <point x="85" y="59" type="line"/>
      <point x="45" y="95" type="line"/>
      <point x="103" y="158" type="line"/>
      <point x="56" y="219"/>
      <point x="56" y="303" type="qcurve" smooth="yes"/>
      <point x="56" y="388"/>
      <point x="103" y="449" type="qcurve"/>
      <point x="45" y="512" type="line"/>
      <point x="85" y="548" type="line"/>
      <point x="143" y="487" type="line"/>
      <point x="199" y="529"/>
      <point x="278" y="529" type="qcurve" smooth="yes"/>
      <point x="352" y="529"/>
      <point x="408" y="490" type="qcurve"/>
      <point x="463" y="549" type="line"/>
      <point x="503" y="513" type="line"/>
      <point x="448" y="453" type="line"/>
      <point x="499" y="391"/>
    </contour>
    <contour>
      <point x="341" y="148"/>
      <point x="421" y="235"/>
      <point x="421" y="371"/>
      <point x="341" y="458"/>
      <point x="215" y="458"/>
      <point x="134" y="371"/>
      <point x="134" y="235"/>
      <point x="215" y="148"/>
    </contour>
  </outline>
</glyph>
<glyph name="yen" format="2">
  <advance width="525"/>
  <unicode hex="00A5"/>
  <outline>
    <contour>
      <point x="525" y="695" type="line"/>
      <point x="312" y="341" type="line"/>
      <point x="483" y="341" type="line"/>
      <point x="483" y="281" type="line"/>
      <point x="308" y="281" type="line"/>
      <point x="308" y="233" type="line"/>
      <point x="483" y="233" type="line"/>
      <point x="483" y="173" type="line"/>
      <point x="308" y="173" type="line"/>
      <point x="308" y="0" type="line"/>
      <point x="217" y="0" type="line"/>
      <point x="217" y="173" type="line"/>
      <point x="42" y="173" type="line"/>
      <point x="42" y="233" type="line"/>
      <point x="217" y="233" type="line"/>
      <point x="217" y="281" type="line"/>
      <point x="42" y="281" type="line"/>
      <point x="42" y="341" type="line"/>
      <point x="213" y="341" type="line"/>
      <point x="0" y="695" type="line"/>
      <point x="101" y="695" type="line"/>
      <point x="213" y="500" type="line" smooth="yes"/>
      <point x="246" y="444"/>
      <point x="261" y="405" type="qcurve"/>
      <point x="264" y="405" type="line"/>
      <point x="279" y="444"/>
      <point x="312" y="500" type="qcurve" smooth="yes"/>
      <point x="424" y="695" type="line"/>
    </contour>
  </outline>
</glyph>
<glyph name="brokenbar" format="2">
  <advance width="261"/>
  <unicode hex="00A6"/>
  <outline>
    <contour>
      <point x="166" y="760" type="line"/>
      <point x="166" y="382" type="line"/>
      <point x="95" y="382" type="line"/>
      <point x="95" y="760" type="line"/>
    </contour>
    <contour>
      <point x="166" y="261" type="line"/>
      <point x="166" y="-117" type="line"/>
      <point x="95" y="-117" type="line"/>
      <point x="95" y="261" type="line"/>
    </contour>
  </outline>
</glyph>
<glyph name="section" format="2">
  <advance width="502"/>
  <unicode hex="00A7"/>
  <outline>
    <contour>
      <point x="462" y="281" type="qcurve" smooth="yes"/>
      <point x="462" y="212"/>
      <point x="409" y="170" type="qcurve"/>
      <point x="442" y="131"/>
      <point x="442" y="77" type="qcurve" smooth="yes"/>
      <point x="442" y="3"/>
      <point x="336" y="-81"/>
      <point x="243" y="-81" type="qcurve" smooth="yes"/>
      <point x="151" y="-81"/>
      <point x="41" y="0"/>
      <point x="30" y="76" type="qcurve"/>
      <point x="108" y="91" type="line"/>
      <point x="129" y="-10"/>
      <point x="248" y="-10" type="qcurve" smooth="yes"/>
      <point x="300" y="-10"/>
      <point x="357" y="32"/>
      <point x="357" y="71" type="qcurve" smooth="yes"/>
      <point x="357" y="102"/>
      <point x="322" y="139"/>
      <point x="275" y="158" type="qcurve" smooth="yes"/>
      <point x="163" y="203" type="line" smooth="yes"/>
      <point x="95" y="231"/>
      <point x="34" y="303"/>
      <point x="34" y="356" type="qcurve" smooth="yes"/>
      <point x="34" y="424"/>
      <point x="93" y="459" type="qcurve"/>
      <point x="51" y="498"/>
      <point x="51" y="561" type="qcurve" smooth="yes"/>
      <point x="51" y="631"/>
      <point x="156" y="715"/>
      <point x="243" y="715" type="qcurve" smooth="yes"/>
      <point x="325" y="715"/>
      <point x="428" y="638"/>
      <point x="438" y="570" type="qcurve"/>
      <point x="354" y="550" type="line"/>
      <point x="343" y="646"/>
      <point x="239" y="646" type="qcurve" smooth="yes"/>
      <point x="191" y="646"/>
      <point x="135" y="605"/>
      <point x="135" y="535"/>
      <point x="176" y="497"/>
      <point x="238" y="473" type="qcurve" smooth="yes"/>
      <point x="343" y="433" type="line" smooth="yes"/>
      <point x="462" y="387"/>
    </contour>
    <contour>
      <point x="250" y="256" type="qcurve" smooth="yes"/>
      <point x="322" y="227" type="line" smooth="yes"/>
      <point x="346" y="217"/>
      <point x="361" y="208" type="qcurve"/>
      <point x="380" y="234"/>
      <point x="380" y="265" type="qcurve" smooth="yes"/>
      <point x="380" y="303"/>
      <point x="332" y="348"/>
      <point x="261" y="377" type="qcurve" smooth="yes"/>
      <point x="165" y="416" type="line" smooth="yes"/>
      <point x="157" y="419"/>
      <point x="141" y="427" type="qcurve"/>
      <point x="117" y="403"/>
      <point x="117" y="370" type="qcurve" smooth="yes"/>
      <point x="117" y="332"/>
      <point x="165" y="291"/>
    </contour>
  </outline>
</glyph>
<glyph name="dieresis" format="2">
  <advance width="600"/>
  <unicode hex="00A8"/>
  <anchor x="200" y="699" name="Anchor-12"/>
  <outline>
    <contour>
      <point x="50" y="596" type="line"/>
      <point x="50" y="699" type="line"/>
      <point x="147" y="699" type="line"/>
      <point x="147" y="596" type="line"/>
    </contour>
    <contour>
      <point x="253" y="596" type="line"/>
      <point x="253" y="699" type="line"/>
      <point x="350" y="699" type="line"/>
      <point x="350" y="596" type="line"/>
    </contour>
  </outline>
</glyph>
<glyph name="copyright" format="2">
  <advance width="836"/>
  <unicode hex="00A9"/>
  <outline>
    <contour>
      <point x="262" y="-17"/>
      <point x="45" y="188"/>
      <point x="45" y="355" type="qcurve" smooth="yes"/>
      <point x="45" y="523"/>
      <point x="261" y="727"/>
      <point x="575" y="727"/>
      <point x="791" y="523"/>
      <point x="791" y="355" type="qcurve" smooth="yes"/>
      <point x="791" y="188"/>
      <point x="574" y="-17"/>
    </contour>
    <contour>
      <point x="553" y="30"/>
      <point x="739" y="209"/>
      <point x="739" y="355" type="qcurve" smooth="yes"/>
      <point x="739" y="502"/>
      <point x="553" y="680"/>
      <point x="283" y="680"/>
      <point x="97" y="502"/>
      <point x="97" y="355" type="qcurve" smooth="yes"/>
      <point x="97" y="209"/>
      <point x="283" y="30"/>
    </contour>
    <contour>
      <point x="420" y="142" type="qcurve" smooth="yes"/>
      <point x="334" y="142"/>
      <point x="233" y="256"/>
      <point x="233" y="354" type="qcurve" smooth="yes"/>
      <point x="233" y="451"/>
      <point x="334" y="568"/>
      <point x="420" y="568" type="qcurve" smooth="yes"/>
      <point x="488" y="568"/>
      <point x="576" y="493"/>
      <point x="579" y="433" type="qcurve"/>
      <point x="510" y="425" type="line"/>
      <point x="505" y="463"/>
      <point x="458" y="508"/>
      <point x="418" y="508" type="qcurve" smooth="yes"/>
      <point x="364" y="508"/>
      <point x="303" y="424"/>
      <point x="303" y="284"/>
      <point x="366" y="202"/>
      <point x="420" y="202" type="qcurve" smooth="yes"/>
      <point x="457" y="202"/>
      <point x="507" y="247"/>
      <point x="512" y="284" type="qcurve"/>
      <point x="581" y="274" type="line"/>
      <point x="571" y="214"/>
      <point x="483" y="142"/>
    </contour>
  </outline>
</glyph>
<glyph name="ordfeminine" format="2">
  <advance width="437"/>
  <unicode hex="00AA"/>
  <anchor x="218" y="675" name="Anchor-8"/>
  <anchor x="381" y="310" name="Anchor-7"/>
  <anchor x="217" y="310" name="Anchor-6"/>
  <outline>
    <contour>
      <point x="169" y="301" type="qcurve" smooth="yes"/>
      <point x="112" y="301"/>
      <point x="43" y="360"/>
      <point x="43" y="407" type="qcurve" smooth="yes"/>
      <point x="43" y="461"/>
      <point x="123" y="510"/>
      <point x="201" y="520" type="qcurve" smooth="yes"/>
      <point x="294" y="532" type="line"/>
      <point x="294" y="541" type="line" smooth="yes"/>
      <point x="294" y="589"/>
      <point x="257" y="630"/>
      <point x="215" y="630" type="qcurve" smooth="yes"/>
      <point x="135" y="630"/>
      <point x="132" y="558" type="qcurve"/>
      <point x="54" y="558" type="line"/>
      <point x="58" y="617"/>
      <point x="144" y="684"/>
      <point x="215" y="684" type="qcurve" smooth="yes"/>
      <point x="296" y="684"/>
      <point x="370" y="612"/>
      <point x="370" y="533" type="qcurve" smooth="yes"/>
      <point x="370" y="428" type="line" smooth="yes"/>
      <point x="370" y="352"/>
      <point x="381" y="310" type="qcurve"/>
      <point x="305" y="310" type="line"/>
      <point x="300" y="340"/>
      <point x="299" y="380" type="qcurve"/>
      <point x="286" y="343"/>
      <point x="216" y="301"/>
    </contour>
    <contour>
      <point x="193" y="354" type="qcurve" smooth="yes"/>
      <point x="240" y="354"/>
      <point x="296" y="412"/>
      <point x="296" y="459" type="qcurve" smooth="yes"/>
      <point x="296" y="490" type="line"/>
      <point x="206" y="477" type="line" smooth="yes"/>
      <point x="121" y="465"/>
      <point x="121" y="412" type="qcurve" smooth="yes"/>
      <point x="121" y="386"/>
      <point x="160" y="354"/>
    </contour>
  </outline>
</glyph>
<glyph name="guillemotleft" format="2">
  <advance width="503"/>
  <unicode hex="00AB"/>
  <outline>
    <contour>
      <point x="201" y="67" type="line"/>
      <point x="30" y="275" type="line"/>
      <point x="201" y="483" type="line"/>
      <point x="291" y="483" type="line"/>
      <point x="126" y="275" type="line"/>
      <point x="291" y="67" type="line"/>
    </contour>
    <contour>
      <point x="393" y="67" type="line"/>
      <point x="222" y="275" type="line"/>
      <point x="393" y="483" type="line"/>
      <point x="483" y="483" type="line"/>
      <point x="318" y="275" type="line"/>
      <point x="483" y="67" type="line"/>
    </contour>
  </outline>
</glyph>
<glyph name="logicalnot" format="2">
  <advance width="620"/>
  <unicode hex="00AC"/>
  <outline>
    <contour>
      <point x="67" y="374" type="line"/>
      <point x="532" y="374" type="line"/>
      <point x="532" y="131" type="line"/>
      <point x="452" y="131" type="line"/>
      <point x="452" y="294" type="line"/>
      <point x="67" y="294" type="line"/>
    </contour>
  </outline>
</glyph>
<glyph name="registered" format="2">
  <advance width="836"/>
  <unicode hex="00AE"/>
  <outline>
    <contour>
      <point x="575" y="727"/>
      <point x="791" y="523"/>
      <point x="791" y="355" type="qcurve" smooth="yes"/>
      <point x="791" y="188"/>
      <point x="574" y="-17"/>
      <point x="262" y="-17"/>
      <point x="45" y="188"/>
      <point x="45" y="355" type="qcurve" smooth="yes"/>
      <point x="45" y="523"/>
      <point x="261" y="727"/>
    </contour>
    <contour>
      <point x="553" y="30"/>
      <point x="739" y="209"/>
      <point x="739" y="355" type="qcurve" smooth="yes"/>
      <point x="739" y="502"/>
      <point x="553" y="680"/>
      <point x="283" y="680"/>
      <point x="97" y="502"/>
      <point x="97" y="355" type="qcurve" smooth="yes"/>
      <point x="97" y="209"/>
      <point x="283" y="30"/>
    </contour>
    <contour>
      <point x="569" y="445" type="qcurve" smooth="yes"/>
      <point x="569" y="361"/>
      <point x="483" y="332" type="qcurve"/>
      <point x="585" y="156" type="line"/>
      <point x="509" y="156" type="line"/>
      <point x="417" y="327" type="line"/>
      <point x="352" y="327" type="line"/>
      <point x="352" y="156" type="line"/>
      <point x="286" y="156" type="line"/>
      <point x="286" y="562" type="line"/>
      <point x="428" y="562" type="line" smooth="yes"/>
      <point x="496" y="562"/>
      <point x="569" y="501"/>
    </contour>
    <contour>
      <point x="352" y="506" type="line"/>
      <point x="352" y="384" type="line"/>
      <point x="428" y="384" type="line" smooth="yes"/>
      <point x="504" y="384"/>
      <point x="504" y="506"/>
      <point x="428" y="506" type="qcurve" smooth="yes"/>
    </contour>
  </outline>
</glyph>
<glyph name="macron" format="2">
  <advance width="600"/>
  <unicode hex="00AF"/>
  <anchor x="199" y="681" name="Anchor-12"/>
  <outline>
    <contour>
      <point x="50" y="613" type="line"/>
      <point x="50" y="681" type="line"/>
      <point x="348" y="681" type="line"/>
      <point x="348" y="613" type="line"/>
    </contour>
  </outline>
</glyph>
<glyph name="degree" format="2">
  <advance width="410"/>
  <unicode hex="00B0"/>
  <outline>
    <contour>
      <point x="129" y="367"/>
      <point x="29" y="463"/>
      <point x="29" y="621"/>
      <point x="129" y="717"/>
      <point x="281" y="717"/>
      <point x="381" y="621"/>
      <point x="381" y="463"/>
      <point x="281" y="367"/>
    </contour>
    <contour>
      <point x="247" y="441"/>
      <point x="302" y="497"/>
      <point x="302" y="587"/>
      <point x="247" y="643"/>
      <point x="163" y="643"/>
      <point x="108" y="587"/>
      <point x="108" y="497"/>
      <point x="163" y="441"/>
    </contour>
  </outline>
</glyph>
<glyph name="plusminus" format="2">
  <advance width="620"/>
  <unicode hex="00B1"/>
  <outline>
    <contour>
      <point x="351" y="365" type="line"/>
      <point x="545" y="365" type="line"/>
      <point x="545" y="292" type="line"/>
      <point x="351" y="292" type="line"/>
      <point x="351" y="132" type="line"/>
      <point x="266" y="132" type="line"/>
      <point x="266" y="292" type="line"/>
      <point x="75" y="292" type="line"/>
      <point x="75" y="365" type="line"/>
      <point x="266" y="365" type="line"/>
      <point x="266" y="526" type="line"/>
      <point x="351" y="526" type="line"/>
    </contour>
    <contour>
      <point x="75" y="0" type="line"/>
      <point x="75" y="80" type="line"/>
      <point x="545" y="80" type="line"/>
      <point x="545" y="0" type="line"/>
    </contour>
  </outline>
</glyph>
<glyph name="acute" format="2">
  <advance width="600"/>
  <unicode hex="00B4"/>
  <anchor x="192" y="723" name="Anchor-12"/>
  <outline>
    <contour>
      <point x="48" y="580" type="line"/>
      <point x="140" y="723" type="line"/>
      <point x="244" y="723" type="line"/>
      <point x="126" y="580" type="line"/>
    </contour>
  </outline>
</glyph>
<glyph name="uni00B5" format="2">
  <advance width="586"/>
  <unicode hex="00B5"/>
  <anchor x="293" y="500" name="Anchor-2"/>
  <anchor x="416" y="0" name="Anchor-1"/>
  <anchor x="301" y="0" name="Anchor-0"/>
  <outline>
    <contour>
      <point x="411" y="500" type="line"/>
      <point x="496" y="500" type="line"/>
      <point x="496" y="0" type="line"/>
      <point x="416" y="0" type="line"/>
      <point x="416" y="94" type="line"/>
      <point x="399" y="48"/>
      <point x="313" y="-12"/>
      <point x="261" y="-12" type="qcurve" smooth="yes"/>
      <point x="205" y="-12"/>
      <point x="165" y="9" type="qcurve"/>
      <point x="165" y="-195" type="line"/>
      <point x="90" y="-195" type="line"/>
      <point x="90" y="500" type="line"/>
      <point x="175" y="500" type="line"/>
      <point x="175" y="191" type="line" smooth="yes"/>
      <point x="175" y="128"/>
      <point x="228" y="61"/>
      <point x="277" y="61" type="qcurve" smooth="yes"/>
      <point x="337" y="61"/>
      <point x="411" y="155"/>
      <point x="411" y="231" type="qcurve" smooth="yes"/>
    </contour>
  </outline>
</glyph>
<glyph name="paragraph" format="2">
  <advance width="657"/>
  <unicode hex="00B6"/>
  <outline>
    <contour>
      <point x="276" y="361" type="line"/>
      <point x="45" y="361"/>
      <point x="45" y="539" type="qcurve" smooth="yes"/>
      <point x="45" y="604"/>
      <point x="114" y="688"/>
      <point x="215" y="720"/>
      <point x="281" y="720" type="qcurve" smooth="yes"/>
      <point x="597" y="720" type="line"/>
      <point x="597" y="663" type="line"/>
      <point x="498" y="663" type="line"/>
      <point x="498" y="-100" type="line"/>
      <point x="433" y="-100" type="line"/>
      <point x="433" y="663" type="line"/>
      <point x="341" y="663" type="line"/>
      <point x="341" y="-100" type="line"/>
      <point x="276" y="-100" type="line"/>
    </contour>
  </outline>
</glyph>
<glyph name="periodcentered" format="2">
  <advance width="257"/>
  <unicode hex="00B7"/>
  <outline>
    <contour>
      <point x="187" y="399" type="line"/>
      <point x="187" y="281" type="line"/>
      <point x="70" y="281" type="line"/>
      <point x="70" y="399" type="line"/>
    </contour>
  </outline>
</glyph>
<glyph name="cedilla" format="2">
  <advance width="600"/>
  <unicode hex="00B8"/>
  <anchor x="153" y="-199" name="Anchor-11"/>
  <outline>
    <contour>
      <point x="121" y="7" type="line"/>
      <point x="174" y="7" type="line"/>
      <point x="139" y="-49" type="line"/>
      <point x="153" y="-37"/>
      <point x="182" y="-37" type="qcurve" smooth="yes"/>
      <point x="216" y="-37"/>
      <point x="256" y="-79"/>
      <point x="256" y="-114" type="qcurve" smooth="yes"/>
      <point x="256" y="-152"/>
      <point x="198" y="-199"/>
      <point x="151" y="-199" type="qcurve" smooth="yes"/>
      <point x="69" y="-199"/>
      <point x="50" y="-136" type="qcurve"/>
      <point x="107" y="-126" type="line"/>
      <point x="117" y="-154"/>
      <point x="149" y="-154" type="qcurve" smooth="yes"/>
      <point x="168" y="-154"/>
      <point x="192" y="-131"/>
      <point x="192" y="-113" type="qcurve" smooth="yes"/>
      <point x="192" y="-94"/>
      <point x="170" y="-72"/>
      <point x="151" y="-72" type="qcurve" smooth="yes"/>
      <point x="130" y="-72"/>
      <point x="117" y="-87" type="qcurve"/>
      <point x="78" y="-75" type="line"/>
    </contour>
  </outline>
</glyph>
<glyph name="ordmasculine" format="2">
  <advance width="445"/>
  <unicode hex="00BA"/>
  <anchor x="223" y="675" name="Anchor-8"/>
  <anchor x="283" y="310" name="Anchor-7"/>
  <anchor x="223" y="310" name="Anchor-6"/>
  <outline>
    <contour>
      <point x="223" y="301" type="qcurve" smooth="yes"/>
      <point x="141" y="301"/>
      <point x="43" y="403"/>
      <point x="43" y="583"/>
      <point x="141" y="684"/>
      <point x="223" y="684" type="qcurve" smooth="yes"/>
      <point x="304" y="684"/>
      <point x="402" y="583"/>
      <point x="402" y="403"/>
      <point x="304" y="301"/>
    </contour>
    <contour>
      <point x="272" y="358"/>
      <point x="326" y="427"/>
      <point x="326" y="493" type="qcurve" smooth="yes"/>
      <point x="326" y="558"/>
      <point x="272" y="627"/>
      <point x="174" y="627"/>
      <point x="119" y="558"/>
      <point x="119" y="493" type="qcurve" smooth="yes"/>
      <point x="119" y="427"/>
      <point x="174" y="358"/>
    </contour>
  </outline>
</glyph>
<glyph name="guillemotright" format="2">
  <advance width="503"/>
  <unicode hex="00BB"/>
  <outline>
    <contour>
      <point x="110" y="67" type="line"/>
      <point x="20" y="67" type="line"/>
      <point x="185" y="275" type="line"/>
      <point x="20" y="483" type="line"/>
      <point x="110" y="483" type="line"/>
      <point x="281" y="275" type="line"/>
    </contour>
    <contour>
      <point x="302" y="67" type="line"/>
      <point x="212" y="67" type="line"/>
      <point x="377" y="275" type="line"/>
      <point x="212" y="483" type="line"/>
      <point x="302" y="483" type="line"/>
      <point x="473" y="275" type="line"/>
    </contour>
  </outline>
</glyph>
<glyph name="onequarter" format="2">
  <advance width="778"/>
  <unicode hex="00BC"/>
  <outline>
    <contour>
      <point x="106" y="-17" type="line"/>
      <point x="537" y="727" type="line"/>
      <point x="611" y="727" type="line"/>
      <point x="181" y="-17" type="line"/>
    </contour>
    <contour>
      <point x="119" y="330" type="line"/>
      <point x="119" y="614" type="line"/>
      <point x="89" y="579"/>
      <point x="38" y="579" type="qcurve" smooth="yes"/>
      <point x="27" y="579" type="line"/>
      <point x="27" y="644" type="line"/>
      <point x="35" y="644" type="line" smooth="yes"/>
      <point x="109" y="644"/>
      <point x="132" y="711" type="qcurve"/>
      <point x="189" y="711" type="line"/>
      <point x="189" y="330" type="line"/>
    </contour>
    <contour>
      <point x="748" y="89" type="line"/>
      <point x="686" y="89" type="line"/>
      <point x="686" y="0" type="line"/>
      <point x="617" y="0" type="line"/>
      <point x="617" y="89" type="line"/>
      <point x="423" y="89" type="line"/>
      <point x="423" y="140" type="line"/>
      <point x="610" y="381" type="line"/>
      <point x="686" y="381" type="line"/>
      <point x="686" y="141" type="line"/>
      <point x="748" y="141" type="line"/>
    </contour>
    <contour>
      <point x="617" y="315" type="line"/>
      <point x="482" y="141" type="line"/>
      <point x="617" y="141" type="line"/>
    </contour>
  </outline>
</glyph>
<glyph name="onehalf" format="2">
  <advance width="816"/>
  <unicode hex="00BD"/>
  <outline>
    <contour>
      <point x="106" y="-17" type="line"/>
      <point x="537" y="727" type="line"/>
      <point x="611" y="727" type="line"/>
      <point x="181" y="-17" type="line"/>
    </contour>
    <contour>
      <point x="119" y="330" type="line"/>
      <point x="119" y="614" type="line"/>
      <point x="89" y="579"/>
      <point x="38" y="579" type="qcurve" smooth="yes"/>
      <point x="27" y="579" type="line"/>
      <point x="27" y="644" type="line"/>
      <point x="35" y="644" type="line" smooth="yes"/>
      <point x="109" y="644"/>
      <point x="132" y="711" type="qcurve"/>
      <point x="189" y="711" type="line"/>
      <point x="189" y="330" type="line"/>
    </contour>
    <contour>
      <point x="484" y="0" type="line"/>
      <point x="484" y="52" type="line"/>
      <point x="540" y="85"/>
      <point x="599" y="125"/>
      <point x="669" y="182"/>
      <point x="700" y="237"/>
      <point x="700" y="266" type="qcurve" smooth="yes"/>
      <point x="700" y="334"/>
      <point x="632" y="334" type="qcurve" smooth="yes"/>
      <point x="597" y="334"/>
      <point x="558" y="299"/>
      <point x="558" y="266" type="qcurve" smooth="yes"/>
      <point x="558" y="255"/>
      <point x="563" y="237" type="qcurve"/>
      <point x="489" y="243" type="line"/>
      <point x="486" y="256"/>
      <point x="486" y="274" type="qcurve" smooth="yes"/>
      <point x="486" y="328"/>
      <point x="565" y="390"/>
      <point x="635" y="390" type="qcurve" smooth="yes"/>
      <point x="701" y="390"/>
      <point x="775" y="328"/>
      <point x="775" y="273" type="qcurve" smooth="yes"/>
      <point x="775" y="209"/>
      <point x="662" y="95"/>
      <point x="581" y="54" type="qcurve"/>
      <point x="783" y="54" type="line"/>
      <point x="783" y="0" type="line"/>
    </contour>
  </outline>
</glyph>
<glyph name="threequarters" format="2">
  <advance width="882"/>
  <unicode hex="00BE"/>
  <outline>
    <contour>
      <point x="210" y="-17" type="line"/>
      <point x="641" y="727" type="line"/>
      <point x="715" y="727" type="line"/>
      <point x="285" y="-17" type="line"/>
    </contour>
    <contour>
      <point x="183" y="322" type="qcurve" smooth="yes"/>
      <point x="113" y="322"/>
      <point x="32" y="388"/>
      <point x="31" y="445" type="qcurve"/>
      <point x="103" y="451" type="line"/>
      <point x="104" y="416"/>
      <point x="146" y="376"/>
      <point x="183" y="376" type="qcurve" smooth="yes"/>
      <point x="260" y="376"/>
      <point x="260" y="441" type="qcurve" smooth="yes"/>
      <point x="260" y="497"/>
      <point x="180" y="497" type="qcurve" smooth="yes"/>
      <point x="142" y="497" type="line"/>
      <point x="142" y="548" type="line"/>
      <point x="177" y="548" type="line" smooth="yes"/>
      <point x="211" y="548"/>
      <point x="251" y="579"/>
      <point x="251" y="605" type="qcurve" smooth="yes"/>
      <point x="251" y="667"/>
      <point x="181" y="667" type="qcurve" smooth="yes"/>
      <point x="146" y="667"/>
      <point x="104" y="627"/>
      <point x="104" y="592" type="qcurve"/>
      <point x="33" y="598" type="line"/>
      <point x="33" y="654"/>
      <point x="115" y="720"/>
      <point x="185" y="720" type="qcurve" smooth="yes"/>
      <point x="251" y="720"/>
      <point x="324" y="663"/>
      <point x="324" y="613" type="qcurve" smooth="yes"/>
      <point x="324" y="580"/>
      <point x="277" y="531"/>
      <point x="240" y="527" type="qcurve"/>
      <point x="284" y="522"/>
      <point x="336" y="473"/>
      <point x="336" y="434" type="qcurve" smooth="yes"/>
      <point x="336" y="382"/>
      <point x="254" y="322"/>
    </contour>
    <contour>
      <point x="852" y="89" type="line"/>
      <point x="790" y="89" type="line"/>
      <point x="790" y="0" type="line"/>
      <point x="721" y="0" type="line"/>
      <point x="721" y="89" type="line"/>
      <point x="527" y="89" type="line"/>
      <point x="527" y="140" type="line"/>
      <point x="714" y="381" type="line"/>
      <point x="790" y="381" type="line"/>
      <point x="790" y="141" type="line"/>
      <point x="852" y="141" type="line"/>
    </contour>
    <contour>
      <point x="721" y="315" type="line"/>
      <point x="586" y="141" type="line"/>
      <point x="721" y="141" type="line"/>
    </contour>
  </outline>
</glyph>
<glyph name="questiondown" format="2">
  <advance width="468"/>
  <unicode hex="00BF"/>
  <outline>
    <contour>
      <point x="294" y="580" type="line"/>
      <point x="294" y="474" type="line"/>
      <point x="189" y="474" type="line"/>
      <point x="189" y="580" type="line"/>
    </contour>
    <contour>
      <point x="285" y="394" type="line"/>
      <point x="285" y="352" type="line" smooth="yes"/>
      <point x="285" y="330"/>
      <point x="280" y="299"/>
      <point x="253" y="248"/>
      <point x="228" y="224" type="qcurve" smooth="yes"/>
      <point x="179" y="178" type="line" smooth="yes"/>
      <point x="110" y="113"/>
      <point x="110" y="43" type="qcurve" smooth="yes"/>
      <point x="110" y="-9"/>
      <point x="176" y="-69"/>
      <point x="235" y="-69" type="qcurve" smooth="yes"/>
      <point x="295" y="-69"/>
      <point x="368" y="2"/>
      <point x="368" y="65" type="qcurve" smooth="yes"/>
      <point x="368" y="90"/>
      <point x="362" y="118" type="qcurve"/>
      <point x="453" y="107" type="line"/>
      <point x="458" y="81"/>
      <point x="458" y="53" type="qcurve" smooth="yes"/>
      <point x="458" y="-37"/>
      <point x="340" y="-147"/>
      <point x="232" y="-147" type="qcurve" smooth="yes"/>
      <point x="129" y="-147"/>
      <point x="15" y="-48"/>
      <point x="15" y="43" type="qcurve" smooth="yes"/>
      <point x="15" y="130"/>
      <point x="109" y="218" type="qcurve" smooth="yes"/>
      <point x="159" y="265" type="line" smooth="yes"/>
      <point x="182" y="286"/>
      <point x="200" y="330"/>
      <point x="200" y="366" type="qcurve" smooth="yes"/>
      <point x="200" y="394" type="line"/>
    </contour>
  </outline>
</glyph>
<glyph name="Agrave" format="2">
  <advance width="672"/>
  <unicode hex="00C0"/>
  <anchor x="284" y="884" name="Anchor-8"/>
  <anchor x="554" y="0" name="Anchor-7"/>
  <anchor x="336" y="0" name="Anchor-6"/>
  <outline>
    <contour>
      <point x="376" y="753" type="line"/>
      <point x="296" y="753" type="line"/>
      <point x="192" y="861" type="line"/>
      <point x="286" y="861" type="line"/>
    </contour>
    <contour>
      <point x="554" y="0" type="line"/>
      <point x="481" y="205" type="line"/>
      <point x="191" y="205" type="line"/>
      <point x="118" y="0" type="line"/>
      <point x="20" y="0" type="line"/>
      <point x="289" y="710" type="line"/>
      <point x="383" y="710" type="line"/>
      <point x="652" y="0" type="line"/>
    </contour>
    <contour>
      <point x="219" y="285" type="line"/>
      <point x="453" y="285" type="line"/>
      <point x="354" y="562" type="line" smooth="yes"/>
      <point x="343" y="592"/>
      <point x="337" y="616" type="qcurve"/>
      <point x="335" y="616" type="line"/>
      <point x="329" y="592"/>
      <point x="318" y="562" type="qcurve" smooth="yes"/>
    </contour>
  </outline>
</glyph>
<glyph name="Atilde" format="2">
  <advance width="672"/>
  <unicode hex="00C3"/>
  <anchor x="336" y="882" name="Anchor-8"/>
  <anchor x="554" y="0" name="Anchor-7"/>
  <anchor x="336" y="0" name="Anchor-6"/>
  <outline>
    <contour>
      <point x="272" y="797" type="qcurve" smooth="yes"/>
      <point x="238" y="797"/>
      <point x="225" y="751" type="qcurve"/>
      <point x="167" y="762" type="line"/>
      <point x="174" y="810"/>
      <point x="231" y="862"/>
      <point x="275" y="862" type="qcurve" smooth="yes"/>
      <point x="310" y="862"/>
      <point x="382" y="813"/>
      <point x="400" y="813" type="qcurve" smooth="yes"/>
      <point x="434" y="813"/>
      <point x="447" y="859" type="qcurve"/>
      <point x="505" y="848" type="line"/>
      <point x="498" y="800"/>
      <point x="441" y="748"/>
      <point x="397" y="748" type="qcurve" smooth="yes"/>
      <point x="362" y="748"/>
      <point x="290" y="797"/>
    </contour>
    <contour>
      <point x="554" y="0" type="line"/>
      <point x="481" y="205" type="line"/>
      <point x="191" y="205" type="line"/>
      <point x="118" y="0" type="line"/>
      <point x="20" y="0" type="line"/>
      <point x="289" y="710" type="line"/>
      <point x="383" y="710" type="line"/>
      <point x="652" y="0" type="line"/>
    </contour>
    <contour>
      <point x="219" y="285" type="line"/>
      <point x="453" y="285" type="line"/>
      <point x="354" y="562" type="line" smooth="yes"/>
      <point x="343" y="592"/>
      <point x="337" y="616" type="qcurve"/>
      <point x="335" y="616" type="line"/>
      <point x="329" y="592"/>
      <point x="318" y="562" type="qcurve" smooth="yes"/>
    </contour>
  </outline>
</glyph>
<glyph name="Adieresis" format="2">
  <advance width="672"/>
  <unicode hex="00C4"/>
  <anchor x="336" y="851" name="Anchor-8"/>
  <anchor x="554" y="0" name="Anchor-7"/>
  <anchor x="336" y="0" name="Anchor-6"/>
  <outline>
    <contour>
      <point x="273" y="851" type="line"/>
      <point x="273" y="753" type="line"/>
      <point x="176" y="753" type="line"/>
      <point x="176" y="851" type="line"/>
    </contour>
    <contour>
      <point x="496" y="851" type="line"/>
      <point x="496" y="753" type="line"/>
      <point x="399" y="753" type="line"/>
      <point x="399" y="851" type="line"/>
    </contour>
    <contour>
      <point x="554" y="0" type="line"/>
      <point x="481" y="205" type="line"/>
      <point x="191" y="205" type="line"/>
      <point x="118" y="0" type="line"/>
      <point x="20" y="0" type="line"/>
      <point x="289" y="710" type="line"/>
      <point x="383" y="710" type="line"/>
      <point x="652" y="0" type="line"/>
    </contour>
    <contour>
      <point x="219" y="285" type="line"/>
      <point x="453" y="285" type="line"/>
      <point x="354" y="562" type="line" smooth="yes"/>
      <point x="343" y="592"/>
      <point x="337" y="616" type="qcurve"/>
      <point x="335" y="616" type="line"/>
      <point x="329" y="592"/>
      <point x="318" y="562" type="qcurve" smooth="yes"/>
    </contour>
  </outline>
</glyph>
<glyph name="Aring" format="2">
  <advance width="672"/>
  <unicode hex="00C5"/>
  <anchor x="336" y="942" name="Anchor-8"/>
  <anchor x="554" y="0" name="Anchor-7"/>
  <anchor x="336" y="0" name="Anchor-6"/>
  <outline>
    <contour>
      <point x="287" y="738"/>
      <point x="227" y="795"/>
      <point x="227" y="885"/>
      <point x="287" y="942"/>
      <point x="385" y="942"/>
      <point x="445" y="885"/>
      <point x="445" y="795"/>
      <point x="385" y="738"/>
    </contour>
    <contour>
      <point x="313" y="894"/>
      <point x="284" y="864"/>
      <point x="284" y="816"/>
      <point x="313" y="786"/>
      <point x="359" y="786"/>
      <point x="388" y="816"/>
      <point x="388" y="864"/>
      <point x="359" y="894"/>
    </contour>
    <contour>
      <point x="554" y="0" type="line"/>
      <point x="481" y="205" type="line"/>
      <point x="191" y="205" type="line"/>
      <point x="118" y="0" type="line"/>
      <point x="20" y="0" type="line"/>
      <point x="289" y="710" type="line"/>
      <point x="383" y="710" type="line"/>
      <point x="652" y="0" type="line"/>
    </contour>
    <contour>
      <point x="219" y="285" type="line"/>
      <point x="453" y="285" type="line"/>
      <point x="354" y="562" type="line" smooth="yes"/>
      <point x="343" y="592"/>
      <point x="337" y="616" type="qcurve"/>
      <point x="335" y="616" type="line"/>
      <point x="329" y="592"/>
      <point x="318" y="562" type="qcurve" smooth="yes"/>
    </contour>
  </outline>
</glyph>
<glyph name="AE" format="2">
  <advance width="926"/>
  <unicode hex="00C6"/>
  <anchor x="635" y="710" name="Anchor-8"/>
  <anchor x="0" y="0" name="Anchor-7"/>
  <anchor x="453" y="0" name="Anchor-6"/>
  <outline>
    <contour>
      <point x="533" y="80" type="line"/>
      <point x="861" y="80" type="line"/>
      <point x="861" y="0" type="line"/>
      <point x="438" y="0" type="line"/>
      <point x="438" y="174" type="line"/>
      <point x="188" y="174" type="line"/>
      <point x="91" y="0" type="line"/>
      <point x="-10" y="0" type="line"/>
      <point x="405" y="710" type="line"/>
      <point x="854" y="710" type="line"/>
      <point x="854" y="630" type="line"/>
      <point x="533" y="630" type="line"/>
      <point x="533" y="404" type="line"/>
      <point x="837" y="404" type="line"/>
      <point x="837" y="324" type="line"/>
      <point x="533" y="324" type="line"/>
    </contour>
    <contour>
      <point x="232" y="254" type="line"/>
      <point x="438" y="254" type="line"/>
      <point x="438" y="625" type="line"/>
    </contour>
  </outline>
</glyph>
<glyph name="Ccedilla" format="2">
  <advance width="694"/>
  <unicode hex="00C7"/>
  <anchor x="367" y="710" name="Anchor-8"/>
  <anchor x="0" y="0" name="Anchor-7"/>
  <anchor x="379" y="-199" name="Anchor-6"/>
  <outline>
    <contour>
      <point x="365" y="66" type="qcurve" smooth="yes"/>
      <point x="440" y="66"/>
      <point x="542" y="159"/>
      <point x="557" y="239" type="qcurve"/>
      <point x="649" y="223" type="line"/>
      <point x="628" y="119"/>
      <point x="497" y="-10"/>
      <point x="385" y="-16" type="qcurve"/>
      <point x="365" y="-49" type="line"/>
      <point x="379" y="-37"/>
      <point x="408" y="-37" type="qcurve" smooth="yes"/>
      <point x="442" y="-37"/>
      <point x="482" y="-79"/>
      <point x="482" y="-114" type="qcurve" smooth="yes"/>
      <point x="482" y="-152"/>
      <point x="424" y="-199"/>
      <point x="377" y="-199" type="qcurve" smooth="yes"/>
      <point x="295" y="-199"/>
      <point x="276" y="-136" type="qcurve"/>
      <point x="333" y="-126" type="line"/>
      <point x="343" y="-154"/>
      <point x="375" y="-154" type="qcurve" smooth="yes"/>
      <point x="394" y="-154"/>
      <point x="418" y="-131"/>
      <point x="418" y="-113" type="qcurve" smooth="yes"/>
      <point x="418" y="-94"/>
      <point x="396" y="-72"/>
      <point x="377" y="-72" type="qcurve" smooth="yes"/>
      <point x="356" y="-72"/>
      <point x="343" y="-87" type="qcurve"/>
      <point x="304" y="-75" type="line"/>
      <point x="335" y="-16" type="line"/>
      <point x="192" y="-5"/>
      <point x="45" y="201"/>
      <point x="45" y="357" type="qcurve" smooth="yes"/>
      <point x="45" y="525"/>
      <point x="213" y="727"/>
      <point x="368" y="727" type="qcurve" smooth="yes"/>
      <point x="493" y="727"/>
      <point x="635" y="593"/>
      <point x="649" y="478" type="qcurve"/>
      <point x="552" y="468" type="line"/>
      <point x="541" y="550"/>
      <point x="444" y="646"/>
      <point x="363" y="646" type="qcurve" smooth="yes"/>
      <point x="260" y="646"/>
      <point x="145" y="489"/>
      <point x="145" y="358" type="qcurve" smooth="yes"/>
      <point x="145" y="229"/>
      <point x="260" y="66"/>
    </contour>
  </outline>
</glyph>
<glyph name="Egrave" format="2">
  <advance width="612"/>
  <unicode hex="00C8"/>
  <anchor x="274" y="884" name="Anchor-8"/>
  <anchor x="467" y="0" name="Anchor-7"/>
  <anchor x="306" y="0" name="Anchor-6"/>
  <outline>
    <contour>
      <point x="366" y="753" type="line"/>
      <point x="286" y="753" type="line"/>
      <point x="182" y="861" type="line"/>
      <point x="276" y="861" type="line"/>
    </contour>
    <contour>
      <point x="195" y="80" type="line"/>
      <point x="547" y="80" type="line"/>
      <point x="547" y="0" type="line"/>
      <point x="100" y="0" type="line"/>
      <point x="100" y="710" type="line"/>
      <point x="540" y="710" type="line"/>
      <point x="540" y="630" type="line"/>
      <point x="195" y="630" type="line"/>
      <point x="195" y="404" type="line"/>
      <point x="523" y="404" type="line"/>
      <point x="523" y="324" type="line"/>
      <point x="195" y="324" type="line"/>
    </contour>
  </outline>
</glyph>
<glyph name="Igrave" format="2">
  <advance width="295"/>
  <unicode hex="00CC"/>
  <anchor x="87" y="861" name="Anchor-8"/>
  <anchor x="100" y="0" name="Anchor-7"/>
  <anchor x="148" y="0" name="Anchor-6"/>
  <outline>
    <contour>
      <point x="185" y="753" type="line"/>
      <point x="111" y="753" type="line"/>
      <point x="37" y="861" type="line"/>
      <point x="125" y="861" type="line"/>
    </contour>
    <contour>
      <point x="195" y="0" type="line"/>
      <point x="100" y="0" type="line"/>
      <point x="100" y="710" type="line"/>
      <point x="195" y="710" type="line"/>
    </contour>
  </outline>
</glyph>
<glyph name="Iacute" format="2">
  <advance width="295"/>
  <unicode hex="00CD"/>
  <anchor x="203" y="861" name="Anchor-8"/>
  <anchor x="100" y="0" name="Anchor-7"/>
  <anchor x="148" y="0" name="Anchor-6"/>
  <outline>
    <contour>
      <point x="111" y="753" type="line"/>
      <point x="171" y="861" type="line"/>
      <point x="259" y="861" type="line"/>
      <point x="185" y="753" type="line"/>
    </contour>
    <contour>
      <point x="195" y="0" type="line"/>
      <point x="100" y="0" type="line"/>
      <point x="100" y="710" type="line"/>
      <point x="195" y="710" type="line"/>
    </contour>
  </outline>
</glyph>
<glyph name="Icircumflex" format="2">
  <advance width="295"/>
  <unicode hex="00CE"/>
  <anchor x="148" y="861" name="Anchor-8"/>
  <anchor x="100" y="0" name="Anchor-7"/>
  <anchor x="148" y="0" name="Anchor-6"/>
  <outline>
    <contour>
      <point x="274" y="753" type="line"/>
      <point x="192" y="753" type="line"/>
      <point x="148" y="825" type="line"/>
      <point x="104" y="753" type="line"/>
      <point x="22" y="753" type="line"/>
      <point x="95" y="861" type="line"/>
      <point x="201" y="861" type="line"/>
    </contour>
    <contour>
      <point x="195" y="0" type="line"/>
      <point x="100" y="0" type="line"/>
      <point x="100" y="710" type="line"/>
      <point x="195" y="710" type="line"/>
    </contour>
  </outline>
</glyph>
<glyph name="Idieresis" format="2">
  <advance width="295"/>
  <unicode hex="00CF"/>
  <anchor x="148" y="851" name="Anchor-8"/>
  <anchor x="100" y="0" name="Anchor-7"/>
  <anchor x="148" y="0" name="Anchor-6"/>
  <outline>
    <contour>
      <point x="23" y="753" type="line"/>
      <point x="23" y="851" type="line"/>
      <point x="120" y="851" type="line"/>
      <point x="120" y="753" type="line"/>
    </contour>
    <contour>
      <point x="176" y="753" type="line"/>
      <point x="176" y="851" type="line"/>
      <point x="273" y="851" type="line"/>
      <point x="273" y="753" type="line"/>
    </contour>
    <contour>
      <point x="195" y="0" type="line"/>
      <point x="100" y="0" type="line"/>
      <point x="100" y="710" type="line"/>
      <point x="195" y="710" type="line"/>
    </contour>
  </outline>
</glyph>
<glyph name="Ntilde" format="2">
  <advance width="744"/>
  <unicode hex="00D1"/>
  <anchor x="372" y="882" name="Anchor-8"/>
  <anchor x="0" y="0" name="Anchor-7"/>
  <anchor x="372" y="0" name="Anchor-6"/>
  <outline>
    <contour>
      <point x="433" y="748" type="qcurve" smooth="yes"/>
      <point x="398" y="748"/>
      <point x="326" y="797"/>
      <point x="308" y="797" type="qcurve" smooth="yes"/>
      <point x="274" y="797"/>
      <point x="261" y="751" type="qcurve"/>
      <point x="203" y="762" type="line"/>
      <point x="210" y="810"/>
      <point x="267" y="862"/>
      <point x="311" y="862" type="qcurve" smooth="yes"/>
      <point x="346" y="862"/>
      <point x="418" y="813"/>
      <point x="436" y="813" type="qcurve" smooth="yes"/>
      <point x="470" y="813"/>
      <point x="483" y="859" type="qcurve"/>
      <point x="541" y="848" type="line"/>
      <point x="534" y="800"/>
      <point x="477" y="748"/>
    </contour>
    <contour>
      <point x="100" y="0" type="line"/>
      <point x="100" y="710" type="line"/>
      <point x="215" y="710" type="line"/>
      <point x="516" y="193" type="line" smooth="yes"/>
      <point x="546" y="141"/>
      <point x="560" y="102" type="qcurve"/>
      <point x="562" y="102" type="line"/>
      <point x="559" y="139"/>
      <point x="559" y="196" type="qcurve" smooth="yes"/>
      <point x="559" y="710" type="line"/>
      <point x="644" y="710" type="line"/>
      <point x="644" y="0" type="line"/>
      <point x="529" y="0" type="line"/>
      <point x="228" y="517" type="line" smooth="yes"/>
      <point x="196" y="573"/>
      <point x="184" y="608" type="qcurve"/>
      <point x="182" y="608" type="line"/>
      <point x="185" y="570"/>
      <point x="185" y="514" type="qcurve" smooth="yes"/>
      <point x="185" y="0" type="line"/>
    </contour>
  </outline>
</glyph>
<glyph name="Ograve" format="2">
  <advance width="739"/>
  <unicode hex="00D2"/>
  <anchor x="318" y="884" name="Anchor-8"/>
  <anchor x="665" y="10" name="Anchor-7"/>
  <anchor x="370" y="0" name="Anchor-6"/>
  <outline>
    <contour>
      <point x="410" y="753" type="line"/>
      <point x="330" y="753" type="line"/>
      <point x="226" y="861" type="line"/>
      <point x="320" y="861" type="line"/>
    </contour>
    <contour>
      <point x="222" y="-17"/>
      <point x="45" y="185"/>
      <point x="45" y="355" type="qcurve" smooth="yes"/>
      <point x="45" y="528"/>
      <point x="221" y="727"/>
      <point x="370" y="727" type="qcurve" smooth="yes"/>
      <point x="518" y="727"/>
      <point x="694" y="528"/>
      <point x="694" y="355" type="qcurve" smooth="yes"/>
      <point x="694" y="183"/>
      <point x="518" y="-17"/>
    </contour>
    <contour>
      <point x="476" y="63"/>
      <point x="594" y="218"/>
      <point x="594" y="492"/>
      <point x="476" y="647"/>
      <point x="264" y="647"/>
      <point x="145" y="492"/>
      <point x="145" y="355" type="qcurve" smooth="yes"/>
      <point x="145" y="220"/>
      <point x="264" y="63"/>
    </contour>
  </outline>
</glyph>
<glyph name="Ocircumflex" format="2">
  <advance width="739"/>
  <unicode hex="00D4"/>
  <anchor x="370" y="861" name="Anchor-8"/>
  <anchor x="665" y="10" name="Anchor-7"/>
  <anchor x="370" y="0" name="Anchor-6"/>
  <outline>
    <contour>
      <point x="520" y="753" type="line"/>
      <point x="434" y="753" type="line"/>
      <point x="370" y="825" type="line"/>
      <point x="306" y="753" type="line"/>
      <point x="220" y="753" type="line"/>
      <point x="317" y="861" type="line"/>
      <point x="423" y="861" type="line"/>
    </contour>
    <contour>
      <point x="222" y="-17"/>
      <point x="45" y="185"/>
      <point x="45" y="355" type="qcurve" smooth="yes"/>
      <point x="45" y="528"/>
      <point x="221" y="727"/>
      <point x="370" y="727" type="qcurve" smooth="yes"/>
      <point x="518" y="727"/>
      <point x="694" y="528"/>
      <point x="694" y="355" type="qcurve" smooth="yes"/>
      <point x="694" y="183"/>
      <point x="518" y="-17"/>
    </contour>
    <contour>
      <point x="476" y="63"/>
      <point x="594" y="218"/>
      <point x="594" y="492"/>
      <point x="476" y="647"/>
      <point x="264" y="647"/>
      <point x="145" y="492"/>
      <point x="145" y="355" type="qcurve" smooth="yes"/>
      <point x="145" y="220"/>
      <point x="264" y="63"/>
    </contour>
  </outline>
</glyph>
<glyph name="Otilde" format="2">
  <advance width="739"/>
  <unicode hex="00D5"/>
  <anchor x="370" y="882" name="Anchor-8"/>
  <anchor x="665" y="10" name="Anchor-7"/>
  <anchor x="370" y="0" name="Anchor-6"/>
  <outline>
    <contour>
      <point x="431" y="748" type="qcurve" smooth="yes"/>
      <point x="396" y="748"/>
      <point x="324" y="797"/>
      <point x="306" y="797" type="qcurve" smooth="yes"/>
      <point x="272" y="797"/>
      <point x="259" y="751" type="qcurve"/>
      <point x="201" y="762" type="line"/>
      <point x="208" y="810"/>
      <point x="265" y="862"/>
      <point x="309" y="862" type="qcurve" smooth="yes"/>
      <point x="344" y="862"/>
      <point x="416" y="813"/>
      <point x="434" y="813" type="qcurve" smooth="yes"/>
      <point x="468" y="813"/>
      <point x="481" y="859" type="qcurve"/>
      <point x="539" y="848" type="line"/>
      <point x="532" y="800"/>
      <point x="475" y="748"/>
    </contour>
    <contour>
      <point x="222" y="-17"/>
      <point x="45" y="185"/>
      <point x="45" y="355" type="qcurve" smooth="yes"/>
      <point x="45" y="528"/>
      <point x="221" y="727"/>
      <point x="370" y="727" type="qcurve" smooth="yes"/>
      <point x="518" y="727"/>
      <point x="694" y="528"/>
      <point x="694" y="355" type="qcurve" smooth="yes"/>
      <point x="694" y="183"/>
      <point x="518" y="-17"/>
    </contour>
    <contour>
      <point x="476" y="63"/>
      <point x="594" y="218"/>
      <point x="594" y="492"/>
      <point x="476" y="647"/>
      <point x="264" y="647"/>
      <point x="145" y="492"/>
      <point x="145" y="355" type="qcurve" smooth="yes"/>
      <point x="145" y="220"/>
      <point x="264" y="63"/>
    </contour>
  </outline>
</glyph>
<glyph name="Odieresis" format="2">
  <advance width="739"/>
  <unicode hex="00D6"/>
  <anchor x="370" y="851" name="Anchor-8"/>
  <anchor x="665" y="10" name="Anchor-7"/>
  <anchor x="370" y="0" name="Anchor-6"/>
  <outline>
    <contour>
      <point x="210" y="753" type="line"/>
      <point x="210" y="851" type="line"/>
      <point x="307" y="851" type="line"/>
      <point x="307" y="753" type="line"/>
    </contour>
    <contour>
      <point x="433" y="753" type="line"/>
      <point x="433" y="851" type="line"/>
      <point x="530" y="851" type="line"/>
      <point x="530" y="753" type="line"/>
    </contour>
    <contour>
      <point x="222" y="-17"/>
      <point x="45" y="185"/>
      <point x="45" y="355" type="qcurve" smooth="yes"/>
      <point x="45" y="528"/>
      <point x="221" y="727"/>
      <point x="370" y="727" type="qcurve" smooth="yes"/>
      <point x="518" y="727"/>
      <point x="694" y="528"/>
      <point x="694" y="355" type="qcurve" smooth="yes"/>
      <point x="694" y="183"/>
      <point x="518" y="-17"/>
    </contour>
    <contour>
      <point x="476" y="63"/>
      <point x="594" y="218"/>
      <point x="594" y="492"/>
      <point x="476" y="647"/>
      <point x="264" y="647"/>
      <point x="145" y="492"/>
      <point x="145" y="355" type="qcurve" smooth="yes"/>
      <point x="145" y="220"/>
      <point x="264" y="63"/>
    </contour>
  </outline>
</glyph>
<glyph name="multiply" format="2">
  <advance width="620"/>
  <unicode hex="00D7"/>
  <outline>
    <contour>
      <point x="553" y="513" type="line"/>
      <point x="367" y="327" type="line"/>
      <point x="553" y="142" type="line"/>
      <point x="496" y="84" type="line"/>
      <point x="310" y="270" type="line"/>
      <point x="124" y="84" type="line"/>
      <point x="67" y="141" type="line"/>
      <point x="253" y="327" type="line"/>
      <point x="67" y="513" type="line"/>
      <point x="124" y="570" type="line"/>
      <point x="310" y="385" type="line"/>
      <point x="495" y="570" type="line"/>
    </contour>
  </outline>
</glyph>
<glyph name="Oslash" format="2">
  <advance width="739"/>
  <unicode hex="00D8"/>
  <anchor x="370" y="710" name="Anchor-8"/>
  <anchor x="665" y="10" name="Anchor-7"/>
  <anchor x="370" y="0" name="Anchor-6"/>
  <outline>
    <contour>
      <point x="616" y="616" type="line"/>
      <point x="694" y="518"/>
      <point x="694" y="355" type="qcurve" smooth="yes"/>
      <point x="694" y="183"/>
      <point x="518" y="-17"/>
      <point x="370" y="-17" type="qcurve" smooth="yes"/>
      <point x="254" y="-17"/>
      <point x="173" y="47" type="qcurve"/>
      <point x="127" y="-12" type="line"/>
      <point x="73" y="27" type="line"/>
      <point x="125" y="94" type="line"/>
      <point x="45" y="194"/>
      <point x="45" y="355" type="qcurve" smooth="yes"/>
      <point x="45" y="528"/>
      <point x="221" y="727"/>
      <point x="370" y="727" type="qcurve" smooth="yes"/>
      <point x="487" y="727"/>
      <point x="568" y="663" type="qcurve"/>
      <point x="613" y="721" type="line"/>
      <point x="667" y="682" type="line"/>
    </contour>
    <contour>
      <point x="145" y="355" type="qcurve" smooth="yes"/>
      <point x="145" y="246"/>
      <point x="185" y="171" type="qcurve"/>
      <point x="514" y="593" type="line"/>
      <point x="457" y="647"/>
      <point x="370" y="647" type="qcurve" smooth="yes"/>
      <point x="264" y="647"/>
      <point x="145" y="492"/>
    </contour>
    <contour>
      <point x="370" y="63" type="qcurve" smooth="yes"/>
      <point x="476" y="63"/>
      <point x="594" y="218"/>
      <point x="594" y="355" type="qcurve" smooth="yes"/>
      <point x="594" y="467"/>
      <point x="555" y="538" type="qcurve"/>
      <point x="227" y="117" type="line"/>
      <point x="284" y="63"/>
    </contour>
  </outline>
</glyph>
<glyph name="Uacute" format="2">
  <advance width="716"/>
  <unicode hex="00DA"/>
  <anchor x="410" y="861" name="Anchor-8"/>
  <anchor x="377" y="0" name="Anchor-7"/>
  <anchor x="358" y="0" name="Anchor-6"/>
  <outline>
    <contour>
      <point x="318" y="753" type="line"/>
      <point x="408" y="861" type="line"/>
      <point x="502" y="861" type="line"/>
      <point x="398" y="753" type="line"/>
    </contour>
    <contour>
      <point x="85" y="710" type="line"/>
      <point x="180" y="710" type="line"/>
      <point x="180" y="254" type="line" smooth="yes"/>
      <point x="180" y="167"/>
      <point x="273" y="67"/>
      <point x="443" y="67"/>
      <point x="536" y="167"/>
      <point x="536" y="254" type="qcurve" smooth="yes"/>
      <point x="536" y="710" type="line"/>
      <point x="631" y="710" type="line"/>
      <point x="631" y="248" type="line" smooth="yes"/>
      <point x="631" y="127"/>
      <point x="488" y="-17"/>
      <point x="228" y="-17"/>
      <point x="85" y="127"/>
      <point x="85" y="248" type="qcurve" smooth="yes"/>
    </contour>
  </outline>
</glyph>
<glyph name="Ucircumflex" format="2">
  <advance width="716"/>
  <unicode hex="00DB"/>
  <anchor x="358" y="861" name="Anchor-8"/>
  <anchor x="377" y="0" name="Anchor-7"/>
  <anchor x="358" y="0" name="Anchor-6"/>
  <outline>
    <contour>
      <point x="508" y="753" type="line"/>
      <point x="422" y="753" type="line"/>
      <point x="358" y="825" type="line"/>
      <point x="294" y="753" type="line"/>
      <point x="208" y="753" type="line"/>
      <point x="305" y="861" type="line"/>
      <point x="411" y="861" type="line"/>
    </contour>
    <contour>
      <point x="85" y="710" type="line"/>
      <point x="180" y="710" type="line"/>
      <point x="180" y="254" type="line" smooth="yes"/>
      <point x="180" y="167"/>
      <point x="273" y="67"/>
      <point x="443" y="67"/>
      <point x="536" y="167"/>
      <point x="536" y="254" type="qcurve" smooth="yes"/>
      <point x="536" y="710" type="line"/>
      <point x="631" y="710" type="line"/>
      <point x="631" y="248" type="line" smooth="yes"/>
      <point x="631" y="127"/>
      <point x="488" y="-17"/>
      <point x="228" y="-17"/>
      <point x="85" y="127"/>
      <point x="85" y="248" type="qcurve" smooth="yes"/>
    </contour>
  </outline>
</glyph>
<glyph name="Thorn" format="2">
  <advance width="574"/>
  <unicode hex="00DE"/>
  <outline>
    <contour>
      <point x="333" y="568" type="line" smooth="yes"/>
      <point x="435" y="568"/>
      <point x="554" y="463"/>
      <point x="554" y="373" type="qcurve" smooth="yes"/>
      <point x="554" y="286"/>
      <point x="432" y="178"/>
      <point x="333" y="178" type="qcurve" smooth="yes"/>
      <point x="195" y="178" type="line"/>
      <point x="195" y="0" type="line"/>
      <point x="100" y="0" type="line"/>
      <point x="100" y="710" type="line"/>
      <point x="195" y="710" type="line"/>
      <point x="195" y="568" type="line"/>
    </contour>
    <contour>
      <point x="327" y="258" type="line" smooth="yes"/>
      <point x="383" y="258"/>
      <point x="453" y="321"/>
      <point x="453" y="373" type="qcurve" smooth="yes"/>
      <point x="453" y="426"/>
      <point x="385" y="488"/>
      <point x="327" y="488" type="qcurve" smooth="yes"/>
      <point x="195" y="488" type="line"/>
      <point x="195" y="258" type="line"/>
    </contour>
  </outline>
</glyph>
<glyph name="germandbls" format="2">
  <advance width="564"/>
  <unicode hex="00DF"/>
  <outline>
    <contour>
      <point x="85" y="527" type="line" smooth="yes"/>
      <point x="85" y="627"/>
      <point x="193" y="737"/>
      <point x="290" y="737" type="qcurve" smooth="yes"/>
      <point x="380" y="737"/>
      <point x="483" y="652"/>
      <point x="483" y="572" type="qcurve" smooth="yes"/>
      <point x="483" y="502"/>
      <point x="409" y="413"/>
      <point x="343" y="405" type="qcurve"/>
      <point x="435" y="396"/>
      <point x="529" y="298"/>
      <point x="529" y="213" type="qcurve" smooth="yes"/>
      <point x="529" y="108"/>
      <point x="404" y="-5"/>
      <point x="287" y="-5" type="qcurve" smooth="yes"/>
      <point x="258" y="-5"/>
      <point x="232" y="-2" type="qcurve"/>
      <point x="232" y="69" type="line"/>
      <point x="257" y="66"/>
      <point x="284" y="66" type="qcurve" smooth="yes"/>
      <point x="360" y="66"/>
      <point x="439" y="141"/>
      <point x="439" y="213" type="qcurve" smooth="yes"/>
      <point x="439" y="357"/>
      <point x="261" y="364" type="qcurve"/>
      <point x="221" y="364" type="line"/>
      <point x="221" y="436" type="line"/>
      <point x="261" y="436" type="line"/>
      <point x="393" y="444"/>
      <point x="393" y="565" type="qcurve" smooth="yes"/>
      <point x="393" y="614"/>
      <point x="335" y="670"/>
      <point x="284" y="670" type="qcurve" smooth="yes"/>
      <point x="170" y="670"/>
      <point x="170" y="525" type="qcurve" smooth="yes"/>
      <point x="170" y="0" type="line"/>
      <point x="85" y="0" type="line"/>
    </contour>
  </outline>
</glyph>
<glyph name="atilde" format="2">
  <advance width="539"/>
  <unicode hex="00E3"/>
  <anchor x="267" y="722" name="Anchor-8"/>
  <anchor x="390" y="0" name="Anchor-7"/>
  <anchor x="270" y="0" name="Anchor-6"/>
  <outline>
    <contour>
      <point x="338" y="587" type="qcurve" smooth="yes"/>
      <point x="306" y="587"/>
      <point x="255" y="620"/>
      <point x="213" y="653"/>
      <point x="193" y="653" type="qcurve" smooth="yes"/>
      <point x="174" y="653"/>
      <point x="151" y="626"/>
      <point x="143" y="596" type="qcurve"/>
      <point x="85" y="607" type="line"/>
      <point x="93" y="661"/>
      <point x="151" y="721"/>
      <point x="196" y="721" type="qcurve" smooth="yes"/>
      <point x="228" y="721"/>
      <point x="279" y="688"/>
      <point x="321" y="655"/>
      <point x="341" y="655" type="qcurve" smooth="yes"/>
      <point x="377" y="655"/>
      <point x="391" y="712" type="qcurve"/>
      <point x="449" y="701" type="line"/>
      <point x="441" y="647"/>
      <point x="383" y="587"/>
    </contour>
    <contour>
      <point x="214" y="-12" type="qcurve" smooth="yes"/>
      <point x="137" y="-12"/>
      <point x="45" y="68"/>
      <point x="45" y="135" type="qcurve" smooth="yes"/>
      <point x="45" y="214"/>
      <point x="115" y="253" type="qcurve" smooth="yes"/>
      <point x="169" y="280"/>
      <point x="283" y="294" type="qcurve" smooth="yes"/>
      <point x="376" y="305" type="line"/>
      <point x="376" y="313" type="line" smooth="yes"/>
      <point x="376" y="382"/>
      <point x="324" y="442"/>
      <point x="266" y="442" type="qcurve" smooth="yes"/>
      <point x="215" y="442"/>
      <point x="155" y="390"/>
      <point x="152" y="343" type="qcurve"/>
      <point x="61" y="343" type="line"/>
      <point x="66" y="420"/>
      <point x="177" y="512"/>
      <point x="265" y="512" type="qcurve" smooth="yes"/>
      <point x="368" y="512"/>
      <point x="462" y="413"/>
      <point x="462" y="304" type="qcurve" smooth="yes"/>
      <point x="462" y="169" type="line" smooth="yes"/>
      <point x="462" y="55"/>
      <point x="479" y="0" type="qcurve"/>
      <point x="390" y="0" type="line"/>
      <point x="384" y="42"/>
      <point x="382" y="91" type="qcurve"/>
      <point x="365" y="43"/>
      <point x="275" y="-12"/>
    </contour>
    <contour>
      <point x="233" y="58" type="qcurve" smooth="yes"/>
      <point x="298" y="58"/>
      <point x="377" y="145"/>
      <point x="377" y="218" type="qcurve" smooth="yes"/>
      <point x="377" y="243" type="line"/>
      <point x="241" y="223" type="line" smooth="yes"/>
      <point x="186" y="215"/>
      <point x="135" y="174"/>
      <point x="135" y="100"/>
      <point x="187" y="58"/>
    </contour>
  </outline>
</glyph>
<glyph name="aring" format="2">
  <advance width="539"/>
  <unicode hex="00E5"/>
  <anchor x="267" y="760" name="Anchor-8"/>
  <anchor x="390" y="0" name="Anchor-7"/>
  <anchor x="270" y="0" name="Anchor-6"/>
  <outline>
    <contour>
      <point x="218" y="556"/>
      <point x="158" y="613"/>
      <point x="158" y="703"/>
      <point x="218" y="760"/>
      <point x="316" y="760"/>
      <point x="376" y="703"/>
      <point x="376" y="613"/>
      <point x="316" y="556"/>
    </contour>
    <contour>
      <point x="290" y="604"/>
      <point x="319" y="634"/>
      <point x="319" y="682"/>
      <point x="290" y="712"/>
      <point x="244" y="712"/>
      <point x="215" y="682"/>
      <point x="215" y="634"/>
      <point x="244" y="604"/>
    </contour>
    <contour>
      <point x="214" y="-12" type="qcurve" smooth="yes"/>
      <point x="137" y="-12"/>
      <point x="45" y="68"/>
      <point x="45" y="135" type="qcurve" smooth="yes"/>
      <point x="45" y="214"/>
      <point x="115" y="253" type="qcurve" smooth="yes"/>
      <point x="169" y="280"/>
      <point x="283" y="294" type="qcurve" smooth="yes"/>
      <point x="376" y="305" type="line"/>
      <point x="376" y="313" type="line" smooth="yes"/>
      <point x="376" y="382"/>
      <point x="324" y="442"/>
      <point x="266" y="442" type="qcurve" smooth="yes"/>
      <point x="215" y="442"/>
      <point x="155" y="390"/>
      <point x="152" y="343" type="qcurve"/>
      <point x="61" y="343" type="line"/>
      <point x="66" y="420"/>
      <point x="177" y="512"/>
      <point x="265" y="512" type="qcurve" smooth="yes"/>
      <point x="368" y="512"/>
      <point x="462" y="413"/>
      <point x="462" y="304" type="qcurve" smooth="yes"/>
      <point x="462" y="169" type="line" smooth="yes"/>
      <point x="462" y="55"/>
      <point x="479" y="0" type="qcurve"/>
      <point x="390" y="0" type="line"/>
      <point x="384" y="42"/>
      <point x="382" y="91" type="qcurve"/>
      <point x="365" y="43"/>
      <point x="275" y="-12"/>
    </contour>
    <contour>
      <point x="233" y="58" type="qcurve" smooth="yes"/>
      <point x="298" y="58"/>
      <point x="377" y="145"/>
      <point x="377" y="218" type="qcurve" smooth="yes"/>
      <point x="377" y="243" type="line"/>
      <point x="241" y="223" type="line" smooth="yes"/>
      <point x="186" y="215"/>
      <point x="135" y="174"/>
      <point x="135" y="100"/>
      <point x="187" y="58"/>
    </contour>
  </outline>
</glyph>
<glyph name="ae" format="2">
  <advance width="841"/>
  <unicode hex="00E6"/>
  <anchor x="421" y="500" name="Anchor-8"/>
  <anchor x="0" y="0" name="Anchor-7"/>
  <anchor x="421" y="0" name="Anchor-6"/>
  <outline>
    <contour>
      <point x="791" y="271" type="qcurve" smooth="yes"/>
      <point x="791" y="226" type="line"/>
      <point x="456" y="226" type="line"/>
      <point x="457" y="152"/>
      <point x="533" y="63"/>
      <point x="595" y="63" type="qcurve" smooth="yes"/>
      <point x="687" y="63"/>
      <point x="718" y="158" type="qcurve"/>
      <point x="788" y="127" type="line"/>
      <point x="738" y="-12"/>
      <point x="589" y="-12" type="qcurve" smooth="yes"/>
      <point x="454" y="-12"/>
      <point x="404" y="105" type="qcurve"/>
      <point x="380" y="48"/>
      <point x="278" y="-12"/>
      <point x="211" y="-12" type="qcurve" smooth="yes"/>
      <point x="135" y="-12"/>
      <point x="45" y="65"/>
      <point x="45" y="131" type="qcurve" smooth="yes"/>
      <point x="45" y="194"/>
      <point x="134" y="272"/>
      <point x="223" y="282" type="qcurve" smooth="yes"/>
      <point x="370" y="297" type="line"/>
      <point x="370" y="313" type="line" smooth="yes"/>
      <point x="370" y="441"/>
      <point x="257" y="441" type="qcurve" smooth="yes"/>
      <point x="206" y="441"/>
      <point x="149" y="390"/>
      <point x="147" y="343" type="qcurve"/>
      <point x="60" y="343" type="line"/>
      <point x="66" y="423"/>
      <point x="169" y="512"/>
      <point x="258" y="512" type="qcurve" smooth="yes"/>
      <point x="376" y="512"/>
      <point x="421" y="429" type="qcurve"/>
      <point x="475" y="512"/>
      <point x="588" y="512" type="qcurve" smooth="yes"/>
      <point x="685" y="512"/>
      <point x="791" y="385"/>
    </contour>
    <contour>
      <point x="703" y="295" type="line"/>
      <point x="705" y="364"/>
      <point x="643" y="445"/>
      <point x="588" y="445" type="qcurve" smooth="yes"/>
      <point x="531" y="445"/>
      <point x="458" y="364"/>
      <point x="456" y="295" type="qcurve"/>
    </contour>
    <contour>
      <point x="371" y="218" type="qcurve" smooth="yes"/>
      <point x="371" y="234" type="line"/>
      <point x="248" y="220" type="line" smooth="yes"/>
      <point x="187" y="213"/>
      <point x="135" y="170"/>
      <point x="135" y="130" type="qcurve" smooth="yes"/>
      <point x="135" y="98"/>
      <point x="187" y="58"/>
      <point x="227" y="58" type="qcurve" smooth="yes"/>
      <point x="285" y="58"/>
      <point x="371" y="135"/>
    </contour>
  </outline>
</glyph>
<glyph name="ccedilla" format="2">
  <advance width="526"/>
  <unicode hex="00E7"/>
  <anchor x="261" y="500" name="Anchor-8"/>
  <anchor x="0" y="0" name="Anchor-7"/>
  <anchor x="290" y="-199" name="Anchor-6"/>
  <outline>
    <contour>
      <point x="276" y="62" type="qcurve" smooth="yes"/>
      <point x="379" y="62"/>
      <point x="399" y="181" type="qcurve"/>
      <point x="480" y="168" type="line"/>
      <point x="467" y="89"/>
      <point x="373" y="-4"/>
      <point x="300" y="-11" type="qcurve"/>
      <point x="276" y="-49" type="line"/>
      <point x="290" y="-37"/>
      <point x="319" y="-37" type="qcurve" smooth="yes"/>
      <point x="353" y="-37"/>
      <point x="393" y="-79"/>
      <point x="393" y="-114" type="qcurve" smooth="yes"/>
      <point x="393" y="-152"/>
      <point x="335" y="-199"/>
      <point x="288" y="-199" type="qcurve" smooth="yes"/>
      <point x="206" y="-199"/>
      <point x="187" y="-136" type="qcurve"/>
      <point x="244" y="-126" type="line"/>
      <point x="254" y="-154"/>
      <point x="286" y="-154" type="qcurve" smooth="yes"/>
      <point x="305" y="-154"/>
      <point x="329" y="-131"/>
      <point x="329" y="-113" type="qcurve" smooth="yes"/>
      <point x="329" y="-94"/>
      <point x="307" y="-72"/>
      <point x="288" y="-72" type="qcurve" smooth="yes"/>
      <point x="268" y="-72"/>
      <point x="254" y="-87" type="qcurve"/>
      <point x="215" y="-75" type="line"/>
      <point x="249" y="-11" type="line"/>
      <point x="155" y="-2"/>
      <point x="45" y="138"/>
      <point x="45" y="250" type="qcurve" smooth="yes"/>
      <point x="45" y="372"/>
      <point x="168" y="512"/>
      <point x="275" y="512" type="qcurve" smooth="yes"/>
      <point x="363" y="512"/>
      <point x="471" y="416"/>
      <point x="481" y="330" type="qcurve"/>
      <point x="394" y="320" type="line"/>
      <point x="387" y="377"/>
      <point x="324" y="438"/>
      <point x="273" y="438" type="qcurve" smooth="yes"/>
      <point x="208" y="438"/>
      <point x="135" y="339"/>
      <point x="135" y="251" type="qcurve" smooth="yes"/>
      <point x="135" y="161"/>
      <point x="209" y="62"/>
    </contour>
  </outline>
</glyph>
<glyph name="eacute" format="2">
  <advance width="535"/>
  <unicode hex="00E9"/>
  <anchor x="372" y="723" name="Anchor-8"/>
  <anchor x="272" y="0" name="Anchor-7"/>
  <anchor x="265" y="0" name="Anchor-6"/>
  <outline>
    <contour>
      <point x="424" y="723" type="line"/>
      <point x="306" y="580" type="line"/>
      <point x="228" y="580" type="line"/>
      <point x="320" y="723" type="line"/>
    </contour>
    <contour>
      <point x="485" y="285" type="qcurve" smooth="yes"/>
      <point x="485" y="225" type="line"/>
      <point x="130" y="225" type="line"/>
      <point x="131" y="152"/>
      <point x="212" y="63"/>
      <point x="279" y="63" type="qcurve" smooth="yes"/>
      <point x="378" y="63"/>
      <point x="412" y="158" type="qcurve"/>
      <point x="482" y="127" type="line"/>
      <point x="429" y="-12"/>
      <point x="273" y="-12" type="qcurve" smooth="yes"/>
      <point x="165" y="-12"/>
      <point x="45" y="121"/>
      <point x="45" y="244" type="qcurve" smooth="yes"/>
      <point x="45" y="370"/>
      <point x="165" y="512"/>
      <point x="272" y="512" type="qcurve" smooth="yes"/>
      <point x="374" y="512"/>
      <point x="485" y="396"/>
    </contour>
    <contour>
      <point x="399" y="294" type="line"/>
      <point x="399" y="305" type="line" smooth="yes"/>
      <point x="399" y="373"/>
      <point x="332" y="445"/>
      <point x="270" y="445" type="qcurve" smooth="yes"/>
      <point x="205" y="445"/>
      <point x="132" y="365"/>
      <point x="130" y="294" type="qcurve"/>
    </contour>
  </outline>
</glyph>
<glyph name="igrave" format="2">
  <advance width="265"/>
  <unicode hex="00EC"/>
  <anchor x="62" y="723" name="Anchor-8"/>
  <anchor x="90" y="0" name="Anchor-7"/>
  <anchor x="133" y="0" name="Anchor-6"/>
  <outline>
    <contour>
      <point x="170" y="580" type="line"/>
      <point x="92" y="580" type="line"/>
      <point x="14" y="723" type="line"/>
      <point x="108" y="723" type="line"/>
    </contour>
    <contour>
      <point x="90" y="0" type="line"/>
      <point x="90" y="500" type="line"/>
      <point x="175" y="500" type="line"/>
      <point x="175" y="0" type="line"/>
    </contour>
  </outline>
</glyph>
<glyph name="iacute" format="2">
  <advance width="265"/>
  <unicode hex="00ED"/>
  <anchor x="240" y="723" name="Anchor-8"/>
  <anchor x="90" y="0" name="Anchor-7"/>
  <anchor x="133" y="0" name="Anchor-6"/>
  <outline>
    <contour>
      <point x="96" y="580" type="line"/>
      <point x="158" y="723" type="line"/>
      <point x="252" y="723" type="line"/>
      <point x="174" y="580" type="line"/>
    </contour>
    <contour>
      <point x="90" y="0" type="line"/>
      <point x="90" y="500" type="line"/>
      <point x="175" y="500" type="line"/>
      <point x="175" y="0" type="line"/>
    </contour>
  </outline>
</glyph>
<glyph name="icircumflex" format="2">
  <advance width="265"/>
  <unicode hex="00EE"/>
  <anchor x="133" y="723" name="Anchor-8"/>
  <anchor x="90" y="0" name="Anchor-7"/>
  <anchor x="133" y="0" name="Anchor-6"/>
  <outline>
    <contour>
      <point x="255" y="580" type="line"/>
      <point x="181" y="580" type="line"/>
      <point x="133" y="681" type="line"/>
      <point x="85" y="580" type="line"/>
      <point x="11" y="580" type="line"/>
      <point x="89" y="723" type="line"/>
      <point x="177" y="723" type="line"/>
    </contour>
    <contour>
      <point x="90" y="0" type="line"/>
      <point x="90" y="500" type="line"/>
      <point x="175" y="500" type="line"/>
      <point x="175" y="0" type="line"/>
    </contour>
  </outline>
</glyph>
<glyph name="idieresis" format="2">
  <advance width="265"/>
  <unicode hex="00EF"/>
  <anchor x="133" y="699" name="Anchor-8"/>
  <anchor x="90" y="0" name="Anchor-7"/>
  <anchor x="133" y="0" name="Anchor-6"/>
  <outline>
    <contour>
      <point x="13" y="596" type="line"/>
      <point x="13" y="699" type="line"/>
      <point x="110" y="699" type="line"/>
      <point x="110" y="596" type="line"/>
    </contour>
    <contour>
      <point x="156" y="596" type="line"/>
      <point x="156" y="699" type="line"/>
      <point x="253" y="699" type="line"/>
      <point x="253" y="596" type="line"/>
    </contour>
    <contour>
      <point x="90" y="0" type="line"/>
      <point x="90" y="500" type="line"/>
      <point x="175" y="500" type="line"/>
      <point x="175" y="0" type="line"/>
    </contour>
  </outline>
</glyph>
<glyph name="eth" format="2">
  <advance width="531"/>
  <unicode hex="00F0"/>
  <outline>
    <contour>
      <point x="375" y="623" type="line"/>
      <point x="501" y="473"/>
      <point x="501" y="258" type="qcurve" smooth="yes"/>
      <point x="501" y="139"/>
      <point x="371" y="-12"/>
      <point x="165" y="-12"/>
      <point x="45" y="130"/>
      <point x="45" y="252" type="qcurve" smooth="yes"/>
      <point x="45" y="372"/>
      <point x="162" y="512"/>
      <point x="261" y="512" type="qcurve" smooth="yes"/>
      <point x="345" y="512"/>
      <point x="386" y="441" type="qcurve"/>
      <point x="388" y="441" type="line"/>
      <point x="365" y="522"/>
      <point x="299" y="593" type="qcurve"/>
      <point x="174" y="544" type="line"/>
      <point x="154" y="588" type="line"/>
      <point x="261" y="630" type="line"/>
      <point x="213" y="668"/>
      <point x="164" y="687" type="qcurve"/>
      <point x="220" y="740" type="line"/>
      <point x="286" y="712"/>
      <point x="339" y="660" type="qcurve"/>
      <point x="420" y="692" type="line"/>
      <point x="439" y="648" type="line"/>
    </contour>
    <contour>
      <point x="272" y="63" type="qcurve" smooth="yes"/>
      <point x="340" y="63"/>
      <point x="415" y="163"/>
      <point x="415" y="252" type="qcurve" smooth="yes"/>
      <point x="415" y="343"/>
      <point x="340" y="441"/>
      <point x="272" y="441" type="qcurve" smooth="yes"/>
      <point x="209" y="441"/>
      <point x="135" y="340"/>
      <point x="135" y="164"/>
      <point x="208" y="63"/>
    </contour>
  </outline>
</glyph>
<glyph name="ntilde" format="2">
  <advance width="579"/>
  <unicode hex="00F1"/>
  <anchor x="313" y="722" name="Anchor-8"/>
  <anchor x="0" y="0" name="Anchor-7"/>
  <anchor x="290" y="0" name="Anchor-6"/>
  <outline>
    <contour>
      <point x="384" y="587" type="qcurve" smooth="yes"/>
      <point x="352" y="587"/>
      <point x="301" y="620"/>
      <point x="259" y="653"/>
      <point x="239" y="653" type="qcurve" smooth="yes"/>
      <point x="220" y="653"/>
      <point x="197" y="626"/>
      <point x="189" y="596" type="qcurve"/>
      <point x="131" y="607" type="line"/>
      <point x="139" y="661"/>
      <point x="197" y="721"/>
      <point x="242" y="721" type="qcurve" smooth="yes"/>
      <point x="274" y="721"/>
      <point x="325" y="688"/>
      <point x="367" y="655"/>
      <point x="387" y="655" type="qcurve" smooth="yes"/>
      <point x="423" y="655"/>
      <point x="437" y="712" type="qcurve"/>
      <point x="495" y="701" type="line"/>
      <point x="487" y="647"/>
      <point x="429" y="587"/>
    </contour>
    <contour>
      <point x="90" y="0" type="line"/>
      <point x="90" y="500" type="line"/>
      <point x="170" y="500" type="line"/>
      <point x="170" y="401" type="line"/>
      <point x="219" y="514"/>
      <point x="337" y="514" type="qcurve" smooth="yes"/>
      <point x="504" y="514"/>
      <point x="504" y="311" type="qcurve" smooth="yes"/>
      <point x="504" y="0" type="line"/>
      <point x="419" y="0" type="line"/>
      <point x="419" y="306" type="line" smooth="yes"/>
      <point x="419" y="439"/>
      <point x="309" y="439" type="qcurve" smooth="yes"/>
      <point x="247" y="439"/>
      <point x="175" y="344"/>
      <point x="175" y="261" type="qcurve" smooth="yes"/>
      <point x="175" y="0" type="line"/>
    </contour>
  </outline>
</glyph>
<glyph name="ocircumflex" format="2">
  <advance width="556"/>
  <unicode hex="00F4"/>
  <anchor x="278" y="723" name="Anchor-8"/>
  <anchor x="355" y="0" name="Anchor-7"/>
  <anchor x="278" y="0" name="Anchor-6"/>
  <outline>
    <contour>
      <point x="430" y="580" type="line"/>
      <point x="351" y="580" type="line"/>
      <point x="278" y="680" type="line"/>
      <point x="205" y="580" type="line"/>
      <point x="126" y="580" type="line"/>
      <point x="234" y="723" type="line"/>
      <point x="322" y="723" type="line"/>
    </contour>
    <contour>
      <point x="172" y="-12"/>
      <point x="45" y="129"/>
      <point x="45" y="371"/>
      <point x="172" y="512"/>
      <point x="384" y="512"/>
      <point x="511" y="371"/>
      <point x="511" y="129"/>
      <point x="384" y="-12"/>
    </contour>
    <contour>
      <point x="346" y="62"/>
      <point x="421" y="158"/>
      <point x="421" y="342"/>
      <point x="346" y="438"/>
      <point x="210" y="438"/>
      <point x="135" y="342"/>
      <point x="135" y="158"/>
      <point x="210" y="62"/>
    </contour>
  </outline>
</glyph>
<glyph name="otilde" format="2">
  <advance width="556"/>
  <unicode hex="00F5"/>
  <anchor x="278" y="722" name="Anchor-8"/>
  <anchor x="355" y="0" name="Anchor-7"/>
  <anchor x="278" y="0" name="Anchor-6"/>
  <outline>
    <contour>
      <point x="349" y="587" type="qcurve" smooth="yes"/>
      <point x="317" y="587"/>
      <point x="266" y="620"/>
      <point x="224" y="653"/>
      <point x="204" y="653" type="qcurve" smooth="yes"/>
      <point x="185" y="653"/>
      <point x="162" y="626"/>
      <point x="154" y="596" type="qcurve"/>
      <point x="96" y="607" type="line"/>
      <point x="104" y="661"/>
      <point x="162" y="721"/>
      <point x="207" y="721" type="qcurve" smooth="yes"/>
      <point x="239" y="721"/>
      <point x="290" y="688"/>
      <point x="332" y="655"/>
      <point x="352" y="655" type="qcurve" smooth="yes"/>
      <point x="388" y="655"/>
      <point x="402" y="712" type="qcurve"/>
      <point x="460" y="701" type="line"/>
      <point x="452" y="647"/>
      <point x="394" y="587"/>
    </contour>
    <contour>
      <point x="172" y="-12"/>
      <point x="45" y="129"/>
      <point x="45" y="371"/>
      <point x="172" y="512"/>
      <point x="384" y="512"/>
      <point x="511" y="371"/>
      <point x="511" y="129"/>
      <point x="384" y="-12"/>
    </contour>
    <contour>
      <point x="346" y="62"/>
      <point x="421" y="158"/>
      <point x="421" y="342"/>
      <point x="346" y="438"/>
      <point x="210" y="438"/>
      <point x="135" y="342"/>
      <point x="135" y="158"/>
      <point x="210" y="62"/>
    </contour>
  </outline>
</glyph>
<glyph name="divide" format="2">
  <advance width="570"/>
  <unicode hex="00F7"/>
  <outline>
    <contour>
      <point x="260" y="462"/>
      <point x="231" y="491"/>
      <point x="231" y="537"/>
      <point x="260" y="566"/>
      <point x="306" y="566"/>
      <point x="335" y="538"/>
      <point x="335" y="514" type="qcurve" smooth="yes"/>
      <point x="335" y="491"/>
      <point x="306" y="462"/>
    </contour>
    <contour>
      <point x="50" y="288" type="line"/>
      <point x="50" y="364" type="line"/>
      <point x="520" y="364" type="line"/>
      <point x="520" y="288" type="line"/>
    </contour>
    <contour>
      <point x="260" y="86"/>
      <point x="231" y="115"/>
      <point x="231" y="161"/>
      <point x="260" y="190"/>
      <point x="306" y="190"/>
      <point x="335" y="162"/>
      <point x="335" y="138" type="qcurve" smooth="yes"/>
      <point x="335" y="115"/>
      <point x="306" y="86"/>
    </contour>
  </outline>
</glyph>
<glyph name="oslash" format="2">
  <advance width="556"/>
  <unicode hex="00F8"/>
  <anchor x="283" y="500" name="Anchor-8"/>
  <anchor x="355" y="0" name="Anchor-7"/>
  <anchor x="278" y="0" name="Anchor-6"/>
  <outline>
    <contour>
      <point x="456" y="432" type="line"/>
      <point x="511" y="361"/>
      <point x="511" y="250" type="qcurve" smooth="yes"/>
      <point x="511" y="129"/>
      <point x="384" y="-12"/>
      <point x="278" y="-12" type="qcurve" smooth="yes"/>
      <point x="195" y="-12"/>
      <point x="137" y="32" type="qcurve"/>
      <point x="101" y="-14" type="line"/>
      <point x="58" y="17" type="line"/>
      <point x="99" y="69" type="line"/>
      <point x="45" y="139"/>
      <point x="45" y="250" type="qcurve" smooth="yes"/>
      <point x="45" y="371"/>
      <point x="172" y="512"/>
      <point x="278" y="512" type="qcurve" smooth="yes"/>
      <point x="360" y="512"/>
      <point x="417" y="469" type="qcurve"/>
      <point x="453" y="514" type="line"/>
      <point x="497" y="483" type="line"/>
    </contour>
    <contour>
      <point x="135" y="250" type="qcurve" smooth="yes"/>
      <point x="135" y="184"/>
      <point x="155" y="139" type="qcurve"/>
      <point x="368" y="407" type="line"/>
      <point x="334" y="438"/>
      <point x="278" y="438" type="qcurve" smooth="yes"/>
      <point x="210" y="438"/>
      <point x="135" y="342"/>
    </contour>
    <contour>
      <point x="278" y="62" type="qcurve" smooth="yes"/>
      <point x="346" y="62"/>
      <point x="421" y="158"/>
      <point x="421" y="250" type="qcurve" smooth="yes"/>
      <point x="421" y="318"/>
      <point x="400" y="362" type="qcurve"/>
      <point x="187" y="94" type="line"/>
      <point x="222" y="62"/>
    </contour>
  </outline>
</glyph>
<glyph name="uacute" format="2">
  <advance width="571"/>
  <unicode hex="00FA"/>
  <anchor x="385" y="723" name="Anchor-8"/>
  <anchor x="401" y="0" name="Anchor-7"/>
  <anchor x="286" y="0" name="Anchor-6"/>
  <outline>
    <contour>
      <point x="241" y="580" type="line"/>
      <point x="333" y="723" type="line"/>
      <point x="437" y="723" type="line"/>
      <point x="319" y="580" type="line"/>
    </contour>
    <contour>
      <point x="246" y="-12" type="qcurve" smooth="yes"/>
      <point x="75" y="-12"/>
      <point x="75" y="181" type="qcurve" smooth="yes"/>
      <point x="75" y="500" type="line"/>
      <point x="160" y="500" type="line"/>
      <point x="160" y="191" type="line" smooth="yes"/>
      <point x="160" y="128"/>
      <point x="213" y="61"/>
      <point x="262" y="61" type="qcurve" smooth="yes"/>
      <point x="322" y="61"/>
      <point x="396" y="155"/>
      <point x="396" y="231" type="qcurve" smooth="yes"/>
      <point x="396" y="500" type="line"/>
      <point x="481" y="500" type="line"/>
      <point x="481" y="0" type="line"/>
      <point x="401" y="0" type="line"/>
      <point x="401" y="94" type="line"/>
      <point x="384" y="48"/>
      <point x="298" y="-12"/>
    </contour>
  </outline>
</glyph>
<glyph name="yacute" format="2">
  <advance width="487"/>
  <unicode hex="00FD"/>
  <anchor x="351" y="723" name="Anchor-8"/>
  <anchor x="0" y="0" name="Anchor-7"/>
  <anchor x="244" y="0" name="Anchor-6"/>
  <outline>
    <contour>
      <point x="207" y="580" type="line"/>
      <point x="299" y="723" type="line"/>
      <point x="403" y="723" type="line"/>
      <point x="285" y="580" type="line"/>
    </contour>
    <contour>
      <point x="92" y="-201" type="qcurve" smooth="yes"/>
      <point x="67" y="-201"/>
      <point x="46" y="-197" type="qcurve"/>
      <point x="46" y="-122" type="line"/>
      <point x="72" y="-124"/>
      <point x="82" y="-124" type="qcurve" smooth="yes"/>
      <point x="127" y="-124"/>
      <point x="179" y="-81"/>
      <point x="196" y="-31" type="qcurve" smooth="yes"/>
      <point x="209" y="6" type="line"/>
      <point x="10" y="500" type="line"/>
      <point x="105" y="500" type="line"/>
      <point x="233" y="152" type="line" smooth="yes"/>
      <point x="244" y="122"/>
      <point x="250" y="93" type="qcurve"/>
      <point x="252" y="93" type="line"/>
      <point x="256" y="111"/>
      <point x="269" y="152" type="qcurve" smooth="yes"/>
      <point x="385" y="500" type="line"/>
      <point x="477" y="500" type="line"/>
      <point x="282" y="-32" type="line" smooth="yes"/>
      <point x="249" y="-124"/>
      <point x="158" y="-201"/>
    </contour>
  </outline>
</glyph>
<glyph name="thorn" format="2">
  <advance width="585"/>
  <unicode hex="00FE"/>
  <outline>
    <contour>
      <point x="95" y="-195" type="line"/>
      <point x="95" y="725" type="line"/>
      <point x="180" y="725" type="line"/>
      <point x="180" y="417" type="line"/>
      <point x="231" y="512"/>
      <point x="338" y="512" type="qcurve" smooth="yes"/>
      <point x="430" y="512"/>
      <point x="540" y="362"/>
      <point x="540" y="138"/>
      <point x="430" y="-12"/>
      <point x="338" y="-12" type="qcurve" smooth="yes"/>
      <point x="232" y="-12"/>
      <point x="180" y="73" type="qcurve"/>
      <point x="180" y="-195" type="line"/>
    </contour>
    <contour>
      <point x="315" y="63" type="qcurve" smooth="yes"/>
      <point x="377" y="63"/>
      <point x="450" y="170"/>
      <point x="450" y="330"/>
      <point x="377" y="437"/>
      <point x="315" y="437" type="qcurve" smooth="yes"/>
      <point x="250" y="437"/>
      <point x="178" y="345"/>
      <point x="178" y="265" type="qcurve" smooth="yes"/>
      <point x="178" y="237" type="line" smooth="yes"/>
      <point x="178" y="156"/>
      <point x="250" y="63"/>
    </contour>
  </outline>
</glyph>
<glyph name="Abreve" format="2">
  <advance width="672"/>
  <unicode hex="0102"/>
  <anchor x="336" y="884" name="Anchor-8"/>
  <anchor x="554" y="0" name="Anchor-7"/>
  <anchor x="336" y="0" name="Anchor-6"/>
  <outline>
    <contour>
      <point x="268" y="748"/>
      <point x="191" y="807"/>
      <point x="186" y="861" type="qcurve"/>
      <point x="258" y="861" type="line"/>
      <point x="267" y="806"/>
      <point x="405" y="806"/>
      <point x="414" y="861" type="qcurve"/>
      <point x="486" y="861" type="line"/>
      <point x="481" y="807"/>
      <point x="404" y="748"/>
    </contour>
    <contour>
      <point x="554" y="0" type="line"/>
      <point x="481" y="205" type="line"/>
      <point x="191" y="205" type="line"/>
      <point x="118" y="0" type="line"/>
      <point x="20" y="0" type="line"/>
      <point x="289" y="710" type="line"/>
      <point x="383" y="710" type="line"/>
      <point x="652" y="0" type="line"/>
    </contour>
    <contour>
      <point x="219" y="285" type="line"/>
      <point x="453" y="285" type="line"/>
      <point x="354" y="562" type="line" smooth="yes"/>
      <point x="343" y="592"/>
      <point x="337" y="616" type="qcurve"/>
      <point x="335" y="616" type="line"/>
      <point x="329" y="592"/>
      <point x="318" y="562" type="qcurve" smooth="yes"/>
    </contour>
  </outline>
</glyph>
<glyph name="abreve" format="2">
  <advance width="539"/>
  <unicode hex="0103"/>
  <anchor x="267" y="723" name="Anchor-8"/>
  <anchor x="390" y="0" name="Anchor-7"/>
  <anchor x="270" y="0" name="Anchor-6"/>
  <outline>
    <contour>
      <point x="189" y="723" type="line"/>
      <point x="191" y="679"/>
      <point x="233" y="636"/>
      <point x="301" y="636"/>
      <point x="343" y="679"/>
      <point x="345" y="723" type="qcurve"/>
      <point x="417" y="723" type="line"/>
      <point x="414" y="647"/>
      <point x="331" y="575"/>
      <point x="203" y="575"/>
      <point x="120" y="647"/>
      <point x="117" y="723" type="qcurve"/>
    </contour>
    <contour>
      <point x="214" y="-12" type="qcurve" smooth="yes"/>
      <point x="137" y="-12"/>
      <point x="45" y="68"/>
      <point x="45" y="135" type="qcurve" smooth="yes"/>
      <point x="45" y="214"/>
      <point x="115" y="253" type="qcurve" smooth="yes"/>
      <point x="169" y="280"/>
      <point x="283" y="294" type="qcurve" smooth="yes"/>
      <point x="376" y="305" type="line"/>
      <point x="376" y="313" type="line" smooth="yes"/>
      <point x="376" y="382"/>
      <point x="324" y="442"/>
      <point x="266" y="442" type="qcurve" smooth="yes"/>
      <point x="215" y="442"/>
      <point x="155" y="390"/>
      <point x="152" y="343" type="qcurve"/>
      <point x="61" y="343" type="line"/>
      <point x="66" y="420"/>
      <point x="177" y="512"/>
      <point x="265" y="512" type="qcurve" smooth="yes"/>
      <point x="368" y="512"/>
      <point x="462" y="413"/>
      <point x="462" y="304" type="qcurve" smooth="yes"/>
      <point x="462" y="169" type="line" smooth="yes"/>
      <point x="462" y="55"/>
      <point x="479" y="0" type="qcurve"/>
      <point x="390" y="0" type="line"/>
      <point x="384" y="42"/>
      <point x="382" y="91" type="qcurve"/>
      <point x="365" y="43"/>
      <point x="275" y="-12"/>
    </contour>
    <contour>
      <point x="233" y="58" type="qcurve" smooth="yes"/>
      <point x="298" y="58"/>
      <point x="377" y="145"/>
      <point x="377" y="218" type="qcurve" smooth="yes"/>
      <point x="377" y="243" type="line"/>
      <point x="241" y="223" type="line" smooth="yes"/>
      <point x="186" y="215"/>
      <point x="135" y="174"/>
      <point x="135" y="100"/>
      <point x="187" y="58"/>
    </contour>
  </outline>
</glyph>
<glyph name="Aogonek" format="2">
  <advance width="672"/>
  <unicode hex="0104"/>
  <anchor x="336" y="710" name="Anchor-8"/>
  <anchor x="554" y="0" name="Anchor-7"/>
  <anchor x="336" y="0" name="Anchor-6"/>
  <outline>
    <contour>
      <point x="611" y="-101" type="qcurve"/>
      <point x="670" y="-109" type="line"/>
      <point x="654" y="-203"/>
      <point x="564" y="-203" type="qcurve" smooth="yes"/>
      <point x="517" y="-203"/>
      <point x="463" y="-156"/>
      <point x="463" y="-116" type="qcurve" smooth="yes"/>
      <point x="463" y="-42"/>
      <point x="554" y="0" type="qcurve"/>
      <point x="481" y="205" type="line"/>
      <point x="191" y="205" type="line"/>
      <point x="118" y="0" type="line"/>
      <point x="20" y="0" type="line"/>
      <point x="289" y="710" type="line"/>
      <point x="383" y="710" type="line"/>
      <point x="652" y="0" type="line"/>
      <point x="634" y="0" type="line"/>
      <point x="579" y="-18"/>
      <point x="527" y="-76"/>
      <point x="527" y="-108" type="qcurve" smooth="yes"/>
      <point x="527" y="-149"/>
      <point x="567" y="-149" type="qcurve" smooth="yes"/>
      <point x="602" y="-149"/>
    </contour>
    <contour>
      <point x="219" y="285" type="line"/>
      <point x="453" y="285" type="line"/>
      <point x="354" y="562" type="line" smooth="yes"/>
      <point x="343" y="592"/>
      <point x="337" y="616" type="qcurve"/>
      <point x="335" y="616" type="line"/>
      <point x="329" y="592"/>
      <point x="318" y="562" type="qcurve" smooth="yes"/>
    </contour>
  </outline>
</glyph>
<glyph name="aogonek" format="2">
  <advance width="539"/>
  <unicode hex="0105"/>
  <anchor x="267" y="500" name="Anchor-8"/>
  <anchor x="390" y="0" name="Anchor-7"/>
  <anchor x="270" y="0" name="Anchor-6"/>
  <outline>
    <contour>
      <point x="447" y="-101" type="qcurve"/>
      <point x="506" y="-109" type="line"/>
      <point x="490" y="-203"/>
      <point x="400" y="-203" type="qcurve" smooth="yes"/>
      <point x="353" y="-203"/>
      <point x="299" y="-156"/>
      <point x="299" y="-116" type="qcurve" smooth="yes"/>
      <point x="299" y="-42"/>
      <point x="390" y="0" type="qcurve"/>
      <point x="384" y="42"/>
      <point x="382" y="91" type="qcurve"/>
      <point x="365" y="43"/>
      <point x="275" y="-12"/>
      <point x="214" y="-12" type="qcurve" smooth="yes"/>
      <point x="137" y="-12"/>
      <point x="45" y="68"/>
      <point x="45" y="135" type="qcurve" smooth="yes"/>
      <point x="45" y="214"/>
      <point x="115" y="253" type="qcurve" smooth="yes"/>
      <point x="169" y="280"/>
      <point x="283" y="294" type="qcurve" smooth="yes"/>
      <point x="376" y="305" type="line"/>
      <point x="376" y="313" type="line" smooth="yes"/>
      <point x="376" y="382"/>
      <point x="324" y="442"/>
      <point x="266" y="442" type="qcurve" smooth="yes"/>
      <point x="215" y="442"/>
      <point x="155" y="390"/>
      <point x="152" y="343" type="qcurve"/>
      <point x="61" y="343" type="line"/>
      <point x="66" y="420"/>
      <point x="177" y="512"/>
      <point x="265" y="512" type="qcurve" smooth="yes"/>
      <point x="368" y="512"/>
      <point x="462" y="413"/>
      <point x="462" y="304" type="qcurve" smooth="yes"/>
      <point x="462" y="169" type="line" smooth="yes"/>
      <point x="462" y="55"/>
      <point x="479" y="0" type="qcurve"/>
      <point x="470" y="0" type="line"/>
      <point x="415" y="-18"/>
      <point x="363" y="-76"/>
      <point x="363" y="-108" type="qcurve" smooth="yes"/>
      <point x="363" y="-149"/>
      <point x="403" y="-149" type="qcurve" smooth="yes"/>
      <point x="438" y="-149"/>
    </contour>
    <contour>
      <point x="377" y="218" type="qcurve" smooth="yes"/>
      <point x="377" y="243" type="line"/>
      <point x="241" y="223" type="line" smooth="yes"/>
      <point x="186" y="215"/>
      <point x="135" y="174"/>
      <point x="135" y="100"/>
      <point x="187" y="58"/>
      <point x="233" y="58" type="qcurve" smooth="yes"/>
      <point x="298" y="58"/>
      <point x="377" y="145"/>
    </contour>
  </outline>
</glyph>
<glyph name="Ccircumflex" format="2">
  <advance width="694"/>
  <unicode hex="0108"/>
  <anchor x="367" y="861" name="Anchor-8"/>
  <anchor x="0" y="0" name="Anchor-7"/>
  <anchor x="372" y="0" name="Anchor-6"/>
  <outline>
    <contour>
      <point x="517" y="753" type="line"/>
      <point x="431" y="753" type="line"/>
      <point x="367" y="825" type="line"/>
      <point x="303" y="753" type="line"/>
      <point x="217" y="753" type="line"/>
      <point x="314" y="861" type="line"/>
      <point x="420" y="861" type="line"/>
    </contour>
    <contour>
      <point x="365" y="-17" type="qcurve" smooth="yes"/>
      <point x="208" y="-17"/>
      <point x="45" y="193"/>
      <point x="45" y="357" type="qcurve" smooth="yes"/>
      <point x="45" y="525"/>
      <point x="213" y="727"/>
      <point x="368" y="727" type="qcurve" smooth="yes"/>
      <point x="493" y="727"/>
      <point x="635" y="593"/>
      <point x="649" y="478" type="qcurve"/>
      <point x="552" y="468" type="line"/>
      <point x="541" y="550"/>
      <point x="444" y="646"/>
      <point x="363" y="646" type="qcurve" smooth="yes"/>
      <point x="260" y="646"/>
      <point x="145" y="489"/>
      <point x="145" y="358" type="qcurve" smooth="yes"/>
      <point x="145" y="229"/>
      <point x="260" y="66"/>
      <point x="365" y="66" type="qcurve" smooth="yes"/>
      <point x="440" y="66"/>
      <point x="542" y="159"/>
      <point x="557" y="239" type="qcurve"/>
      <point x="649" y="223" type="line"/>
      <point x="627" y="115"/>
      <point x="486" y="-17"/>
    </contour>
  </outline>
</glyph>
<glyph name="cdotaccent" format="2">
  <advance width="526"/>
  <unicode hex="010B"/>
  <anchor x="261" y="710" name="Anchor-8"/>
  <anchor x="0" y="0" name="Anchor-7"/>
  <anchor x="283" y="0" name="Anchor-6"/>
  <outline>
    <contour>
      <point x="212" y="593" type="line"/>
      <point x="212" y="700" type="line"/>
      <point x="309" y="700" type="line"/>
      <point x="309" y="593" type="line"/>
    </contour>
    <contour>
      <point x="275" y="-12" type="qcurve" smooth="yes"/>
      <point x="170" y="-12"/>
      <point x="45" y="130"/>
      <point x="45" y="250" type="qcurve" smooth="yes"/>
      <point x="45" y="372"/>
      <point x="168" y="512"/>
      <point x="275" y="512" type="qcurve" smooth="yes"/>
      <point x="363" y="512"/>
      <point x="471" y="416"/>
      <point x="481" y="330" type="qcurve"/>
      <point x="394" y="320" type="line"/>
      <point x="387" y="377"/>
      <point x="324" y="438"/>
      <point x="273" y="438" type="qcurve" smooth="yes"/>
      <point x="208" y="438"/>
      <point x="135" y="339"/>
      <point x="135" y="251" type="qcurve" smooth="yes"/>
      <point x="135" y="161"/>
      <point x="209" y="62"/>
      <point x="276" y="62" type="qcurve" smooth="yes"/>
      <point x="379" y="62"/>
      <point x="399" y="181" type="qcurve"/>
      <point x="480" y="168" type="line"/>
      <point x="466" y="82"/>
      <point x="359" y="-12"/>
    </contour>
  </outline>
</glyph>
<glyph name="ccaron" format="2">
  <advance width="526"/>
  <unicode hex="010D"/>
  <anchor x="261" y="723" name="Anchor-8"/>
  <anchor x="0" y="0" name="Anchor-7"/>
  <anchor x="283" y="0" name="Anchor-6"/>
  <outline>
    <contour>
      <point x="109" y="718" type="line"/>
      <point x="188" y="718" type="line"/>
      <point x="261" y="618" type="line"/>
      <point x="334" y="718" type="line"/>
      <point x="413" y="718" type="line"/>
      <point x="305" y="575" type="line"/>
      <point x="217" y="575" type="line"/>
    </contour>
    <contour>
      <point x="275" y="-12" type="qcurve" smooth="yes"/>
      <point x="170" y="-12"/>
      <point x="45" y="130"/>
      <point x="45" y="250" type="qcurve" smooth="yes"/>
      <point x="45" y="372"/>
      <point x="168" y="512"/>
      <point x="275" y="512" type="qcurve" smooth="yes"/>
      <point x="363" y="512"/>
      <point x="471" y="416"/>
      <point x="481" y="330" type="qcurve"/>
      <point x="394" y="320" type="line"/>
      <point x="387" y="377"/>
      <point x="324" y="438"/>
      <point x="273" y="438" type="qcurve" smooth="yes"/>
      <point x="208" y="438"/>
      <point x="135" y="339"/>
      <point x="135" y="251" type="qcurve" smooth="yes"/>
      <point x="135" y="161"/>
      <point x="209" y="62"/>
      <point x="276" y="62" type="qcurve" smooth="yes"/>
      <point x="379" y="62"/>
      <point x="399" y="181" type="qcurve"/>
      <point x="480" y="168" type="line"/>
      <point x="466" y="82"/>
      <point x="359" y="-12"/>
    </contour>
  </outline>
</glyph>
<glyph name="Dcaron" format="2">
  <advance width="715"/>
  <unicode hex="010E"/>
  <anchor x="338" y="856" name="Anchor-8"/>
  <anchor x="0" y="0" name="Anchor-7"/>
  <anchor x="358" y="0" name="Anchor-6"/>
  <outline>
    <contour>
      <point x="488" y="856" type="line"/>
      <point x="391" y="748" type="line"/>
      <point x="285" y="748" type="line"/>
      <point x="188" y="856" type="line"/>
      <point x="274" y="856" type="line"/>
      <point x="338" y="784" type="line"/>
      <point x="402" y="856" type="line"/>
    </contour>
    <contour>
      <point x="100" y="0" type="line"/>
      <point x="100" y="710" type="line"/>
      <point x="333" y="710" type="line" smooth="yes"/>
      <point x="485" y="710"/>
      <point x="670" y="515"/>
      <point x="670" y="356" type="qcurve" smooth="yes"/>
      <point x="670" y="199"/>
      <point x="485" y="0"/>
      <point x="331" y="0" type="qcurve" smooth="yes"/>
    </contour>
    <contour>
      <point x="195" y="80" type="line"/>
      <point x="329" y="80" type="line" smooth="yes"/>
      <point x="440" y="80"/>
      <point x="569" y="238"/>
      <point x="569" y="356" type="qcurve" smooth="yes"/>
      <point x="569" y="478"/>
      <point x="443" y="630"/>
      <point x="331" y="630" type="qcurve" smooth="yes"/>
      <point x="195" y="630" type="line"/>
    </contour>
  </outline>
</glyph>
<glyph name="Dcroat" format="2">
  <advance width="715"/>
  <unicode hex="0110"/>
  <anchor x="338" y="710" name="Anchor-8"/>
  <anchor x="0" y="0" name="Anchor-7"/>
  <anchor x="358" y="0" name="Anchor-6"/>
  <outline>
    <contour>
      <point x="333" y="710" type="line" smooth="yes"/>
      <point x="485" y="710"/>
      <point x="670" y="515"/>
      <point x="670" y="356" type="qcurve" smooth="yes"/>
      <point x="670" y="199"/>
      <point x="485" y="0"/>
      <point x="331" y="0" type="qcurve" smooth="yes"/>
      <point x="100" y="0" type="line"/>
      <point x="100" y="335" type="line"/>
      <point x="14" y="335" type="line"/>
      <point x="14" y="407" type="line"/>
      <point x="100" y="407" type="line"/>
      <point x="100" y="710" type="line"/>
    </contour>
    <contour>
      <point x="329" y="80" type="line" smooth="yes"/>
      <point x="440" y="80"/>
      <point x="569" y="238"/>
      <point x="569" y="356" type="qcurve" smooth="yes"/>
      <point x="569" y="478"/>
      <point x="443" y="630"/>
      <point x="331" y="630" type="qcurve" smooth="yes"/>
      <point x="195" y="630" type="line"/>
      <point x="195" y="407" type="line"/>
      <point x="370" y="407" type="line"/>
      <point x="370" y="335" type="line"/>
      <point x="195" y="335" type="line"/>
      <point x="195" y="80" type="line"/>
    </contour>
  </outline>
</glyph>
<glyph name="Ebreve" format="2">
  <advance width="612"/>
  <unicode hex="0114"/>
  <anchor x="326" y="884" name="Anchor-8"/>
  <anchor x="467" y="0" name="Anchor-7"/>
  <anchor x="306" y="0" name="Anchor-6"/>
  <outline>
    <contour>
      <point x="258" y="748"/>
      <point x="181" y="807"/>
      <point x="176" y="861" type="qcurve"/>
      <point x="248" y="861" type="line"/>
      <point x="257" y="806"/>
      <point x="395" y="806"/>
      <point x="404" y="861" type="qcurve"/>
      <point x="476" y="861" type="line"/>
      <point x="471" y="807"/>
      <point x="394" y="748"/>
    </contour>
    <contour>
      <point x="195" y="80" type="line"/>
      <point x="547" y="80" type="line"/>
      <point x="547" y="0" type="line"/>
      <point x="100" y="0" type="line"/>
      <point x="100" y="710" type="line"/>
      <point x="540" y="710" type="line"/>
      <point x="540" y="630" type="line"/>
      <point x="195" y="630" type="line"/>
      <point x="195" y="404" type="line"/>
      <point x="523" y="404" type="line"/>
      <point x="523" y="324" type="line"/>
      <point x="195" y="324" type="line"/>
    </contour>
  </outline>
</glyph>
<glyph name="ebreve" format="2">
  <advance width="535"/>
  <unicode hex="0115"/>
  <anchor x="265" y="723" name="Anchor-8"/>
  <anchor x="272" y="0" name="Anchor-7"/>
  <anchor x="265" y="0" name="Anchor-6"/>
  <outline>
    <contour>
      <point x="201" y="575"/>
      <point x="118" y="647"/>
      <point x="115" y="723" type="qcurve"/>
      <point x="187" y="723" type="line"/>
      <point x="189" y="679"/>
      <point x="231" y="636"/>
      <point x="299" y="636"/>
      <point x="341" y="679"/>
      <point x="343" y="723" type="qcurve"/>
      <point x="415" y="723" type="line"/>
      <point x="412" y="647"/>
      <point x="329" y="575"/>
    </contour>
    <contour>
      <point x="485" y="285" type="qcurve" smooth="yes"/>
      <point x="485" y="225" type="line"/>
      <point x="130" y="225" type="line"/>
      <point x="131" y="152"/>
      <point x="212" y="63"/>
      <point x="279" y="63" type="qcurve" smooth="yes"/>
      <point x="378" y="63"/>
      <point x="412" y="158" type="qcurve"/>
      <point x="482" y="127" type="line"/>
      <point x="429" y="-12"/>
      <point x="273" y="-12" type="qcurve" smooth="yes"/>
      <point x="165" y="-12"/>
      <point x="45" y="121"/>
      <point x="45" y="244" type="qcurve" smooth="yes"/>
      <point x="45" y="370"/>
      <point x="165" y="512"/>
      <point x="272" y="512" type="qcurve" smooth="yes"/>
      <point x="374" y="512"/>
      <point x="485" y="396"/>
    </contour>
    <contour>
      <point x="399" y="294" type="line"/>
      <point x="399" y="305" type="line" smooth="yes"/>
      <point x="399" y="373"/>
      <point x="332" y="445"/>
      <point x="270" y="445" type="qcurve" smooth="yes"/>
      <point x="205" y="445"/>
      <point x="132" y="365"/>
      <point x="130" y="294" type="qcurve"/>
    </contour>
  </outline>
</glyph>
<glyph name="Eogonek" format="2">
  <advance width="612"/>
  <unicode hex="0118"/>
  <anchor x="326" y="710" name="Anchor-8"/>
  <anchor x="467" y="0" name="Anchor-7"/>
  <anchor x="306" y="0" name="Anchor-6"/>
  <outline>
    <contour>
      <point x="524" y="-101" type="qcurve"/>
      <point x="583" y="-109" type="line"/>
      <point x="567" y="-203"/>
      <point x="477" y="-203" type="qcurve" smooth="yes"/>
      <point x="430" y="-203"/>
      <point x="376" y="-156"/>
      <point x="376" y="-116" type="qcurve" smooth="yes"/>
      <point x="376" y="-42"/>
      <point x="467" y="0" type="qcurve"/>
      <point x="100" y="0" type="line"/>
      <point x="100" y="710" type="line"/>
      <point x="540" y="710" type="line"/>
      <point x="540" y="630" type="line"/>
      <point x="195" y="630" type="line"/>
      <point x="195" y="404" type="line"/>
      <point x="523" y="404" type="line"/>
      <point x="523" y="324" type="line"/>
      <point x="195" y="324" type="line"/>
      <point x="195" y="80" type="line"/>
      <point x="547" y="80" type="line"/>
      <point x="547" y="0" type="line"/>
      <point x="492" y="-18"/>
      <point x="440" y="-76"/>
      <point x="440" y="-108" type="qcurve" smooth="yes"/>
      <point x="440" y="-149"/>
      <point x="480" y="-149" type="qcurve" smooth="yes"/>
      <point x="515" y="-149"/>
    </contour>
  </outline>
</glyph>
<glyph name="eogonek" format="2">
  <advance width="535"/>
  <unicode hex="0119"/>
  <anchor x="265" y="500" name="Anchor-8"/>
  <anchor x="272" y="0" name="Anchor-7"/>
  <anchor x="265" y="0" name="Anchor-6"/>
  <outline>
    <contour>
      <point x="485" y="285" type="qcurve" smooth="yes"/>
      <point x="485" y="225" type="line"/>
      <point x="130" y="225" type="line"/>
      <point x="131" y="152"/>
      <point x="212" y="63"/>
      <point x="279" y="63" type="qcurve" smooth="yes"/>
      <point x="378" y="63"/>
      <point x="412" y="158" type="qcurve"/>
      <point x="482" y="127" type="line"/>
      <point x="441" y="23"/>
      <point x="341" y="-4" type="qcurve"/>
      <point x="245" y="-38"/>
      <point x="245" y="-108" type="qcurve" smooth="yes"/>
      <point x="245" y="-149"/>
      <point x="285" y="-149" type="qcurve" smooth="yes"/>
      <point x="320" y="-149"/>
      <point x="329" y="-101" type="qcurve"/>
      <point x="388" y="-109" type="line"/>
      <point x="372" y="-203"/>
      <point x="282" y="-203" type="qcurve" smooth="yes"/>
      <point x="235" y="-203"/>
      <point x="181" y="-156"/>
      <point x="181" y="-116" type="qcurve" smooth="yes"/>
      <point x="181" y="-52"/>
      <point x="251" y="-11" type="qcurve"/>
      <point x="153" y="-4"/>
      <point x="45" y="128"/>
      <point x="45" y="244" type="qcurve" smooth="yes"/>
      <point x="45" y="370"/>
      <point x="165" y="512"/>
      <point x="272" y="512" type="qcurve" smooth="yes"/>
      <point x="374" y="512"/>
      <point x="485" y="396"/>
    </contour>
    <contour>
      <point x="399" y="294" type="line"/>
      <point x="399" y="305" type="line" smooth="yes"/>
      <point x="399" y="373"/>
      <point x="332" y="445"/>
      <point x="270" y="445" type="qcurve" smooth="yes"/>
      <point x="205" y="445"/>
      <point x="132" y="365"/>
      <point x="130" y="294" type="qcurve"/>
    </contour>
  </outline>
</glyph>
<glyph name="Ecaron" format="2">
  <advance width="612"/>
  <unicode hex="011A"/>
  <anchor x="326" y="856" name="Anchor-8"/>
  <anchor x="467" y="0" name="Anchor-7"/>
  <anchor x="306" y="0" name="Anchor-6"/>
  <outline>
    <contour>
      <point x="379" y="748" type="line"/>
      <point x="273" y="748" type="line"/>
      <point x="176" y="856" type="line"/>
      <point x="262" y="856" type="line"/>
      <point x="326" y="784" type="line"/>
      <point x="390" y="856" type="line"/>
      <point x="476" y="856" type="line"/>
    </contour>
    <contour>
      <point x="195" y="80" type="line"/>
      <point x="547" y="80" type="line"/>
      <point x="547" y="0" type="line"/>
      <point x="100" y="0" type="line"/>
      <point x="100" y="710" type="line"/>
      <point x="540" y="710" type="line"/>
      <point x="540" y="630" type="line"/>
      <point x="195" y="630" type="line"/>
      <point x="195" y="404" type="line"/>
      <point x="523" y="404" type="line"/>
      <point x="523" y="324" type="line"/>
      <point x="195" y="324" type="line"/>
    </contour>
  </outline>
</glyph>
<glyph name="ecaron" format="2">
  <advance width="535"/>
  <unicode hex="011B"/>
  <anchor x="265" y="723" name="Anchor-8"/>
  <anchor x="272" y="0" name="Anchor-7"/>
  <anchor x="265" y="0" name="Anchor-6"/>
  <outline>
    <contour>
      <point x="309" y="575" type="line"/>
      <point x="221" y="575" type="line"/>
      <point x="113" y="718" type="line"/>
      <point x="192" y="718" type="line"/>
      <point x="265" y="618" type="line"/>
      <point x="338" y="718" type="line"/>
      <point x="417" y="718" type="line"/>
    </contour>
    <contour>
      <point x="485" y="285" type="qcurve" smooth="yes"/>
      <point x="485" y="225" type="line"/>
      <point x="130" y="225" type="line"/>
      <point x="131" y="152"/>
      <point x="212" y="63"/>
      <point x="279" y="63" type="qcurve" smooth="yes"/>
      <point x="378" y="63"/>
      <point x="412" y="158" type="qcurve"/>
      <point x="482" y="127" type="line"/>
      <point x="429" y="-12"/>
      <point x="273" y="-12" type="qcurve" smooth="yes"/>
      <point x="165" y="-12"/>
      <point x="45" y="121"/>
      <point x="45" y="244" type="qcurve" smooth="yes"/>
      <point x="45" y="370"/>
      <point x="165" y="512"/>
      <point x="272" y="512" type="qcurve" smooth="yes"/>
      <point x="374" y="512"/>
      <point x="485" y="396"/>
    </contour>
    <contour>
      <point x="399" y="294" type="line"/>
      <point x="399" y="305" type="line" smooth="yes"/>
      <point x="399" y="373"/>
      <point x="332" y="445"/>
      <point x="270" y="445" type="qcurve" smooth="yes"/>
      <point x="205" y="445"/>
      <point x="132" y="365"/>
      <point x="130" y="294" type="qcurve"/>
    </contour>
  </outline>
</glyph>
<glyph name="Hcircumflex" format="2">
  <advance width="748"/>
  <unicode hex="0124"/>
  <anchor x="374" y="861" name="Anchor-8"/>
  <anchor x="0" y="0" name="Anchor-7"/>
  <anchor x="374" y="0" name="Anchor-6"/>
  <outline>
    <contour>
      <point x="524" y="753" type="line"/>
      <point x="438" y="753" type="line"/>
      <point x="374" y="825" type="line"/>
      <point x="310" y="753" type="line"/>
      <point x="224" y="753" type="line"/>
      <point x="321" y="861" type="line"/>
      <point x="427" y="861" type="line"/>
    </contour>
    <contour>
      <point x="648" y="710" type="line"/>
      <point x="648" y="0" type="line"/>
      <point x="553" y="0" type="line"/>
      <point x="553" y="323" type="line"/>
      <point x="195" y="323" type="line"/>
      <point x="195" y="0" type="line"/>
      <point x="100" y="0" type="line"/>
      <point x="100" y="710" type="line"/>
      <point x="195" y="710" type="line"/>
      <point x="195" y="403" type="line"/>
      <point x="553" y="403" type="line"/>
      <point x="553" y="710" type="line"/>
    </contour>
  </outline>
</glyph>
<glyph name="hcircumflex" format="2">
  <advance width="584"/>
  <unicode hex="0125"/>
  <anchor x="138" y="861" name="Anchor-8"/>
  <anchor x="0" y="0" name="Anchor-7"/>
  <anchor x="292" y="0" name="Anchor-6"/>
  <outline>
    <contour>
      <point x="288" y="753" type="line"/>
      <point x="202" y="753" type="line"/>
      <point x="138" y="825" type="line"/>
      <point x="74" y="753" type="line"/>
      <point x="-12" y="753" type="line"/>
      <point x="85" y="861" type="line"/>
      <point x="191" y="861" type="line"/>
    </contour>
    <contour>
      <point x="95" y="0" type="line"/>
      <point x="95" y="725" type="line"/>
      <point x="180" y="725" type="line"/>
      <point x="180" y="406" type="line"/>
      <point x="226" y="514"/>
      <point x="344" y="514" type="qcurve" smooth="yes"/>
      <point x="425" y="514"/>
      <point x="509" y="411"/>
      <point x="509" y="311" type="qcurve" smooth="yes"/>
      <point x="509" y="0" type="line"/>
      <point x="424" y="0" type="line"/>
      <point x="424" y="305" type="line" smooth="yes"/>
      <point x="424" y="439"/>
      <point x="315" y="439" type="qcurve" smooth="yes"/>
      <point x="251" y="439"/>
      <point x="180" y="346"/>
      <point x="180" y="261" type="qcurve" smooth="yes"/>
      <point x="180" y="0" type="line"/>
    </contour>
  </outline>
</glyph>
<glyph name="Hbar" format="2">
  <advance width="748"/>
  <unicode hex="0126"/>
  <anchor x="374" y="710" name="Anchor-8"/>
  <anchor x="0" y="0" name="Anchor-7"/>
  <anchor x="374" y="0" name="Anchor-6"/>
  <outline>
    <contour>
      <point x="722" y="579" type="line"/>
      <point x="722" y="520" type="line"/>
      <point x="648" y="520" type="line"/>
      <point x="648" y="0" type="line"/>
      <point x="553" y="0" type="line"/>
      <point x="553" y="323" type="line"/>
      <point x="195" y="323" type="line"/>
      <point x="195" y="0" type="line"/>
      <point x="100" y="0" type="line"/>
      <point x="100" y="520" type="line"/>
      <point x="26" y="520" type="line"/>
      <point x="26" y="579" type="line"/>
      <point x="100" y="579" type="line"/>
      <point x="100" y="710" type="line"/>
      <point x="195" y="710" type="line"/>
      <point x="195" y="579" type="line"/>
      <point x="553" y="579" type="line"/>
      <point x="553" y="710" type="line"/>
      <point x="648" y="710" type="line"/>
      <point x="648" y="579" type="line"/>
    </contour>
    <contour>
      <point x="553" y="403" type="line"/>
      <point x="553" y="520" type="line"/>
      <point x="195" y="520" type="line"/>
      <point x="195" y="403" type="line"/>
    </contour>
  </outline>
</glyph>
<glyph name="hbar" format="2">
  <advance width="568"/>
  <unicode hex="0127"/>
  <anchor x="138" y="710" name="Anchor-8"/>
  <anchor x="0" y="0" name="Anchor-7"/>
  <anchor x="292" y="0" name="Anchor-6"/>
  <outline>
    <contour>
      <point x="344" y="514" type="qcurve" smooth="yes"/>
      <point x="425" y="514"/>
      <point x="509" y="411"/>
      <point x="509" y="311" type="qcurve" smooth="yes"/>
      <point x="509" y="0" type="line"/>
      <point x="424" y="0" type="line"/>
      <point x="424" y="305" type="line" smooth="yes"/>
      <point x="424" y="439"/>
      <point x="315" y="439" type="qcurve" smooth="yes"/>
      <point x="251" y="439"/>
      <point x="180" y="346"/>
      <point x="180" y="261" type="qcurve" smooth="yes"/>
      <point x="180" y="0" type="line"/>
      <point x="95" y="0" type="line"/>
      <point x="95" y="579" type="line"/>
      <point x="0" y="579" type="line"/>
      <point x="0" y="630" type="line"/>
      <point x="95" y="630" type="line"/>
      <point x="95" y="725" type="line"/>
      <point x="180" y="725" type="line"/>
      <point x="180" y="630" type="line"/>
      <point x="383" y="630" type="line"/>
      <point x="383" y="579" type="line"/>
      <point x="180" y="579" type="line"/>
      <point x="180" y="406" type="line"/>
      <point x="226" y="514"/>
    </contour>
  </outline>
</glyph>
<glyph name="Itilde" format="2">
  <advance width="295"/>
  <unicode hex="0128"/>
  <anchor x="148" y="882" name="Anchor-8"/>
  <anchor x="100" y="0" name="Anchor-7"/>
  <anchor x="148" y="0" name="Anchor-6"/>
  <outline>
    <contour>
      <point x="202" y="748" type="qcurve" smooth="yes"/>
      <point x="171" y="748"/>
      <point x="110" y="797"/>
      <point x="96" y="797" type="qcurve" smooth="yes"/>
      <point x="74" y="797"/>
      <point x="71" y="760" type="qcurve"/>
      <point x="13" y="771" type="line"/>
      <point x="15" y="813"/>
      <point x="61" y="862"/>
      <point x="96" y="862" type="qcurve" smooth="yes"/>
      <point x="127" y="862"/>
      <point x="188" y="813"/>
      <point x="202" y="813" type="qcurve" smooth="yes"/>
      <point x="224" y="813"/>
      <point x="227" y="850" type="qcurve"/>
      <point x="285" y="839" type="line"/>
      <point x="283" y="797"/>
      <point x="237" y="748"/>
    </contour>
    <contour>
      <point x="195" y="0" type="line"/>
      <point x="100" y="0" type="line"/>
      <point x="100" y="710" type="line"/>
      <point x="195" y="710" type="line"/>
    </contour>
  </outline>
</glyph>
<glyph name="itilde" format="2">
  <advance width="265"/>
  <unicode hex="0129"/>
  <anchor x="140" y="721" name="Anchor-8"/>
  <anchor x="90" y="0" name="Anchor-7"/>
  <anchor x="133" y="0" name="Anchor-6"/>
  <outline>
    <contour>
      <point x="187" y="587" type="qcurve" smooth="yes"/>
      <point x="166" y="587"/>
      <point x="131" y="620"/>
      <point x="105" y="653"/>
      <point x="94" y="653" type="qcurve" smooth="yes"/>
      <point x="71" y="653"/>
      <point x="66" y="601" type="qcurve"/>
      <point x="8" y="612" type="line"/>
      <point x="20" y="721"/>
      <point x="93" y="721" type="qcurve" smooth="yes"/>
      <point x="114" y="721"/>
      <point x="149" y="688"/>
      <point x="175" y="655"/>
      <point x="186" y="655" type="qcurve" smooth="yes"/>
      <point x="209" y="655"/>
      <point x="214" y="707" type="qcurve"/>
      <point x="272" y="696" type="line"/>
      <point x="260" y="587"/>
    </contour>
    <contour>
      <point x="90" y="0" type="line"/>
      <point x="90" y="500" type="line"/>
      <point x="175" y="500" type="line"/>
      <point x="175" y="0" type="line"/>
    </contour>
  </outline>
</glyph>
<glyph name="Imacron" format="2">
  <advance width="295"/>
  <unicode hex="012A"/>
  <anchor x="148" y="835" name="Anchor-8"/>
  <anchor x="100" y="0" name="Anchor-7"/>
  <anchor x="148" y="0" name="Anchor-6"/>
  <outline>
    <contour>
      <point x="33" y="767" type="line"/>
      <point x="33" y="835" type="line"/>
      <point x="263" y="835" type="line"/>
      <point x="263" y="767" type="line"/>
    </contour>
    <contour>
      <point x="195" y="0" type="line"/>
      <point x="100" y="0" type="line"/>
      <point x="100" y="710" type="line"/>
      <point x="195" y="710" type="line"/>
    </contour>
  </outline>
</glyph>
<glyph name="imacron" format="2">
  <advance width="265"/>
  <unicode hex="012B"/>
  <anchor x="133" y="681" name="Anchor-8"/>
  <anchor x="90" y="0" name="Anchor-7"/>
  <anchor x="133" y="0" name="Anchor-6"/>
  <outline>
    <contour>
      <point x="19" y="613" type="line"/>
      <point x="19" y="681" type="line"/>
      <point x="247" y="681" type="line"/>
      <point x="247" y="613" type="line"/>
    </contour>
    <contour>
      <point x="90" y="0" type="line"/>
      <point x="90" y="500" type="line"/>
      <point x="175" y="500" type="line"/>
      <point x="175" y="0" type="line"/>
    </contour>
  </outline>
</glyph>
<glyph name="Ibreve" format="2">
  <advance width="295"/>
  <unicode hex="012C"/>
  <anchor x="148" y="884" name="Anchor-8"/>
  <anchor x="100" y="0" name="Anchor-7"/>
  <anchor x="148" y="0" name="Anchor-6"/>
  <outline>
    <contour>
      <point x="94" y="861" type="line"/>
      <point x="96" y="809"/>
      <point x="200" y="809"/>
      <point x="202" y="861" type="qcurve"/>
      <point x="274" y="861" type="line"/>
      <point x="273" y="807"/>
      <point x="207" y="748"/>
      <point x="89" y="748"/>
      <point x="23" y="807"/>
      <point x="22" y="861" type="qcurve"/>
    </contour>
    <contour>
      <point x="195" y="0" type="line"/>
      <point x="100" y="0" type="line"/>
      <point x="100" y="710" type="line"/>
      <point x="195" y="710" type="line"/>
    </contour>
  </outline>
</glyph>
<glyph name="ibreve" format="2">
  <advance width="265"/>
  <unicode hex="012D"/>
  <anchor x="133" y="723" name="Anchor-8"/>
  <anchor x="90" y="0" name="Anchor-7"/>
  <anchor x="133" y="0" name="Anchor-6"/>
  <outline>
    <contour>
      <point x="91" y="723" type="line"/>
      <point x="91" y="673"/>
      <point x="111" y="636"/>
      <point x="155" y="636"/>
      <point x="175" y="673"/>
      <point x="175" y="723" type="qcurve"/>
      <point x="247" y="723" type="line"/>
      <point x="246" y="575"/>
      <point x="20" y="575"/>
      <point x="19" y="723" type="qcurve"/>
    </contour>
    <contour>
      <point x="90" y="0" type="line"/>
      <point x="90" y="500" type="line"/>
      <point x="175" y="500" type="line"/>
      <point x="175" y="0" type="line"/>
    </contour>
  </outline>
</glyph>
